<?xml version="1.0" encoding="utf-8" ?>
<svg baseProfile="full" height="200mm" version="1.1" viewBox="0,0,200,200" width="200mm" xmlns="http://www.w3.org/2000/svg" xmlns:ev="http://www.w3.org/2001/xml-events" xmlns:xlink="http://www.w3.org/1999/xlink"><defs /><rect fill="#1a1a1a" height="200" width="200" x="0" y="0" /><text alignment-baseline="middle" fill="#e1ed5e" style="dominant-baseline: central; font-size:9.0px; font-family:Arial;" text-anchor="middle" x="100.0" y="100.0">2024</text><line stroke="#e1ed5e" stroke-width="0.3" x1="100.0" x2="100.0" y1="15.0" y2="10.0" /><path d="M 100.0 14.0 a86.0,86.0 0 0,1 42.35913384403234,11.155469271406648" fill="none" id="id61" stroke="none" /><text fill="#e1ed5e" style="font-size:6.75px; font-family:Arial;" text-anchor="middle"><textPath startOffset="22.145653131862478" xlink:href="#id61">January</textPath></text><path d="M 100.0 79.0 l 0.0 -32.33815317815385 a53.33815317815385,53.33815317815385 0 0,0 0.915620325963282,0.007859499280427238 l -0.5551274011144272 32.33338807706786" fill="#ff9e0e" stroke="none" /><path d="M 102.51750503828377 79.15144685158666 l 3.047018136622708 -25.23368120401644 a46.416982248702155,46.416982248702155 0 0,0 0.7902428854672596,0.10231276273747279 l -3.4797388439807593 25.177656845078573" fill="#ff0000" stroke="none" /><path d="M 102.87502721639298 79.19773525538626 l 6.702854551964364 -48.498516514753945 a69.95951759644544,69.95951759644544 0 0,0 1.1882287404976042,0.17462870594921998 l -7.53440839806965 48.37630673550584" fill="#30ff38" stroke="none" /><path d="M 103.58742460773223 79.30868818359171 l 5.5250994337648995 -31.867305295917625 a53.34272515692221,53.34272515692221 0 0,0 0.9008958014710823,0.1641732254461498 l -6.071329968787036 31.767763896540107" fill="#ff9f0e" stroke="none" /><path d="M 104.29559338865022 79.4440306129975 l 12.88678016595065 -61.66790816100754 a84.0,84.0 0 0,0 1.4089503335234634,0.30707416746512495 l -13.943492916093248 61.4376025354087" fill="#4dd2ff" stroke="none" /><path d="M 104.9986988182912 79.60360301121754 l 10.163506422980594 -41.47057451083192 a63.69783850581233,63.69783850581233 0 0,0 1.0597946479483085,0.2693956552137277 l -10.873906364154298 41.28999362378293" fill="#92ff23" stroke="none" /><path d="M 106.38641147887787 79.99465700312896 l 11.974945009400036 -37.51134468457537 a60.376392521702336,60.376392521702336 0 0,0 0.9846448391208541,0.32367231615062503 l -12.617112586168632 37.300251447022724" fill="#d0ff1d" stroke="none" /><path d="M 108.07796709384702 80.6158196554323 l 11.014939040572733 -26.43184384961358 a49.6351401490876,49.6351401490876 0 0,0 0.7836795958303524,0.33450621899068217 l -11.467053711573516 26.238862980963496" fill="#ff4c07" stroke="none" /><path d="M 108.4095320186766 80.7573450057729 l 15.200384425096368 -34.78145426192008 a58.95788781326947,58.95788781326947 0 0,0 0.9239166988232513,0.41325618763766564 l -15.795214526775252 34.51539432337257" fill="#ebff1a" stroke="none" /><path d="M 109.71004243097381 81.37971332152246 l 14.807132121774234 -28.394628237054842 a53.02352376601036,53.02352376601036 0 0,0 0.8034608708929363,0.4277976586369601 l -15.292381808453731 28.13626011069531" fill="#ff980e" stroke="none" /><path d="M 110.02825361518725 81.54914285379988 l 18.429622444346492 -33.90842952596099 a59.59316748283591,59.59316748283591 0 0,0 0.894623447388139,0.4962325456108456 l -19.008990079890733 33.587064064917" fill="#dfff1b" stroke="none" /><line stroke="#e1ed5e" stroke-width="0.3" x1="143.13028292997686" x2="145.6673583964461" y1="26.7553504044142" y2="22.446841604673864" /><path d="M 143.63769802327073 25.89364864446614 a86.0,86.0 0 0,1 29.32050498858742,28.57503671076993" fill="none" id="id62" stroke="none" /><text fill="#e1ed5e" style="font-size:6.75px; font-family:Arial;" text-anchor="middle"><textPath startOffset="20.669276256404974" xlink:href="#id62">February</textPath></text><path d="M 112.16784306229584 82.88440491214696 l 22.821239879909378 -32.10093187326121 a60.38627701101138,60.38627701101138 0 0,0 0.8397114095253921,0.6078863037990303 l -23.368932299808737 31.704444798089106" fill="#d0ff1d" stroke="none" /><path d="M 112.7482090630111 83.31218511350987 l 19.644665828851224 -25.715498172211124 a53.36046572242477,53.36046572242477 0 0,0 0.7231360902016662,0.5623149975903542 l -20.083211863688113 25.37448212299998" fill="#ff9f0e" stroke="none" /><path d="M 113.03279911837588 83.53348406188908 l 20.057475325475654 -25.341964847714905 a53.31899594317377,53.31899594317377 0 0,0 0.7128222398322418,0.574199138370052 l -20.489548335663155 24.993917415551444" fill="#ff9e0e" stroke="none" /><path d="M 113.59037401385872 83.9905735841838 l 22.17395017442847 -26.1208575498721 a55.26343919513548,55.26343919513548 0 0,0 0.717952391967162,0.6201501765006119 l -22.61908204615849 25.736363240906766" fill="#ffc712" stroke="none" /><path d="M 113.86319453409587 84.22622945171908 l 23.617681637104216 -26.87258626500446 a56.77612022678977,56.77612022678977 0 0,0 0.7265585307723406,0.6496931183988491 l -24.075505194699932 26.463197616722226" fill="#ffe715" stroke="none" /><path d="M 114.39649973595853 84.71141617570332 l 24.531398578647178 -26.05149518115896 a56.78365433264749,56.78365433264749 0 0,0 0.7039213131381676,0.6743406946420605 l -24.974992377650658 25.62654235621132" fill="#ffe715" stroke="none" /><path d="M 114.65682725009322 84.96080404539774 l 24.994789973003446 -25.646856433116238 a56.81201991923144,56.81201991923144 0 0,0 0.6925874349076554,0.6866679197518343 l -25.43136932804106 25.214008503135744" fill="#ffe815" stroke="none" /><path d="M 115.16444852881244 85.47280134310134 l 24.352272143302724 -23.328925842601844 a54.723462744965765,54.723462744965765 0 0,0 0.6440278369128287,0.6839352447059782 l -24.749155813951813 22.90744913795137" fill="#ffbc11" stroke="none" /><path d="M 117.21940702142032 87.97951657250589 l 27.76747327145364 -19.38385287412545 a54.863938402475185,54.863938402475185 0 0,0 0.5324682726264888,0.7768871227691696 l -28.096131280895452 18.90433101628623" fill="#ffbf11" stroke="none" /><path d="M 117.42321728460499 88.27688183743584 l 27.93967242772936 -18.79905851733932 a54.67536037679728,54.67536037679728 0 0,0 0.5172694238129426,0.7832118362097127 l -28.258266290463027 18.316666802790547" fill="#ffbb11" stroke="none" /><line stroke="#e1ed5e" stroke-width="0.3" x1="172.87174338648825" x2="177.1583165268699" y1="56.24261187166439" y2="53.66864786411523" /><path d="M 173.72905801456457 55.72781907015455 a86.0,86.0 0 0,1 12.242430191666344,42.057860355516425" fill="none" id="id63" stroke="none" /><text fill="#e1ed5e" style="font-size:6.75px; font-family:Arial;" text-anchor="middle"><textPath startOffset="22.145653131862474" xlink:href="#id63">March</textPath></text><path d="M 118.53625476483649 90.13048839642627 l 30.076674376305203 -16.014135029961167 a55.074313819886726,55.074313819886726 0 0,0 0.4371639866912769,0.8383195867127927 l -30.347146431971424 15.495469200143877" fill="#ffc412" stroke="none" /><path d="M 118.70294669586156 90.45014215332178 l 30.2164161511421 -15.428717387262294 a54.92752754379563,54.92752754379563 0 0,0 0.42158207888446125,0.843446564407726 l -30.476818143238297 14.907738966690816" fill="#ffc011" stroke="none" /><path d="M 118.8641267826498 90.77261029715802 l 30.40951588205102 -14.874818058184804 a54.852605046655036,54.852605046655036 0 0,0 0.40648586191392067,0.8493991138253727 l -30.660381001924854 14.350606442294326" fill="#ffbf11" stroke="none" /><path d="M 119.0197475246899 91.09779779509293 l 30.589986526131497 -14.317658273197582 a54.77488140759298,54.77488140759298 0 0,0 0.391289673660055,0.855038553490144 l -30.831260664646607 13.790430737492754" fill="#ffbd11" stroke="none" /><path d="M 119.16976305983485 91.42560881287824 l 30.96275568013138 -13.84924678537002 a54.91893093582977,54.91893093582977 0 0,0 0.3775444220468504,0.8638955226411944 l -31.1959339841952 13.315689192952977" fill="#ffc011" stroke="none" /><path d="M 119.4528033332814 92.08871423366111 l 31.390093819414503 -12.766077885170585 a54.8867339022498,54.8867339022498 0 0,0 0.34746262532127753,0.875832795195887 l -31.604615119701904 12.225344072761132" fill="#ffc011" stroke="none" /><path d="M 119.58574465831526 92.42381321644754 l 31.591973033424367 -12.220453842206034 a54.87317895111264,54.87317895111264 0 0,0 0.3322945068638488,0.8814506584186939 l -31.797098224102655 11.676334903593183" fill="#ffbf11" stroke="none" /><path d="M 119.71291397450082 92.76114493625339 l 31.829195775964283 -11.688121569234191 a54.90737220077457,54.90737220077457 0 0,0 0.3173118739819009,0.8875777856735797 l -32.025147819990124 11.140008827179695" fill="#ffc011" stroke="none" /><path d="M 119.83427380445688 93.10060997987247 l 31.963142336854798 -11.11844010146003 a54.841722449305,54.841722449305 0 0,0 0.3016675451893731,0.8918264945424018 l -32.14929530361653 10.568111932443466" fill="#ffbf11" stroke="none" /><path d="M 119.94978838288452 93.4421083053983 l 32.25356590066798 -10.602387748771497 a54.95148213677913,54.95148213677913 0 0,0 0.2868867315488931,0.8986686004916448 l -32.43081734799413 10.047150114588465" fill="#ffc111" stroke="none" /><path d="M 120.05942366710727 93.78553927170692 l 37.72165280321388 -11.686264463134716 a60.49040221760902,60.49040221760902 0 0,0 0.2987755772605309,0.9945267252101287 l -37.91670470047804 11.037000134333864" fill="#ceff1d" stroke="none" /><path d="M 120.35273937422433 94.82641323984039 l 32.73889817310476 -8.322099891137809 a54.78006512999935,54.78006512999935 0 0,0 0.22384823268590048,0.9133771777551655 l -32.87693393230695 7.758866888774548" fill="#ffbd11" stroke="none" /><path d="M 120.43855184770803 95.1765574152323 l 32.894074847777006 -7.762912098153189 a54.797676907367595,54.797676907367595 0 0,0 0.20820282995620093,0.9173800847872727 l -33.02248853929087 7.197097679426889" fill="#ffbe11" stroke="none" /><path d="M 120.51834098615036 95.52812308129327 l 33.31926857354751 -7.261779506579537 a55.101423722161066,55.101423722161066 0 0,0 0.1934907201004141,0.9259231401096569 l -33.4390170044723 6.688739915184476" fill="#ffc412" stroke="none" /><line stroke="#e1ed5e" stroke-width="0.3" x1="184.99686870605535" x2="189.99668451229388" y1="99.2704041080226" y2="99.22748670261217" /><path d="M 185.99683186730306 99.26182062694052 a86.0,86.0 0 0,1 -10.086455211305974,41.156179273409016" fill="none" id="id64" stroke="none" /><text fill="#e1ed5e" style="font-size:6.75px; font-family:Arial;" text-anchor="middle"><textPath startOffset="21.40746469413373" xlink:href="#id64">April</textPath></text><line stroke="#e1ed5e" stroke-width="0.3" x1="174.33088141563837" x2="178.70328620479359" y1="141.23008692659167" y2="143.65538615756765" /><path d="M 175.20536237346943 141.71514677278685 a86.0,86.0 0 0,1 -30.301960400862466,31.631185727798858" fill="none" id="id65" stroke="none" /><text fill="#e1ed5e" style="font-size:6.75px; font-family:Arial;" text-anchor="middle"><textPath startOffset="22.145653131862474" xlink:href="#id65">May</textPath></text><line stroke="#e1ed5e" stroke-width="0.3" x1="143.1302829299769" x2="145.66735839644613" y1="173.24464959558577" y2="177.55315839532614" /><path d="M 143.63769802327073 174.10635135553383 a86.0,86.0 0 0,1 -40.68552437913181,11.842963189579606" fill="none" id="id66" stroke="none" /><text fill="#e1ed5e" style="font-size:6.75px; font-family:Arial;" text-anchor="middle"><textPath startOffset="21.407464694133747" xlink:href="#id66">June</textPath></text><line stroke="#e1ed5e" stroke-width="0.3" x1="101.45913802915013" x2="101.54496967792366" y1="184.9874750549273" y2="189.98673829345242" /><path d="M 101.47630435890484 185.9873277026323 a86.0,86.0 0 0,1 -42.54439059252881,-10.42667462771756" fill="none" id="id67" stroke="none" /><text fill="#e1ed5e" style="font-size:6.75px; font-family:Arial;" text-anchor="middle"><textPath startOffset="22.145653131862474" xlink:href="#id67">July</textPath></text><line stroke="#e1ed5e" stroke-width="0.3" x1="58.13341422392154" x2="55.67067388415222" y1="173.97424548756322" y2="178.32567169271397" /><path d="M 57.64086615596768 174.84453072859336 a86.0,86.0 0 0,1 -31.369924170532247,-30.572349798747897" fill="none" id="id68" stroke="none" /><text fill="#e1ed5e" style="font-size:6.75px; font-family:Arial;" text-anchor="middle"><textPath startOffset="22.145653131862474" xlink:href="#id68">August</textPath></text><line stroke="#e1ed5e" stroke-width="0.3" x1="26.387840678322732" x2="22.057713659400548" y1="142.50000000000003" y2="145.00000000000006" /><path d="M 25.521815274538298 143.00000000000003 a86.0,86.0 0 0,1 -11.493303480769221,-40.785679425670985" fill="none" id="id69" stroke="none" /><text fill="#e1ed5e" style="font-size:6.75px; font-family:Arial;" text-anchor="middle"><textPath startOffset="21.40746469413373" xlink:href="#id69">September</textPath></text><line stroke="#e1ed5e" stroke-width="0.3" x1="15.003131293944662" x2="10.003315487706104" y1="100.72959589197737" y2="100.7725132973878" /><path d="M 14.003168132696942 100.73817937305945 a86.0,86.0 0 0,1 10.791469493833604,-42.45332614584628" fill="none" id="id70" stroke="none" /><text fill="#e1ed5e" style="font-size:6.75px; font-family:Arial;" text-anchor="middle"><textPath startOffset="22.145653131862435" xlink:href="#id70">October</textPath></text><line stroke="#e1ed5e" stroke-width="0.3" x1="26.387840678322718" x2="22.05771365940052" y1="57.49999999999999" y2="54.99999999999999" /><path d="M 25.521815274538284 56.99999999999999 a86.0,86.0 0 0,1 29.574782752854787,-30.34633250058573" fill="none" id="id71" stroke="none" /><text fill="#e1ed5e" style="font-size:6.75px; font-family:Arial;" text-anchor="middle"><textPath startOffset="21.40746469413373" xlink:href="#id71">November</textPath></text><line stroke="#e1ed5e" stroke-width="0.3" x1="56.869717070023135" x2="54.33264160355391" y1="26.7553504044142" y2="22.446841604673864" /><path d="M 56.362301976729285 25.89364864446614 a86.0,86.0 0 0,1 42.16139366436587,-11.88097634709845" fill="none" id="id72" stroke="none" /><text fill="#e1ed5e" style="font-size:6.75px; font-family:Arial;" text-anchor="middle"><textPath startOffset="22.145653131862474" xlink:href="#id72">December</textPath></text></svg>