<?xml version="1.0" encoding="utf-8" ?>
<svg baseProfile="full" height="200mm" version="1.1" viewBox="0,0,200,200" width="200mm" xmlns="http://www.w3.org/2000/svg" xmlns:ev="http://www.w3.org/2001/xml-events" xmlns:xlink="http://www.w3.org/1999/xlink"><defs /><rect fill="#1a1a1a" height="200" width="200" x="0" y="0" /><text alignment-baseline="middle" fill="#e1ed5e" style="dominant-baseline: central; font-size:9.0px; font-family:Arial;" text-anchor="middle" x="100.0" y="100.0">2021</text><line stroke="#e1ed5e" stroke-width="0.3" x1="100.0" x2="100.0" y1="15.0" y2="10.0" /><path d="M 100.0 14.0 a86.0,86.0 0 0,1 42.46469731375804,11.215312516191453" fill="none" id="id25" stroke="none" /><text fill="#e1ed5e" style="font-size:6.75px; font-family:Arial;" text-anchor="middle"><textPath startOffset="22.20632615414155" xlink:href="#id25">January</textPath></text><line stroke="#e1ed5e" stroke-width="0.3" x1="143.23703022742887" x2="145.7803849466894" y1="26.81831364943548" y2="22.513508569990506" /><path d="M 143.74570117128098 25.957352633546492 a86.0,86.0 0 0,1 28.547481713284135,27.462654790039103" fill="none" id="id26" stroke="none" /><text fill="#e1ed5e" style="font-size:6.75px; font-family:Arial;" text-anchor="middle"><textPath startOffset="19.985693538727396" xlink:href="#id26">February</textPath></text><line stroke="#e1ed5e" stroke-width="0.3" x1="172.23445277983987" x2="176.4835382374775" y1="55.19839476539836" y2="52.563006222186495" /><path d="M 173.08426987136738 54.67131705675599 a86.0,86.0 0 0,1 12.851231095245387,41.99856678651699" fill="none" id="id27" stroke="none" /><text fill="#e1ed5e" style="font-size:6.75px; font-family:Arial;" text-anchor="middle"><textPath startOffset="22.20632615414155" xlink:href="#id27">March</textPath></text><line stroke="#e1ed5e" stroke-width="0.3" x1="184.98032266829074" x2="189.97916517819016" y1="98.17113171792111" y2="98.06355123074" /><path d="M 185.9800911702706 98.14961562048488 a86.0,86.0 0 0,1 -9.607161424134198,41.387399972396054" fill="none" id="id28" stroke="none" /><text fill="#e1ed5e" style="font-size:6.75px; font-family:Arial;" text-anchor="middle"><textPath startOffset="21.466115282336823" xlink:href="#id28">April</textPath></text><path d="M 120.70491114924044 103.5080841355445 l 40.22262381631801 6.81501830570164 a61.795881424184,61.795881424184 0 0,0 -0.18672231072143414,1.0472378800371671 l -40.09935506325739 -7.506374936472025" fill="#fff717" stroke="none" /><path d="M 120.5718875245553 104.21870165774334 l 36.46901605536731 7.478744879652082 a58.22795665923072,58.22795665923072 0 0,0 -0.2098035387491504,0.9801322858415388 l -36.33487847789372 -8.10539098490979" fill="#ff9e0e" stroke="none" /><line stroke="#e1ed5e" stroke-width="0.3" x1="174.80103733775053" x2="179.2010983576182" y1="140.37084112569926" y2="142.7455964860345" /><path d="M 175.68104954172406 140.8457921977663 a86.0,86.0 0 0,1 -30.038265399797805,32.042727171017184" fill="none" id="id29" stroke="none" /><text fill="#e1ed5e" style="font-size:6.75px; font-family:Arial;" text-anchor="middle"><textPath startOffset="22.206326154141568" xlink:href="#id29">May</textPath></text><path d="M 117.55443506779139 111.5257021239791 l 33.10390785765601 21.735007685154667 a60.601505962802875,60.601505962802875 0 0,0 -0.5800340240931928,0.8670721659694737 l -32.7248707281521 -22.30161676532995" fill="#ffda14" stroke="none" /><path d="M 117.14729908036423 112.12312394758627 l 32.2979449979451 22.834616030625345 a60.554733475987156,60.554733475987156 0 0,0 -0.6090658751160972,0.8459392301294306 l -31.9000993304534 -23.387188866205907" fill="#ffd914" stroke="none" /><path d="M 116.71984013943494 112.70617746262583 l 31.4661101697539 23.912547999333952 a60.5212100148204,60.5212100148204 0 0,0 -0.637470431856754,0.8240164650538356 l -31.04983292067908 -24.45064245850104" fill="#ffd814" stroke="none" /><path d="M 116.498646956653 112.99209946851258 l 31.087705064481924 24.480465428873405 a60.56941487804035,60.56941487804035 0 0,0 -0.6520790372020551,0.8135688606450762 l -30.661708115225014 -25.01196212309673" fill="#ffd914" stroke="none" /><path d="M 116.0416608686014 113.55231037782055 l 31.294412391590534 26.43813463557685 a61.967245574285606,61.967245574285606 0 0,0 -0.6953831228974958,0.8088876720853875 l -30.83468675912226 -26.972899406823768" fill="#fffb17" stroke="none" /><path d="M 115.80600337817218 113.82643327865902 l 29.63560808129579 25.923995332962463 a60.37413872545816,60.37413872545816 0 0,0 -0.6909709501317819,0.7763131874058069 l -29.18497828151567 -26.430282690109134" fill="#ffd513" stroke="none" /><path d="M 115.07121518719521 114.62390073753431 l 28.85890652371129 28.00237267895293 a61.21155755992642,61.21155755992642 0 0,0 -0.7402499474902866,0.74986928859718 l -28.372615951165468 -28.494982461530775" fill="#ffe915" stroke="none" /><path d="M 114.81725581225074 114.88116024355365 l 28.29835958650098 28.420405841158036 a61.10631650330209,61.10631650330209 0 0,0 -0.7517533227984707,0.7357488494590797 l -27.804956311326713 -28.903304793539686" fill="#ffe615" stroke="none" /><path d="M 114.55890576462653 115.13401014063108 l 35.57936024586769 36.98481242089011 a72.32024186725602,72.32024186725602 0 0,0 -0.9045683803198944,0.8553258639039933 l -34.937456031156984 -37.59177292154002" fill="#31ff3b" stroke="none" /><path d="M 114.29624159901734 115.38237550388516 l 32.95643519104895 35.46024721721376 a69.4102856137797,69.4102856137797 0 0,0 -0.8821731667595931,0.8058442717109872 l -32.3411624748225 -36.02228425551133" fill="#5fff29" stroke="none" /><path d="M 113.75828350139079 115.86535959552629 l 27.10181665412376 31.25244997795189 a62.36694447959778,62.36694447959778 0 0,0 -0.817109502225709,0.6963584446088242 l -26.559841675321003 -31.714332812783663" fill="#f9ff18" stroke="none" /><path d="M 113.20401910651253 116.32954008644616 l 28.377518858674325 35.09475622676497 a66.13231094449381,66.13231094449381 0 0,0 -0.8913454810535852,0.7081387580897283 l -27.76921588490339 -35.57802889885983" fill="#a4ff21" stroke="none" /><path d="M 112.92097659922987 116.55440617244103 l 28.358960347226365 36.33361182962872 a67.09080147449916,67.09080147449916 0 0,0 -0.9164963583514362,0.7027303261742854 l -27.729335260381436 -36.81638149763038" fill="#8fff24" stroke="none" /><path d="M 112.63410532772338 116.77436683061366 l 27.224135431030916 36.14562507757004 a66.25107470784945,66.25107470784945 0 0,0 -0.9168360969535037,0.6782534260707593 l -26.597914363658848 -36.60888845238056" fill="#a1ff22" stroke="none" /><path d="M 112.34349029814194 116.9893568818739 l 26.25526925279402 36.13727791664837 a65.66813202677938,65.66813202677938 0 0,0 -0.9202065088901242,0.6565429110949395 l -25.62933541605501 -36.58386508958753" fill="#aeff20" stroke="none" /><path d="M 111.7513745106137 117.40417183066458 l 35.25412353184112 52.21251549199374 a84.0,84.0 0 0,0 -1.2053012050401435,0.7988079156347263 l -34.35014762806101 -52.81162142871979" fill="#4dd2ff" stroke="none" /><path d="M 111.1453310114006 117.79835938074945 l 23.56285123591625 37.62832112415399 a65.39705518374359,65.39705518374359 0 0,0 -0.9592215837984599,0.5892322417250137 l -22.91165045218548 -38.02834183270738" fill="#b4ff20" stroke="none" /><line stroke="#e1ed5e" stroke-width="0.3" x1="143.8653032363475" x2="146.44561519142675" y1="172.8068346515853" y2="177.08958963109032" /><path d="M 144.38136562736335 173.6633856474863 a86.0,86.0 0 0,1 -40.68145358897372,12.25698825130547" fill="none" id="id30" stroke="none" /><text fill="#e1ed5e" style="font-size:6.75px; font-family:Arial;" text-anchor="middle"><textPath startOffset="21.466115282336833" xlink:href="#id30">June</textPath></text><path d="M 110.8373102113329 117.98757091392108 l 22.838163590552465 37.90636967272593 a65.2546560031167,65.2546560031167 0 0,0 -0.9671116911028845,0.5713866338253974 l -22.1822840284212 -38.29387487884508" fill="#b7ff1f" stroke="none" /><path d="M 110.5260780823613 118.17145234162733 l 22.00346999894381 37.9851833995269 a64.89791395829778,64.89791395829778 0 0,0 -0.9714637750968015,0.5516224851470831 l -21.346357456925812 -38.35830905046862" fill="#bfff1e" stroke="none" /><path d="M 110.21172684928248 118.3499491758327 l 22.208095857142325 39.906808739132686 a66.67004385088478,66.67004385088478 0 0,0 -1.0075976690470334,0.5494225874276972 l -21.517875376226645 -40.28317197832015" fill="#98ff23" stroke="none" /><path d="M 109.89434966115114 118.52300852407294 l 19.485279117188526 36.47799032196645 a62.35601383359162,62.35601383359162 0 0,0 -0.9511046910991946,0.4975730223993441 l -18.854483523562838 -36.80799276331051" fill="#faff18" stroke="none" /><path d="M 108.59647513512805 119.15986991738527 l 17.637449851356603 39.31044288670128 a64.0858510094407,64.0858510094407 0 0,0 -1.010357157913778,0.4429108863695337 l -16.95817201878507 -39.60821832636527" fill="#d1ff1c" stroke="none" /><path d="M 108.2653958097858 119.30500536409082 l 16.01425685939404 37.40357046259131 a61.68763333137825,61.68763333137825 0 0,0 -0.9797422053366838,0.4095323212901794 l -15.368043194559897 -37.673687826901464" fill="#fff517" stroke="none" /><path d="M 107.93186726928326 119.44442032107085 l 19.2022558377159 47.072993148437206 a71.83889567260397,71.83889567260397 0 0,0 -1.1490081417549929,0.45721405242984386 l -18.38912661991904 -47.39655404527311" fill="#2fff2f" stroke="none" /><path d="M 107.59598834532513 119.57807347666477 l 15.470010256384477 39.87275700214219 a63.768656376890306,63.768656376890306 0 0,0 -1.0267657953872293,0.38823496695877985 l -14.781374240236973 -40.1331402192076" fill="#d9ff1c" stroke="none" /><path d="M 106.2309692047433 120.05430185196036 l 13.085220057523975 42.11462843262799 a65.10062258032357,65.10062258032357 0 0,0 -1.0729978406938288,0.3232854474655481 l -12.358347242389899 -42.33362924919926" fill="#baff1f" stroke="none" /><path d="M 104.13013068566511 120.58985236759428 l 8.301777732968262 41.38667536687679 a63.211093464287956,63.211093464287956 0 0,0 -1.0686659665789096,0.20481237594128515 l -7.588144151817647 -41.52344494116654" fill="#e5ff1a" stroke="none" /><path d="M 103.7750983002368 120.6578951692458 l 7.249678218003849 39.67130938786247 a61.3282856418681,61.3282856418681 0 0,0 -1.0401015242479636,0.18083498208639237 l -6.565727722283835 -39.79022294846987" fill="#ffec16" stroke="none" /><path d="M 103.41894727170886 120.7198165907248 l 6.695250810213647 40.57517059840209 a62.12384773463081,62.12384773463081 0 0,0 -1.056590972640733,0.1650177800356369 l -5.995823973964397 -40.68440668578483" fill="#ffff18" stroke="none" /><path d="M 103.06178313531738 120.77559828337769 l 5.941323630254829 40.31459693859689 a61.75004359262638,61.75004359262638 0 0,0 -1.0529011954041125,0.14592251162546746 l -5.246493843663886 -40.410894015714966" fill="#fff617" stroke="none" /><path d="M 101.62511606390274 120.93702456842531 l 3.184742469017496 41.03031949471748 a62.15373254557303,62.15373254557303 0 0,0 -1.0673785958342954,0.07361267728097366 l -2.4780011124042702 -41.07906051651474" fill="#feff18" stroke="none" /><path d="M 101.26447882468166 120.96189622390904 l 2.458255766886696 40.751732074499245 a61.82580909776562,61.82580909776562 0 0,0 -1.0628502268706588,0.0549372164213106 l -1.7564174716025573 -40.78800909768276" fill="#fff817" stroke="none" /><path d="M 100.90346689309514 120.98055641714683 l 1.7698390761955702 41.09968928710027 a62.13777813460291,62.13777813460291 0 0,0 -1.0690054586756106,0.03681870946112029 l -1.0621132658453074 -41.12406479498748" fill="#ffff18" stroke="none" /><line stroke="#e1ed5e" stroke-width="0.3" x1="102.19456741930631" x2="102.32365962044197" y1="184.97166512339345" y2="189.96999836594603" /><path d="M 102.22038585953345 185.97133177190398 a86.0,86.0 0 0,1 -42.740103519485714,-10.115201625700543" fill="none" id="id31" stroke="none" /><text fill="#e1ed5e" style="font-size:6.75px; font-family:Arial;" text-anchor="middle"><textPath startOffset="22.20632615414155" xlink:href="#id31">July</textPath></text><path d="M 100.18074693466247 120.99922214144158 l 0.35274512281340326 40.98201281865004 a61.98353088485258,61.98353088485258 0 0,0 -1.0669841149516892,0.0 l 0.35274512281337506 -40.98201281865004" fill="#fffc17" stroke="none" /><path d="M 99.09653310690486 120.98055641714683 l -1.7328755059700909 40.24131110365868 a61.278604455227025,61.278604455227025 0 0,0 -1.0534432075860616,-0.05445098097510154 l 2.4253067819696414 -40.205520315921376" fill="#ffeb16" stroke="none" /><path d="M 98.73552117531835 120.96189622390904 l -2.509799098648645 41.606191595955536 a62.681821824806775,62.681821824806775 0 0,0 -1.0764475796307298,-0.07423812750086628 l 3.2256094390583048 -41.55682512393838" fill="#f2ff19" stroke="none" /><path d="M 98.37488393609728 120.93702456842531 l -3.1859292495806173 41.04560926654357 a62.16906830674093,62.16906830674093 0 0,0 -1.0662163433993799,-0.09199763251289635 l 3.891989910721539 -40.98468738175201" fill="#feff18" stroke="none" /><path d="M 98.01472825383883 120.90594882070398 l -3.807244649083197 40.092275496057184 a61.272641659937335,61.272641659937335 0 0,0 -1.0491259362276006,-0.10874619290712996 l 4.496803181916391 -40.020799934694296" fill="#ffeb16" stroke="none" /><path d="M 97.65516085044442 120.86867818915974 l -4.471326457691997 39.794061329083064 a61.0444762402267,61.0444762402267 0 0,0 -1.043199452228971,-0.12631692567890818 l 5.155653332972357 -39.71119887467881" fill="#ffe515" stroke="none" /><path d="M 96.58105272829116 120.7198165907248 l -6.7614845472504905 40.97656634231374 a62.530671346472914,62.530671346472914 0 0,0 -1.0604934721233117,-0.18438038360997103 l 7.465826990845852 -40.85410738018276" fill="#f5ff19" stroke="none" /><path d="M 96.22490169976321 120.6578951692458 l -7.44133627245593 40.72009055389594 a62.3944351361056,62.3944351361056 0 0,0 -1.0548592925630103,-0.20216629400597164 l 8.141163179590636 -40.5859670615415" fill="#f9ff18" stroke="none" /><path d="M 95.86986931433489 120.58985236759428 l -8.153666370510694 40.64829895240911 a62.458008671498206,62.458008671498206 0 0,0 -1.0522941319092127,-0.22051846660578195 l 8.852151963849293 -40.501924505076786" fill="#f7ff18" stroke="none" /><path d="M 95.51606077576429 120.51570834832081 l -8.675893912382609 39.69547762943918 a61.63252489580513,61.63252489580513 0 0,0 -1.0344868175149555,-0.23544583166647762 l 9.357900879290428 -39.540255064195016" fill="#fff316" stroke="none" /><path d="M 95.16358092515715 120.4354850818985 l -9.48593067630921 40.081223695433984 a62.188437378943654,62.188437378943654 0 0,0 -1.0395736508967006,-0.255501910689143 l 10.17445761194912 -39.91200052643081" fill="#fdff18" stroke="none" /><path d="M 94.11515582081647 120.15858648285463 l -11.464353184337892 39.27124459029072 a61.910414879412755,61.910414879412755 0 0,0 -1.0204163777405584,-0.30744308401004544 l 12.138644536518697 -39.06808613717495" fill="#fffa17" stroke="none" /><path d="M 93.76903079525671 120.05430185196036 l -12.260039783926521 39.458795327818464 a62.319548693398495,62.319548693398495 0 0,0 -1.0216804951763274,-0.3271098309488152 l 12.937441624193788 -39.24191265020994" fill="#faff18" stroke="none" /><path d="M 93.42475214034765 119.94407469862007 l -12.57406238445181 38.13970892252796 a61.15898954833457,61.15898954833457 0 0,0 -0.9969796773986089,-0.3382296366891661 l 13.228711794787644 -37.91761629894067" fill="#ffe815" stroke="none" /><path d="M 93.08242187328487 119.8279376855182 l -10.348280246577932 29.661400583105525 a52.414735214755,52.414735214755 0 0,0 -0.8493194823025414,-0.30453574901389396 l 10.8573192895102 -29.478877293051674" fill="#ff0000" stroke="none" /><path d="M 91.40352486487194 119.15986991738527 l -16.75412915936808 37.34169298772505 a61.92802070804672,61.92802070804672 0 0,0 -0.9688255600653021,-0.4447402967329827 l 17.3944227152008 -37.04776562065799" fill="#fffa17" stroke="none" /><path d="M 91.07499286063937 119.00905698771935 l -17.467258342790586 37.20289564733152 a62.099398518226835,62.099398518226835 0 0,0 -0.9636860619949841,-0.4626278728631429 l 18.10505707278581 -36.89671349796882" fill="#fffe18" stroke="none" /><path d="M 90.7491055286396 118.85261126421891 l -17.84286774307709 36.36239181416544 a61.504215431777304,61.504215431777304 0 0,0 -0.9464212798960236,-0.4745552771233475 l 18.466142930655874 -36.04986869613279" fill="#fff016" stroke="none" /><path d="M 90.42595943632237 118.69057910512821 l -18.89240697125405 36.882027461022275 a62.439196309811436,62.439196309811436 0 0,0 -0.9523734579507936,-0.4982367812504761 l 19.52447133173134 -36.55136126082708" fill="#f8ff18" stroke="none" /><line stroke="#e1ed5e" stroke-width="0.3" x1="58.666819895761336" x2="56.23545636021788" y1="174.27360380694188" y2="178.64263932499728" /><path d="M 58.180547188652646 175.14741091055294 a86.0,86.0 0 0,1 -31.652253787137756,-30.449443065178592" fill="none" id="id32" stroke="none" /><text fill="#e1ed5e" style="font-size:6.75px; font-family:Arial;" text-anchor="middle"><textPath startOffset="22.20632615414155" xlink:href="#id32">August</textPath></text><path d="M 89.4739219176387 118.17145234162733 l -21.028699924063663 36.30241154270296 a62.95320374312418,62.95320374312418 0 0,0 -0.9330028393598363,-0.5512345229984832 l 21.65047063445188 -35.93505844741073" fill="#ebff1a" stroke="none" /><path d="M 89.1626897886671 117.98757091392108 l -21.074024810045923 34.978284124046546 a61.83619573316003,61.83619573316003 0 0,0 -0.9069921182319196,-0.5571486381034149 l 21.67299612821015 -34.61034701911475" fill="#fff817" stroke="none" /><path d="M 88.8546689885994 117.79835938074946 l -21.87647861215965 34.935295140737715 a62.219596832559276,62.219596832559276 0 0,0 -0.9028306392468767,-0.576229229920615 l 22.47459105345345 -34.553551481993296" fill="#fdff18" stroke="none" /><path d="M 88.24862548938628 117.40417183066458 l -22.765401865732084 33.71630829291314 a61.68234220163634,61.68234220163634 0 0,0 -0.8748409983377303,-0.6017236158828062 l 23.342399748692703 -33.31944388766523" fill="#fff417" stroke="none" /><path d="M 87.36589467227662 116.77436683061367 l -24.863905932090343 33.0119361939743 a62.32797780529393,62.32797780529393 0 0,0 -0.8514336306397338,-0.6528430009819871 l 25.428468291223567 -32.57905385116495" fill="#faff18" stroke="none" /><path d="M 87.07902340077011 116.55440617244103 l -25.6202060283603 32.8247089960969 a62.639602274926624,62.639602274926624 0 0,0 -0.8442700039563196,-0.6707391519922887 l 26.181433525033977 -32.378835930099484" fill="#f3ff19" stroke="none" /><path d="M 86.79598089348748 116.32954008644616 l -25.96253743136813 32.10812498160351 a62.29146448976426,62.29146448976426 0 0,0 -0.8279718321805228,-0.6813644498492117 l 26.51137939209334 -31.65646541289712" fill="#fbff18" stroke="none" /><path d="M 85.44109423537348 115.13401014063109 l -28.540582020507067 29.667989112707037 a62.167394866095115,62.167394866095115 0 0,0 -0.7648071154442132,-0.748524733022101 l 29.04703908832707 -29.172314276762368" fill="#feff18" stroke="none" /><path d="M 84.9287848128048 114.62390073753433 l -29.675597104709396 28.794823841082398 a62.34952168477894,62.34952168477894 0 0,0 -0.7407522469051414,-0.7766757693915837 l 30.166855902993497 -28.279740955108313" fill="#faff18" stroke="none" /><path d="M 84.67929136418377 114.36230785411682 l -30.30803369542003 28.412087243076634 a62.54303320643443,62.54303320643443 0 0,0 -0.7295305066075483,-0.7917612808975457 l 30.792610610023306 -27.886174707377744" fill="#f5ff19" stroke="none" /><path d="M 84.43433777217949 114.09645910891817 l -30.18246233739679 27.33361677250978 a61.71986786096934,61.71986786096934 0 0,0 -0.7063725733932344,-0.7936170744115428 l 30.648493760438363 -26.810025528357375" fill="#fff517" stroke="none" /><path d="M 83.72743513129214 113.27417163493432 l -32.237865500141936 26.297695737917955 a62.603470686102014,62.603470686102014 0 0,0 -0.6739773031107739,-0.8408903143785101 l 32.685760715307566 -25.738877589961184" fill="#f4ff19" stroke="none" /><path d="M 83.50135304334701 112.99209946851258 l -33.10246559434748 26.067017906662603 a63.13386584413098,63.13386584413098 0 0,0 -0.6649895584471814,-0.8595886457875588 l 33.54626197001273 -25.493351266761792" fill="#e7ff1a" stroke="none" /><path d="M 83.28015986056508 112.70617746262583 l -32.27387327034506 24.526404424890636 a61.535754709683005,61.535754709683005 0 0,0 -0.6336387453039908,-0.8488626470985527 l 32.69127328234413 -23.967228898282773" fill="#fff116" stroke="none" /><path d="M 83.06392112726016 112.41649034213515 l -33.503476351264084 24.562686184285937 a62.54285113238405,62.54285113238405 0 0,0 -0.6290625715049349,-0.8737128924530337 l 33.92131871514463 -23.982339686381763" fill="#f5ff19" stroke="none" /><path d="M 82.24976979558568 111.22182372390057 l -35.059283227261055 22.164732047519305 a62.47805066716175,62.47805066716175 0 0,0 -0.5668703760338749,-0.9139755416237616 l 35.43561824296288 -21.55796017453028" fill="#f7ff19" stroke="none" /><line stroke="#e1ed5e" stroke-width="0.3" x1="26.63291911575756" x2="22.317208475507996" y1="142.92168965132927" y2="145.44649492493687" /><path d="M 25.769776987707644 143.4266507060508 a86.0,86.0 0 0,1 -11.730757126820373,-40.83630448921669" fill="none" id="id33" stroke="none" /><text fill="#e1ed5e" style="font-size:6.75px; font-family:Arial;" text-anchor="middle"><textPath startOffset="21.46611528233685" xlink:href="#id33">September</textPath></text><path d="M 80.87730276802145 108.67885076344099 l -37.75708064133894 17.13607992503279 a62.46374770511806,62.46374770511806 0 0,0 -0.4359342432038623,-0.9829166351455626 l 38.04645596927408 -16.483614953394532" fill="#f7ff18" stroke="none" /><path d="M 80.73074385275274 108.34839909993369 l -36.41252649825192 15.775715529514322 a60.6830604471739,60.6830604471739 0 0,0 -0.4070071201063044,-0.9620446039716442 l 36.67868459955053 -15.146596399876518" fill="#ffdc14" stroke="none" /><path d="M 79.29508885075956 103.50808413554451 l -42.96251249119794 7.279244397966584 a64.57481931760208,64.57481931760208 0 0,0 -0.17625311217721823,-1.0975282977742895 l 43.08144735773645 -6.538636870499081" fill="#c6ff1e" stroke="none" /><line stroke="#e1ed5e" stroke-width="0.3" x1="15.007084014347285" x2="10.007500721073583" y1="101.09737516637583" y2="101.16192664675087" /><path d="M 14.007167355692545 101.11028546245083 a86.0,86.0 0 0,1 10.666146001902534,-42.60595125391555" fill="none" id="id34" stroke="none" /><text fill="#e1ed5e" style="font-size:6.75px; font-family:Arial;" text-anchor="middle"><textPath startOffset="22.20632615414155" xlink:href="#id34">October</textPath></text><line stroke="#e1ed5e" stroke-width="0.3" x1="26.266209847984243" x2="21.928928074336255" y1="57.711370442889674" y2="55.22380399835377" /><path d="M 25.398753493254645 57.213857153982495 a86.0,86.0 0 0,1 29.58750427330803,-30.492523968695096" fill="none" id="id35" stroke="none" /><text fill="#e1ed5e" style="font-size:6.75px; font-family:Arial;" text-anchor="middle"><textPath startOffset="21.46611528233685" xlink:href="#id35">November</textPath></text><line stroke="#e1ed5e" stroke-width="0.3" x1="56.762969772571076" x2="54.21961505331055" y1="26.818313649435495" y2="22.513508569990535" /><path d="M 56.25429882871897 25.957352633546506 a86.0,86.0 0 0,1 42.265352541879196,-11.944610805530505" fill="none" id="id36" stroke="none" /><text fill="#e1ed5e" style="font-size:6.75px; font-family:Arial;" text-anchor="middle"><textPath startOffset="22.20632615414155" xlink:href="#id36">December</textPath></text></svg>