<?xml version="1.0" encoding="utf-8" ?>
<svg baseProfile="full" height="200mm" version="1.1" viewBox="0,0,200,200" width="200mm" xmlns="http://www.w3.org/2000/svg" xmlns:ev="http://www.w3.org/2001/xml-events" xmlns:xlink="http://www.w3.org/1999/xlink"><defs /><rect fill="#1a1a1a" height="200" width="200" x="0" y="0" /><text alignment-baseline="middle" fill="#e1ed5e" style="dominant-baseline: central; font-size:9.0px; font-family:Arial;" text-anchor="middle" x="100.0" y="100.0">2024</text><line stroke="#e1ed5e" stroke-width="0.3" x1="100.0" x2="100.0" y1="15.0" y2="10.0" /><path d="M 100.0 14.0 a86.0,86.0 0 0,1 42.35913384403234,11.155469271406648" fill="none" id="id61" stroke="none" /><text fill="#e1ed5e" style="font-size:6.75px; font-family:Arial;" text-anchor="middle"><textPath startOffset="22.145653131862478" xlink:href="#id61">January</textPath></text><path d="M 100.0 79.0 l 0.0 -14.86621211679806 a35.86621211679806,35.86621211679806 0 0,0 0.6156912242492366,0.005284968667401878 l -0.2551982994003818 14.864021546325093" fill="#ffa90f" stroke="none" /><path d="M 102.51750503828377 79.15144685158666 l 1.4007484500804732 -11.600206579514518 a32.68447212790611,32.68447212790611 0 0,0 0.5564487459770812,0.0720434306587327 l -1.599675017948346 11.57445155265539" fill="#ff7d0b" stroke="none" /><path d="M 102.87502721639298 79.19773525538626 l 3.081377498850612 -22.295312595198936 a43.507239968686946,43.507239968686946 0 0,0 0.7389495343396502,0.1086001344231683 l -3.463652138797944 22.239131387476885" fill="#f2ff19" stroke="none" /><path d="M 103.58742460773223 79.30868818359171 l 2.5399502468878765 -14.649758058537316 a35.86831390677318,35.86831390677318 0 0,0 0.6057735766104837,0.11039212503798723 l -2.7910585570494137 14.603997759567962" fill="#ffa90f" stroke="none" /><path d="M 104.29559338865022 79.4440306129975 l 5.924197538249939 -28.3494298041759 a49.961807379618136,49.961807379618136 0 0,0 0.838020299654143,0.18264262388272828 l -6.409980254523217 28.243555722159453" fill="#a5ff21" stroke="none" /><path d="M 104.9986988182912 79.60360301121754 l 4.672278021013901 -19.064488744520887 a40.628675783037764,40.628675783037764 0 0,0 0.6759735362788094,0.17182982954812256 l -4.998856850518105 18.981473683137498" fill="#ffe715" stroke="none" /><path d="M 106.38641147887787 79.99465700312896 l 5.505016678472433 -17.244386338176735 a39.101769770123475,39.101769770123475 0 0,0 0.6376889078095311,0.20962101010813278 l -5.800228323929707 17.14734440666658" fill="#ffd413" stroke="none" /><path d="M 108.07796709384702 80.6158196554323 l 5.063691155417514 -12.151015400962745 a34.163895448988015,34.163895448988015 0 0,0 0.5394071155442381,0.23024082249607644 l -5.271533346132182 12.062299928807267" fill="#ff920d" stroke="none" /><path d="M 108.4095320186766 80.7573450057729 l 6.987787393901405 -15.989425058995675 a38.44966722833436,38.44966722833436 0 0,0 0.602536673785995,0.2695069902273896 l -7.261237470543032 15.867114317858434" fill="#ffcb12" stroke="none" /><path d="M 109.71004243097381 81.37971332152246 l 6.807004894529868 -13.05332942249918 a35.72157344329866,35.72157344329866 0 0,0 0.5412859136837834,0.28820426098627827 l -7.030079624000211 12.934554693790329" fill="#ffa70f" stroke="none" /><path d="M 110.02825361518725 81.54914285379988 l 8.472304370035719 -15.588085785337121 a38.74171242551168,38.74171242551168 0 0,0 0.5815976191870277,0.32260239537984225 l -8.738646177378847 15.440350474524132" fill="#ffcf13" stroke="none" /><line stroke="#e1ed5e" stroke-width="0.3" x1="143.13028292997686" x2="145.6673583964461" y1="26.7553504044142" y2="22.446841604673864" /><path d="M 143.63769802327073 25.89364864446614 a86.0,86.0 0 0,1 29.32050498858742,28.57503671076993" fill="none" id="id62" stroke="none" /><text fill="#e1ed5e" style="font-size:6.75px; font-family:Arial;" text-anchor="middle"><textPath startOffset="20.669276256404974" xlink:href="#id62">February</textPath></text><path d="M 112.16784306229584 82.88440491214696 l 10.491180215333259 -14.757158819359299 a39.106313780844346,39.106313780844346 0 0,0 0.5437993446800353,0.39366878893871393 l -10.742960570387261 14.57488925904751" fill="#ffd413" stroke="none" /><path d="M 112.7482090630111 83.31218511350987 l 9.030873456700883 -11.821703249753982 a35.87646944393018,35.87646944393018 0 0,0 0.48619459168289114,0.37806785521431335 l -9.232477993019 11.664934342918878" fill="#ffa90f" stroke="none" /><path d="M 113.03279911837588 83.53348406188908 l 9.2206466174265 -11.6499857863583 a35.857405320775534,35.857405320775534 0 0,0 0.4793780438508071,0.38615301873498614 l -9.419275431632565 11.489984473829907" fill="#ffa90f" stroke="none" /><path d="M 113.59037401385872 83.9905735841838 l 10.193613869794401 -12.008051507140314 a36.75128771639321,36.75128771639321 0 0,0 0.47745263972243807,0.4124122185640629 l -10.3982459892797 11.831295156111532" fill="#ffb510" stroke="none" /><path d="M 113.86319453409587 84.22622945171908 l 10.857313433761215 -12.353629638083033 a37.44668417140231,37.44668417140231 0 0,0 0.47920160315977745,0.42850502844919014 l -11.067780063744369 12.165429079750457" fill="#ffbe11" stroke="none" /><path d="M 114.39649973595853 84.71141617570332 l 11.277359371228847 -11.976164847425009 a37.45014768445991,37.45014768445991 0 0,0 0.46425256431773265,0.44474345479851746 l -11.481284421411893 11.780809262320913" fill="#ffbe11" stroke="none" /><path d="M 114.65682725009322 84.96080404539774 l 11.490385598287881 -11.790147871565598 a37.46318766310839,37.46318766310839 0 0,0 0.4567085114020598,0.45280504330723736 l -11.691086029819903 11.591162818029701" fill="#ffbe11" stroke="none" /><path d="M 115.16444852881244 85.47280134310134 l 11.195012937624982 -10.724569152806827 a36.50305447926074,36.50305447926074 0 0,0 0.4295960459693703,0.4562161136282544 l -11.377464817330614 10.53081157923408" fill="#ffb110" stroke="none" /><path d="M 117.21940702142032 87.97951657250589 l 12.765019242960875 -8.910974812940928 a36.56763271631333,36.56763271631333 0 0,0 0.3548980403786834,0.5178068471689365 l -12.916107020154884 8.690533230701943" fill="#ffb210" stroke="none" /><path d="M 117.42321728460499 88.27688183743584 l 12.844181128595643 -8.642138280910334 a36.480941280508375,36.480941280508375 0 0,0 0.34513673702881476,0.5225810092527707 l -12.990642304545183 8.420377393318503" fill="#ffb110" stroke="none" /><line stroke="#e1ed5e" stroke-width="0.3" x1="172.87174338648825" x2="177.1583165268699" y1="56.24261187166439" y2="53.66864786411523" /><path d="M 173.72905801456457 55.72781907015455 a86.0,86.0 0 0,1 12.242430191666344,42.057860355516425" fill="none" id="id63" stroke="none" /><text fill="#e1ed5e" style="font-size:6.75px; font-family:Arial;" text-anchor="middle"><textPath startOffset="22.145653131862474" xlink:href="#id63">March</textPath></text><path d="M 118.53625476483649 90.13048839642627 l 13.826584919143611 -7.3618776839512785 a36.66434465784475,36.66434465784475 0 0,0 0.2910309719421103,0.5580902625710283 l -13.950923960060665 7.123441178275751" fill="#ffb310" stroke="none" /><path d="M 118.70294669586156 90.45014215332178 l 13.890825782091431 -7.092754620388188 a36.596865358572984,36.596865358572984 0 0,0 0.2808898064130081,0.5619677734478177 l -14.010535501716175 6.85325499077662" fill="#ffb310" stroke="none" /><path d="M 118.8641267826498 90.77261029715802 l 13.979595896561905 -6.838120879492281 a36.56242264538908,36.56242264538908 0 0,0 0.270946254421846,0.5661734637377273 l -14.094921408943664 6.59713491368945" fill="#ffb210" stroke="none" /><path d="M 119.0197475246899 91.09779779509293 l 14.062560278014834 -6.581988270405466 a36.52669221581196,36.52669221581196 0 0,0 0.26093196570618377,0.5701834357902996 l -14.17347670857607 6.339615852400482" fill="#ffb210" stroke="none" /><path d="M 119.16976305983485 91.42560881287824 l 14.233926443653054 -6.3666542500108285 a36.59291340136623,36.59291340136623 0 0,0 0.25156080254497265,0.575620346375186 l -14.341121128214997 6.1213718338597936" fill="#ffb310" stroke="none" /><path d="M 119.4528033332814 92.08871423366111 l 14.430378584540074 -5.868709344500211 a36.578112063513245,36.578112063513245 0 0,0 0.23155917547433522,0.5836803878443573 l -14.528996434980535 5.620127939442289" fill="#ffb210" stroke="none" /><path d="M 119.58574465831526 92.42381321644754 l 14.523184725970264 -5.617879845547387 a36.571880700277134,36.571880700277134 0 0,0 0.2214676695368619,0.5874693053885036 l -14.617483079321566 5.367742259964726" fill="#ffb210" stroke="none" /><path d="M 119.71291397450082 92.76114493625339 l 14.632238684311632 -5.373160722503504 a36.58759972107701,36.58759972107701 0 0,0 0.21144118479286553,0.591438625487284 l -14.72232003914844 5.121187140635303" fill="#ffb210" stroke="none" /><path d="M 119.83427380445688 93.10060997987247 l 14.693815422338194 -5.111271755242973 a36.55741979319477,36.55741979319477 0 0,0 0.20109118741966542,0.5944903640438645 l -14.779392031330223 4.858279716724947" fill="#ffb210" stroke="none" /><path d="M 119.94978838288452 93.4421083053983 l 14.827326395570884 -4.874036694348305 a36.6078775539356,36.6078775539356 0 0,0 0.19111976478176654,0.5986799410883565 l -14.908810876129907 4.618787719568561" fill="#ffb310" stroke="none" /><path d="M 120.05942366710727 93.78553927170692 l 17.341067341706548 -5.372306989977525 a39.1541813074609,39.1541813074609 0 0,0 0.19339122725976338,0.6437364984598691 l -17.43073488896994 5.073832887926932" fill="#ffd413" stroke="none" /><path d="M 120.35273937422433 94.82641323984039 l 15.050439090641143 -3.8257627625567343 a36.52907523120629,36.52907523120629 0 0,0 0.14926906188868064,0.6090687106980758 l -15.113895679046115 3.566838227250564" fill="#ffb210" stroke="none" /><path d="M 120.43855184770803 95.1765574152323 l 15.121775550350153 -3.5686978554225393 a36.53717156301188,36.53717156301188 0 0,0 0.1388223542920214,0.6116769074540163 l -15.18080876619984 3.308586614029497" fill="#ffb210" stroke="none" /><path d="M 120.51834098615036 95.52812308129327 l 15.317241880267414 -3.338321576235159 a36.67680738431697,36.67680738431697 0 0,0 0.12879198743682385,0.6163162831094979 l -15.372291578528603 3.0748888418402562" fill="#ffb410" stroke="none" /><path d="M 120.592083275326 95.88100663000786 l 15.070679725139458 -3.0145580240298244 a36.36922078239402,36.36922078239402 0 0,0 0.11720190557873511,0.6132498947991806 l -15.12020792300035 2.7554055641973294" fill="#ffb010" stroke="none" /><path d="M 120.65975698304385 96.23510406497455 l 8.291624055382018 -1.5110101114203778 a29.428177800248662,29.428177800248662 0 0,0 0.08630189050949011,0.4977663706238034 l -8.316340763383742 1.3684507078759818" fill="#ff4f07" stroke="none" /><path d="M 120.82617615685814 97.30363454192243 l 15.363060981676822 -1.9890558232741864 a36.491287415667614,36.491287415667614 0 0,0 0.07509891960972115,0.6219267858701204 l -15.394941987546208 1.725035360480653" fill="#ffb110" stroke="none" /><path d="M 120.86939407059847 97.66154086499901 l 15.288608577494394 -1.7131204800940785 a36.38428854432836,36.38428854432836 0 0,0 0.06422278702833226,0.6212972062832903 l -15.315763757004392 1.4504187515278568" fill="#ffb010" stroke="none" /><path d="M 120.9064616781168 98.02013634271609 l 15.48374742699179 -1.4663269797276264 a36.55302379585243,36.55302379585243 0 0,0 0.05379626404633686,0.6251941334403228 l -15.506637313735867 1.2003117989116416" fill="#ffb210" stroke="none" /><path d="M 120.93736805541906 98.37931529534042 l 15.091355138366177 -1.168166332109991 a36.13649934733149,36.13649934733149 0 0,0 0.042565421486388366,0.6188918865862086 l -15.109184521017632 0.9089310213694483" fill="#ffac10" stroke="none" /><path d="M 120.96210409425399 98.7389718711861 l 18.04943888516992 -1.0858094226211739 a39.08206918944115,39.08206918944115 0 0,0 0.034538146900203855,0.6700308229238584 l -18.065418621526696 0.7758068063205846" fill="#ffd313" stroke="none" /><line stroke="#e1ed5e" stroke-width="0.3" x1="184.99686870605535" x2="189.99668451229388" y1="99.2704041080226" y2="99.22748670261217" /><path d="M 185.99683186730306 99.26182062694052 a86.0,86.0 0 0,1 -10.086455211305974,41.156179273409016" fill="none" id="id64" stroke="none" /><text fill="#e1ed5e" style="font-size:6.75px; font-family:Arial;" text-anchor="middle"><textPath startOffset="21.40746469413373" xlink:href="#id64">April</textPath></text><path d="M 120.99922638620191 100.18025310272382 l 15.587055094937268 0.13379612141501496 a36.587629323752715,36.587629323752715 0 0,0 -0.010782145081552903,0.6280058965298627 l -15.582461518257047 -0.40134893391394877" fill="#ffb210" stroke="none" /><path d="M 120.99303781780057 100.54070618675476 l 15.64228348769301 0.4028897356434847 a36.647471132692345,36.647471132692345 0 0,0 -0.021596377430529796,0.6287549651750783 l -15.633062423265635 -0.6713509653826738" fill="#ffb310" stroke="none" /><path d="M 120.98066250479742 100.90099992219065 l 7.677201424114107 0.3296920621161052 a28.68427736109532,28.68427736109532 0 0,0 -0.025349266448035486,0.491768996980933 l -7.6704105682094985 -0.4614328524737688" fill="#ff4406" stroke="none" /><path d="M 120.93736805541906 101.62068470465957 l 31.908770628530103 2.46994065181772 a53.0042223752999,53.0042223752999 0 0,0 -0.07800802358780325,0.9065714798775223 l -31.86166898224456 -3.0173331790708997" fill="#83ff25" stroke="none" /><path d="M 120.86939407059847 102.33845913500097 l 15.486772044117451 1.7353251098586273 a36.583692167883825,36.583692167883825 0 0,0 -0.07528908821022007,0.6235016546844379 l -15.454700869647567 -2.000920441466474" fill="#ffb210" stroke="none" /><path d="M 120.82617615685814 102.69636545807757 l 14.657890355677408 1.8977573677307955 a35.78023114521005,35.78023114521005 0 0,0 -0.08409288599705557,0.6084542322503795 l -14.62315295312514 -2.14909990818126" fill="#ffa80f" stroke="none" /><path d="M 120.7213421655516 103.40968896794604 l 7.653247610106464 1.2593389818407412 a28.756167459047283,28.756167459047283 0 0,0 -0.08433113434234758,0.48639957275980317 l -7.630501658271883 -1.3905315875211324" fill="#ff4506" stroke="none" /><path d="M 120.592083275326 104.11899336999214 l 13.275580487813256 2.655487901878352 a34.538561714060705,34.538561714060705 0 0,0 -0.12128345741089515,0.5803852488169355 l -13.228039319577997 -2.8829896019806966" fill="#ff970d" stroke="none" /><path d="M 120.51834098615036 104.47187691870673 l 61.555022958451104 13.415630756120176 a84.0,84.0 0 0,0 -0.3191565537693437,1.4062626642439322 l -61.315655543124095 -14.470327754303124" fill="#4dd2ff" stroke="none" /><path d="M 120.26092885502905 105.52220625578681 l 2.9582607325888417 0.8062871174682446 a24.066171142935815,24.066171142935815 0 0,0 -0.11205840496892853,0.3976557470758479 l -2.9439838355453336 -0.8569507884471009" fill="#ff0000" stroke="none" /><path d="M 120.16314734710363 105.8691983318838 l 10.002197693973887 2.911493975124684 a31.417329594311774,31.417329594311774 0 0,0 -0.15517719243718522,0.5165344049767698 l -9.950744181533073 -3.0827659836921777" fill="#ff6b09" stroke="none" /><path d="M 119.94978838288452 106.5578916946017 l 22.985617390338046 7.555828988577727 a45.195643378915186,45.195643378915186 0 0,0 -0.24860741388957722,0.7349636445220253 l -22.852524554876105 -7.949294307573913" fill="#deff1b" stroke="none" /><path d="M 119.58574465831526 107.57618678355244 l 12.278553617232552 4.749608312519437 a34.16516836404337,34.16516836404337 0 0,0 -0.216283940586732,0.545176817405631 l -12.195211001679695 -4.959686147138632" fill="#ff920d" stroke="none" /><path d="M 119.31412917781788 108.2440532568976 l 14.258149326874237 6.085956105675703 a36.50269924715227,36.50269924715227 0 0,0 -0.25094061839112397,0.5742012436618625 l -14.151574826466147 -6.32981941911341" fill="#ffb110" stroke="none" /><path d="M 119.0197475246899 108.90220220490707 l 16.83355249322312 7.878952542722203 a39.58618795537608,39.58618795537608 0 0,0 -0.29335390210257245,0.6129968292375849 l -16.695819333160635 -8.16676187402489" fill="#ffda14" stroke="none" /><line stroke="#e1ed5e" stroke-width="0.3" x1="174.33088141563837" x2="178.70328620479359" y1="141.23008692659167" y2="143.65538615756765" /><path d="M 175.20536237346943 141.71514677278685 a86.0,86.0 0 0,1 -30.301960400862466,31.631185727798858" fill="none" id="id65" stroke="none" /><text fill="#e1ed5e" style="font-size:6.75px; font-family:Arial;" text-anchor="middle"><textPath startOffset="22.145653131862474" xlink:href="#id65">May</textPath></text><path d="M 117.81537515405839 111.11811171558189 l 27.288530074622894 17.03006101752278 a53.166548647533624,53.166548647533624 0 0,0 -0.4898469790766298,0.7701208125290894 l -26.992165403920374 -17.49599550473054" fill="#81ff25" stroke="none" /><path d="M 117.423217284605 111.72311816256416 l 12.930978499526285 8.700539425716054 a36.5855571364533,36.5855571364533 0 0,0 -0.3550720013685087,0.5180606614519752 l -12.779716761342456 -8.921234822238072" fill="#ffb210" stroke="none" /><path d="M 117.01052211995028 112.31430620078461 l 12.62875320608509 9.142243419529244 a36.59057478998546,36.59057478998546 0 0,0 -0.3726976214211802,0.5056359021085264 l -12.46995356508008 -9.357685630906648" fill="#ffb210" stroke="none" /><path d="M 116.79662413953412 112.60449989151573 l 11.830640579666838 8.877933248026373 a35.79127294324839,35.79127294324839 0 0,0 -0.37299282436201403,0.488259580320395 l -11.67649577795052 -9.079713741587646" fill="#ffa80f" stroke="none" /><path d="M 115.89218393027572 113.72728997021213 l 11.77335409198233 10.169542855260735 a36.557360587843355,36.557360587843355 0 0,0 -0.41429749289443707,0.47139449537206224 l -11.597045535129308 -10.370149628444091" fill="#ffb210" stroke="none" /><path d="M 115.6541949942343 113.99807769240083 l 11.711440630553453 10.472442428167524 a36.71082085870314,36.71082085870314 0 0,0 -0.4241014068715836,0.46616173778332254 l -11.529941522839989 -10.671941741508517" fill="#ffb410" stroke="none" /><path d="M 115.41159269507618 114.26474011684316 l 11.469187642814775 10.615708857159943 a36.62803697609137,36.62803697609137 0 0,0 -0.4310669362063592,0.45777814808780554 l -11.285264872872155 -10.811028465192246" fill="#ffb310" stroke="none" /><path d="M 115.16444852881244 114.52719865689866 l 11.175891583745639 10.706251328332936 a36.47657488584174,36.47657488584174 0 0,0 -0.43704703286137014,0.4484487574579144 l -10.99045774973346 -10.89652277785859" fill="#ffb110" stroke="none" /><path d="M 114.65682725009322 115.03919595460226 l 17.047496017417462 17.49223271630034 a45.42530093704215,45.42530093704215 0 0,0 -0.5631169367504901,0.5394532871865179 l -16.744706594801663 -17.782298133792438" fill="#dbff1b" stroke="none" /><path d="M 114.13192950727249 115.5334660781643 l 10.520129331029613 11.563464990209196 a36.6328770135693,36.6328770135693 0 0,0 -0.46878739150590676,0.4191925761710869 l -10.320076912700328 -11.74235309626367" fill="#ffb310" stroke="none" /><path d="M 113.86319453409587 115.77377054828091 l 10.298130944450673 11.717382612961389 a36.59963320875149,36.59963320875149 0 0,0 -0.47548242726191664,0.4107103959657839 l -10.0954690374259 -11.89243714139189" fill="#ffb310" stroke="none" /><path d="M 113.31354834802062 116.24036423190432 l 9.879050043725659 12.050834742277269 a36.582626471558406,36.582626471558406 0 0,0 -0.4890735333462652,0.3939630187648349 l -9.67072574002414 -12.218646054835506" fill="#ffb210" stroke="none" /><path d="M 113.03279911837588 116.46651593811092 l 9.762317856509254 12.334369701936067 a36.73021061129055,36.73021061129055 0 0,0 -0.4977644129250865,0.3870646181916849 l -9.549143498948936 -12.500135371748545" fill="#ffb410" stroke="none" /><path d="M 112.45986205192187 116.90419585922612 l 16.517961956292528 22.409787760157897 a48.83956994360455,48.83956994360455 0 0,0 -0.6791467556524442,0.4916498767880311 l -16.130834190266114 -22.690038408319005" fill="#b2ff20" stroke="none" /><path d="M 112.16784306229584 117.11559508785304 l 9.054562555703436 12.736376168531473 a36.62691207441455,36.62691207441455 0 0,0 -0.5155759525878133,0.35991205655263875 l -8.834591511941865 -12.889933040889234" fill="#ffb310" stroke="none" /><path d="M 111.8722381534696 117.32195027204791 l 8.836942879905797 12.893363757020095 a36.63107125035124,36.63107125035124 0 0,0 -0.5217375896172953,0.3510483347033336 l -8.614309002191497 -13.04316176578055" fill="#ffb310" stroke="none" /><path d="M 111.27062007382361 117.71928675628689 l 8.352698137975288 13.131828819181974 a36.56317751361958,36.56317751361958 0 0,0 -0.5324919642425786,0.3323143686227639 l -8.126042044942995 -13.273278984646286" fill="#ffb210" stroke="none" /><path d="M 110.96478420261333 117.91015095944535 l 8.194220761161022 13.384643793758991 a36.69375491615864,36.69375491615864 0 0,0 -0.5400398896901981,0.32427843715262744 l -7.963248114913387 -13.523336231447542" fill="#ffb410" stroke="none" /><line stroke="#e1ed5e" stroke-width="0.3" x1="143.1302829299769" x2="145.66735839644613" y1="173.24464959558577" y2="177.55315839532614" /><path d="M 143.63769802327073 174.10635135553383 a86.0,86.0 0 0,1 -40.68552437913181,11.842963189579606" fill="none" id="id66" stroke="none" /><text fill="#e1ed5e" style="font-size:6.75px; font-family:Arial;" text-anchor="middle"><textPath startOffset="21.407464694133747" xlink:href="#id66">June</textPath></text><path d="M 110.34350942703117 118.27599006163325 l 13.640180883280399 24.100892643867795 a48.693095904211376,48.693095904211376 0 0,0 -0.7309895943083481,0.4054676056811321 l -13.224447100815958 -24.33149316498207" fill="#b4ff20" stroke="none" /><path d="M 110.02825361518725 118.45085714620011 l 3.7248619723002223 6.853326489084937 a28.800171836484218,28.800171836484218 0 0,0 -0.436406513601828,0.23236188779834174 l -3.606666642911841 -6.9162588446058475" fill="#ff4606" stroke="none" /><path d="M 109.3889696526874 118.78422872680471 l 6.840367324128467 13.685316828669523 a36.299624891809266,36.299624891809266 0 0,0 -0.5597743560401854,0.2738136881899517 l -6.604432718826212 -13.800724266956697" fill="#ffaf10" stroke="none" /><path d="M 108.73861861582097 119.09545874513695 l 6.460454953847586 14.117260000643983 a36.52528608871593,36.52528608871593 0 0,0 -0.5723801004123921,0.25601833853350525 l -6.217161450579567 -14.226082090087338" fill="#ffb210" stroke="none" /><path d="M 108.4095320186766 119.2426549942271 l 5.972964531486883 13.667311750154298 a35.915485770510664,35.915485770510664 0 0,0 -0.5670626352246103,0.2420453193487722 l -5.737466821091842 -13.767831719162475" fill="#ffa90f" stroke="none" /><path d="M 108.07796709384702 119.3841803445677 l 8.832177552667117 21.19401088505896 a43.9606937551511,43.9606937551511 0 0,0 -0.6990703601193312,0.28430582959831846 l -8.467052731357345 -21.34250397123657" fill="#edff1a" stroke="none" /><path d="M 107.407793817531 119.65005319985036 l 5.475397070230817 14.524141245092125 a36.52194098636116,36.52194098636116 0 0,0 -0.5885438586872566,0.2161214570918411 l -5.225264059889433 -14.615993551192688" fill="#ffb210" stroke="none" /><path d="M 107.06938296918513 119.77432235084164 l 5.666859250601382 15.851213893304951 a37.83372435492011,37.83372435492011 0 0,0 -0.6134364173757132,0.21338502925545863 l -5.393917061180646 -15.946157355129001" fill="#ffc312" stroke="none" /><path d="M 106.0420521117495 120.11202640906438 l 9.544056445597132 31.769059871261298 a54.17170750113007,54.17170750113007 0 0,0 -0.8929044839861134,0.2599114819589726 l -8.997291949229412 -31.92821504752279" fill="#76ff27" stroke="none" /><path d="M 104.64783097203109 120.47920084513623 l 3.476048774004961 15.31611227230772 a36.70561078777889,36.70561078777889 0 0,0 -0.6156712209717053,0.1341826770709061 l -3.2126151364141196 -15.373526407512346" fill="#ffb410" stroke="none" /><path d="M 104.29559338865022 120.5559693870025 l 3.2290976316526545 15.452401113959176 a36.78618927105055,36.78618927105055 0 0,0 -0.6192403424399863,0.12386541132524555 l -2.9633608036817094 -15.505555921947282" fill="#ffb510" stroke="none" /><path d="M 103.58742460773223 120.69131181640829 l 9.082036777616754 52.38277467593894 a74.1642593739457,74.1642593739457 0 0,0 -1.256280739462836,0.20672051760771457 l -8.181478535100846 -52.53096119204233" fill="#40ffc9" stroke="none" /><path d="M 103.2317021107853 120.74984581791261 l 2.279720258857094 14.637439422831484 a35.8139041888256,35.8139041888256 0 0,0 -0.6082819283012306,0.08939649612166178 l -2.0281132249481777 -14.674416992252027" fill="#ffa80f" stroke="none" /><path d="M 102.875027216393 120.80226474461374 l 2.127773250102998 15.3955072886863 a36.541848785773425,36.541848785773425 0 0,0 -0.6221200652394114,0.080545897722857 l -1.8631753629728107 -15.429764782609553" fill="#ffb210" stroke="none" /><path d="M 101.80034050326958 120.92268563240118 l 1.3360484808689401 15.526908550966624 a36.58428422139794,36.58428422139794 0 0,0 -0.6261679072916924,0.048469356186995986 l -1.069311578802012 -15.547555674148674" fill="#ffb210" stroke="none" /><path d="M 101.44090949804482 120.95050786540614 l 1.0689469820211401 15.542254516972791 a36.57897054110872,36.57897054110872 0 0,0 -0.6268166258284833,0.037707731686850904 l -0.8019860040601916 -15.558314226484333" fill="#ffb210" stroke="none" /><path d="M 100.72087961077811 120.9876233191556 l 0.5829296065742203 16.9713594634168 a37.981367700003666,37.981367700003666 0 0,0 -0.6518085348792769,0.016788275734442925 l -0.2915077576241996 -16.97886545650129" fill="#ffc512" stroke="none" /><line stroke="#e1ed5e" stroke-width="0.3" x1="101.45913802915013" x2="101.54496967792366" y1="184.9874750549273" y2="189.98673829345242" /><path d="M 101.47630435890484 185.9873277026323 a86.0,86.0 0 0,1 -42.54439059252881,-10.42667462771756" fill="none" id="id67" stroke="none" /><text fill="#e1ed5e" style="font-size:6.75px; font-family:Arial;" text-anchor="middle"><textPath startOffset="22.145653131862474" xlink:href="#id67">July</textPath></text><path d="M 100.36049292484886 120.99690560180557 l 0.17813976192628245 10.375748058474418 a31.37727717408159,31.37727717408159 0 0,0 -0.5386326867751334,0.004623513801607706 l -1.2708499275103912e-15 -10.377277174081591" fill="#ff6b09" stroke="none" /><path d="M 100.0 121.0 l 2.2579707685324053e-15 18.437730536710603 a39.4377305367106,39.4377305367106 0 0,0 -0.6770010871704618,-0.005811240103114659 l 0.3165081623216074 -18.435013694801924" fill="#ffd814" stroke="none" /><path d="M 99.63950707515114 120.99690560180557 l -0.2685311371353213 15.640592502446275 a36.64289751929577,36.64289751929577 0 0,0 -0.628838685705922,-0.016196653899397576 l 0.5369831369119872 -15.633678131196831" fill="#ffb310" stroke="none" /><path d="M 98.91894614982273 120.97215588758144 l -0.8035068651256286 15.587818524852722 a36.608514011463285,36.608514011463285 0 0,0 -0.6273228822411208,-0.03773818681548763 l 1.0709740994991959 -15.571728360212543" fill="#ffb310" stroke="none" /><path d="M 98.19965949673042 120.92268563240118 l -2.5396895992088355 29.515042844186144 a50.62410804318795,50.62410804318795 0 0,0 -0.8651911657116341,-0.08193450292875565 l 3.0459803283054847 -29.467096585752202" fill="#9eff22" stroke="none" /><path d="M 97.48249496171623 120.84855314841334 l -1.8607355601823332 15.409559715538999 a36.52149694622556,36.52149694622556 0 0,0 -0.6217735779058703,-0.08050103800061217 l 2.1249869599789974 -15.37534708133799" fill="#ffb210" stroke="none" /><path d="M 97.12497278360702 120.80226474461374 l -2.127906992028938 15.39647497863902 a36.54282567407172,36.54282567407172 0 0,0 -0.6206623089569673,-0.09121598573623255 l 2.39189440659359 -15.357677919603907" fill="#ffb210" stroke="none" /><path d="M 96.76829788921471 120.74984581791261 l -2.4071077420806684 15.455358446741458 a36.64168380959183,36.64168380959183 0 0,0 -0.620679583670864,-0.10213258929675678 l 2.672064828804596 -15.411759858949033" fill="#ffb310" stroke="none" /><path d="M 96.41257539226777 120.69131181640829 l -2.6464459782021033 15.263997136618475 a36.49171665446535,36.49171665446535 0 0,0 -0.6163021147826323,-0.11231077541701337 l 2.908082826535793 -15.216318187270096" fill="#ffb110" stroke="none" /><path d="M 95.70440661134978 120.55596938700252 l -3.40651758407333 16.301419813037892 a37.65354766923568,37.65354766923568 0 0,0 -0.6315711731775107,-0.1376479976504636 l 3.685851173869977 -16.240540357253707" fill="#ffc111" stroke="none" /><path d="M 95.35216902796893 120.47920084513623 l -3.4259961403852945 15.095571133248797 a36.479461146723075,36.479461146723075 0 0,0 -0.609498569775246,-0.14384000288839444 l 3.6846268639004283 -15.034534986714174" fill="#ffb110" stroke="none" /><path d="M 95.00130118170881 120.39639698878247 l -3.700798402179477 15.100520381443664 a36.547399287468295,36.547399287468295 0 0,0 -0.6080698979723804,-0.15456899022574144 l 3.9594735933772363 -15.03476615938266" fill="#ffb210" stroke="none" /><path d="M 94.6519064749342 120.30758222061772 l -3.9653200464532663 15.05696609399188 a36.57035616247828,36.57035616247828 0 0,0 -0.6057071451310683,-0.16508817586550403 l 4.22320859251903 -14.986677423982233" fill="#ffb210" stroke="none" /><path d="M 94.30408787586889 120.21278271476187 l -4.2170983336509655 14.964994270847216 a36.54782852626603,36.54782852626603 0 0,0 -0.6024126149314706,-0.17535353255103278 l 4.473370960964043 -14.890397043993667" fill="#ffb210" stroke="none" /><path d="M 93.61358852112213 120.00534299687104 l -6.822679593603281 21.371946652546153 a43.43455059849092,43.43455059849092 0 0,0 -0.7083498085938921,-0.23284865169978006 l 7.188552139844917 -21.251677079444352" fill="#f3ff19" stroke="none" /><path d="M 92.93061703081489 119.77432235084164 l -5.635956655733099 15.764773835514013 a37.74192645755588,37.74192645755588 0 0,0 -0.6082036833671115,-0.2233408170312292 l 5.90574949075433 -15.665702169474065" fill="#ffc212" stroke="none" /><path d="M 92.59220618246901 119.65005319985036 l -5.4868315043876885 14.554472440185739 a36.5543559162592,36.5543559162592 0 0,0 -0.5852661136061972,-0.22639350569097855 l 5.735869880487414 -14.45813904635672" fill="#ffb210" stroke="none" /><path d="M 92.25597844496254 119.51999308798841 l -5.720608795976085 14.419671144109914 a36.51297137562224,36.51297137562224 0 0,0 -0.5806354237890562,-0.23613937204595548 l 5.967298680955582 -14.319344515484667" fill="#ffb110" stroke="none" /><path d="M 91.59046798132341 119.24265499422711 l -6.1987869645680735 14.184037670227816 a36.47940194137166,36.47940194137166 0 0,0 -0.5716610595594066,-0.2556967207057935 l 6.441361426983115 -14.075537198612167" fill="#ffb110" stroke="none" /><path d="M 90.93487009805054 118.94263497670748 l -11.433531000653662 23.89168236780318 a47.48656484912503,47.48656484912503 0 0,0 -0.7322874916257727,-0.358198507548334 l 11.841978741541505 -23.691890110157626" fill="#c2ff1e" stroke="none" /><path d="M 90.28995756902619 118.62028667847754 l -7.166965954112652 13.743602216893938 a36.50006460901444,36.50006460901444 0 0,0 -0.5530823230048327,-0.29448518451434175 l 7.401837092904047 -13.618546564657024" fill="#ffb110" stroke="none" /><path d="M 89.97174638481275 118.45085714620012 l -7.41765565734634 13.647650941548799 a36.53319000312943,36.53319000312943 0 0,0 -0.5484428796992344,-0.30421202027495675 l 7.650842725201676 -13.518306005840692" fill="#ffb210" stroke="none" /><line stroke="#e1ed5e" stroke-width="0.3" x1="58.13341422392154" x2="55.67067388415222" y1="173.97424548756322" y2="178.32567169271397" /><path d="M 57.64086615596768 174.84453072859336 a86.0,86.0 0 0,1 -31.369924170532247,-30.572349798747897" fill="none" id="id68" stroke="none" /><text fill="#e1ed5e" style="font-size:6.75px; font-family:Arial;" text-anchor="middle"><textPath startOffset="22.145653131862474" xlink:href="#id68">August</textPath></text><path d="M 89.65649057296885 118.27599006163327 l -7.29904590335336 12.896714730155123 a35.81895144503347,35.81895144503347 0 0,0 -0.5325212587848605,-0.30745129210863986 l 7.519359629998619 -12.769516540770312" fill="#ffa80f" stroke="none" /><path d="M 88.72937992617639 117.7192867562869 l -8.002955500355576 12.581975302135744 a35.911519011966064,35.911519011966064 0 0,0 -0.5173214508854901,-0.33532151436352253 l 8.217762583498075 -12.442739946068325" fill="#ffa90f" stroke="none" /><line stroke="#e1ed5e" stroke-width="0.3" x1="26.387840678322732" x2="22.057713659400548" y1="142.50000000000003" y2="145.00000000000006" /><path d="M 25.521815274538298 143.00000000000003 a86.0,86.0 0 0,1 -11.493303480769221,-40.785679425670985" fill="none" id="id69" stroke="none" /><text fill="#e1ed5e" style="font-size:6.75px; font-family:Arial;" text-anchor="middle"><textPath startOffset="21.40746469413373" xlink:href="#id69">September</textPath></text><line stroke="#e1ed5e" stroke-width="0.3" x1="15.003131293944662" x2="10.003315487706104" y1="100.72959589197737" y2="100.7725132973878" /><path d="M 14.003168132696942 100.73817937305945 a86.0,86.0 0 0,1 10.791469493833604,-42.45332614584628" fill="none" id="id70" stroke="none" /><text fill="#e1ed5e" style="font-size:6.75px; font-family:Arial;" text-anchor="middle"><textPath startOffset="22.145653131862435" xlink:href="#id70">October</textPath></text><line stroke="#e1ed5e" stroke-width="0.3" x1="26.387840678322718" x2="22.05771365940052" y1="57.49999999999999" y2="54.99999999999999" /><path d="M 25.521815274538284 56.99999999999999 a86.0,86.0 0 0,1 29.574782752854787,-30.34633250058573" fill="none" id="id71" stroke="none" /><text fill="#e1ed5e" style="font-size:6.75px; font-family:Arial;" text-anchor="middle"><textPath startOffset="21.40746469413373" xlink:href="#id71">November</textPath></text><line stroke="#e1ed5e" stroke-width="0.3" x1="56.869717070023135" x2="54.33264160355391" y1="26.7553504044142" y2="22.446841604673864" /><path d="M 56.362301976729285 25.89364864446614 a86.0,86.0 0 0,1 42.16139366436587,-11.88097634709845" fill="none" id="id72" stroke="none" /><text fill="#e1ed5e" style="font-size:6.75px; font-family:Arial;" text-anchor="middle"><textPath startOffset="22.145653131862474" xlink:href="#id72">December</textPath></text></svg>