<?xml version="1.0" encoding="utf-8" ?>
<svg baseProfile="full" height="200mm" version="1.1" viewBox="0,0,200,200" width="200mm" xmlns="http://www.w3.org/2000/svg" xmlns:ev="http://www.w3.org/2001/xml-events" xmlns:xlink="http://www.w3.org/1999/xlink"><defs /><rect fill="#1a1a1a" height="200" width="200" x="0" y="0" /><text alignment-baseline="middle" fill="#e1ed5e" style="dominant-baseline: central; font-size:9.0px; font-family:Arial;" text-anchor="middle" x="100.0" y="100.0">2019</text><line stroke="#e1ed5e" stroke-width="0.3" x1="100.0" x2="100.0" y1="15.0" y2="10.0" /><path d="M 100.0 14.0 a86.0,86.0 0 0,1 42.46469731375804,11.215312516191453" fill="none" id="id1" stroke="none" /><text fill="#e1ed5e" style="font-size:6.75px; font-family:Arial;" text-anchor="middle"><textPath startOffset="22.20632615414155" xlink:href="#id1">January</textPath></text><line stroke="#e1ed5e" stroke-width="0.3" x1="143.23703022742887" x2="145.7803849466894" y1="26.81831364943548" y2="22.513508569990506" /><path d="M 143.74570117128098 25.957352633546492 a86.0,86.0 0 0,1 28.547481713284135,27.462654790039103" fill="none" id="id2" stroke="none" /><text fill="#e1ed5e" style="font-size:6.75px; font-family:Arial;" text-anchor="middle"><textPath startOffset="19.985693538727396" xlink:href="#id2">February</textPath></text><line stroke="#e1ed5e" stroke-width="0.3" x1="172.23445277983987" x2="176.4835382374775" y1="55.19839476539836" y2="52.563006222186495" /><path d="M 173.08426987136738 54.67131705675599 a86.0,86.0 0 0,1 12.851231095245387,41.99856678651699" fill="none" id="id3" stroke="none" /><text fill="#e1ed5e" style="font-size:6.75px; font-family:Arial;" text-anchor="middle"><textPath startOffset="22.20632615414155" xlink:href="#id3">March</textPath></text><path d="M 120.78858239683441 97.02765380044208 l 11.355626017934984 -1.6236245066498485 a32.47111148920609,32.47111148920609 0 0,0 0.07434956930667103,0.5539906504455182 l -11.381891586299492 1.427915514139666" fill="#ff5607" stroke="none" /><path d="M 120.83666639777658 97.38593545837742 l 16.17089087799425 -2.0287195486857463 a37.297650591272884,37.297650591272884 0 0,0 0.07443482714646332,0.6377121424080137 l -16.203416058144303 1.7500636679528796" fill="#ff9c0e" stroke="none" /><path d="M 120.91429891909075 98.10471618934814 l 16.42995243097466 -1.488905890303699 a37.4972778855868,37.4972778855868 0 0,0 0.052720308806466415,0.6433213030842775 l -16.45314722360062 1.2058706700116528" fill="#ff9f0e" stroke="none" /><path d="M 120.94382443527127 98.46500227214037 l 16.521289590028342 -1.2108649048497455 a37.56560302359608,37.56560302359608 0 0,0 0.041714650527285825,0.6453071803157647 l -16.539684831560045 0.9262986602809457" fill="#ffa00e" stroke="none" /><path d="M 120.98425023603335 99.18683210126433 l 16.495901472063796 -0.6392383519500179 a37.50828249838972,37.50828249838972 0 0,0 0.019447697156497523,0.6453743897849831 l -16.504460863675938 0.35519381474003575" fill="#ff9f0e" stroke="none" /><line stroke="#e1ed5e" stroke-width="0.3" x1="184.98032266829074" x2="189.97916517819016" y1="98.17113171792111" y2="98.06355123074" /><path d="M 185.9800911702706 98.14961562048488 a86.0,86.0 0 0,1 -9.607161424134198,41.387399972396054" fill="none" id="id4" stroke="none" /><text fill="#e1ed5e" style="font-size:6.75px; font-family:Arial;" text-anchor="middle"><textPath startOffset="21.466115282336823" xlink:href="#id4">April</textPath></text><path d="M 120.99513854157772 99.54816195383933 l 17.157153162470816 -0.3692404576067911 a38.16112592914626,38.16112592914626 0 0,0 0.008480843004346957,0.6568506369035766 l -17.16096701259288 0.07385356264275178" fill="#ffa90f" stroke="none" /><path d="M 120.99980553446 99.90962569577887 l 16.650135626805575 -0.07165515985330277 a37.65028981288175,37.65028981288175 0 0,0 -0.0027891741863284394,0.6481058528686247 l -16.648902155329743 -0.21496017121900662" fill="#ffa10e" stroke="none" /><path d="M 120.8583938346157 102.4346265915055 l 16.59060052362775 1.936482622973425 a37.70323294107088,37.70323294107088 0 0,0 -0.08078993232679568,0.6439752505680367 l -16.554809082054103 -2.221775627828857" fill="#ffa20f" stroke="none" /><path d="M 120.76222939487914 103.15116336523771 l 16.976398260942894 2.576573221311319 a38.17081324454155,38.17081324454155 0 0,0 -0.10418495475142941,0.6487598126894564 l -16.929531551830177 -2.86841226369398" fill="#ffa90f" stroke="none" /><path d="M 120.41448212921028 104.9243191809786 l 16.448080549018588 3.967555876517673 a37.91983609200437,37.91983609200437 0 0,0 -0.1585205986982752,0.6332109929561799 l -16.377348636025253 -4.250094708871249" fill="#ffa50f" stroke="none" /><path d="M 120.32669344350535 105.2749913415812 l 12.58679980833 3.266407307794122 a34.0037281621613,34.0037281621613 0 0,0 -0.1519026262116017,0.5652861812973553 l -12.52870910577662 -3.4825844222670255" fill="#ff6d0a" stroke="none" /><path d="M 120.23288151984713 105.62410040840565 l 16.26116994910973 4.520090352045558 a37.87770318806693,37.87770318806693 0 0,0 -0.18002255600056888,0.626682134178577 l -16.180954756223063 -4.799329961728716" fill="#ffa50f" stroke="none" /><path d="M 119.79798401119884 107.00284435728193 l 19.983556502694604 7.068484135261479 a42.19683935087566,42.19683935087566 0 0,0 -0.24810885343300482,0.682689006135161 l -19.858923388256372 -7.411420938402771" fill="#ffe115" stroke="none" /><path d="M 119.67450827220406 107.3425965602758 l 15.115113186645768 5.64101407552034 a37.133433808254566,37.133433808254566 0 0,0 -0.22864597189253277,0.5969224826775297 l -15.01577293515973 -5.900360125031014" fill="#ff9a0e" stroke="none" /><path d="M 119.41010516605496 108.01547362559984 l 15.180270635075171 6.268748049737803 a37.4236968635328,37.4236968635328 0 0,0 -0.2510043325421457,0.593300096648446 l -15.070115321340717 -6.529122672052413" fill="#ff9e0e" stroke="none" /><path d="M 118.81262510543309 109.33194174019688 l 14.468786538698534 7.177194690999568 a37.15109617131098,37.15109617131098 0 0,0 -0.2891086454863756,0.5704387852889231 l -14.34309922342589 -7.425187687991186" fill="#ff9a0e" stroke="none" /><line stroke="#e1ed5e" stroke-width="0.3" x1="174.80103733775053" x2="179.2010983576182" y1="140.37084112569926" y2="142.7455964860345" /><path d="M 175.68104954172406 140.8457921977663 a86.0,86.0 0 0,1 -30.038265399797805,32.042727171017184" fill="none" id="id5" stroke="none" /><text fill="#e1ed5e" style="font-size:6.75px; font-family:Arial;" text-anchor="middle"><textPath startOffset="22.206326154141568" xlink:href="#id5">May</textPath></text><path d="M 117.14729908036423 112.12312394758627 l 13.148033866318132 9.295647290071694 a37.102169204528494,37.102169204528494 0 0,0 -0.3731775182236202,0.5183109337845045 l -12.98607655571891 -9.52059182930733" fill="#ff9a0e" stroke="none" /><path d="M 116.93607887273984 112.41649034213515 l 13.260655248006175 9.721896021768817 a37.44263482123708,37.44263482123708 0 0,0 -0.38554990120678784,0.5165070983308774 l -13.091344080104296 -9.948715999609009" fill="#ff9e0e" stroke="none" /><path d="M 116.498646956653 112.99209946851258 l 13.017564269132894 10.250870284495099 a37.56916778509259,37.56916778509259 0 0,0 -0.4044626616769167,0.5046293594192035 l -12.839183695401124 -10.473427477492551" fill="#ffa00e" stroke="none" /><path d="M 116.0416608686014 113.55231037782055 l 12.412594347689618 10.486403656813936 a37.24922029187668,37.24922029187668 0 0,0 -0.4180027511632801,0.48623163430383387 l -12.230249086955558 -10.698512390279298" fill="#ff9c0e" stroke="none" /><path d="M 115.56566222782051 114.09645910891815 l 12.038658948776298 10.902360665023776 a37.241637151322195,37.241637151322195 0 0,0 -0.43440346630173043,0.4714591669439523 l -11.849209074478846 -11.107971086769064" fill="#ff9c0e" stroke="none" /><path d="M 115.07121518719521 114.62390073753431 l 11.78914903028957 11.439246474659248 a37.42681937461971,37.42681937461971 0 0,0 -0.45261388831132343,0.4584954792471217 l -11.59049451692271 -11.640482447887033" fill="#ff9e0e" stroke="none" /><path d="M 114.29624159901734 115.38237550388516 l 11.44726953708622 12.31695738310335 a37.815094975404875,37.815094975404875 0 0,0 -0.48061266123280433,0.4390282708199557 l -11.233557326386551 -12.512178420509889" fill="#ffa40f" stroke="none" /><path d="M 113.75828350139079 115.86535959552629 l 10.920027696055689 12.592425950047948 a37.66781917918671,37.66781917918671 0 0,0 -0.49351035610702354,0.4205802319529325 l -10.701651863371618 -12.778530572223827" fill="#ffa20e" stroke="none" /><path d="M 113.20401910651253 116.32954008644616 l 10.2360419001445 12.659013531153551 a37.27965532078129,37.27965532078129 0 0,0 -0.5024631958393752,0.39918715139152705 l -10.016621211587772 -12.833334596550204" fill="#ff9c0e" stroke="none" /><path d="M 111.45004920935366 117.60387380957326 l 9.155098786924484 14.075503153954852 a37.79093871215481,37.79093871215481 0 0,0 -0.5483612734915576,0.3499901095579934 l -8.911455711385996 -14.231007692336656" fill="#ffa30f" stroke="none" /><path d="M 111.1453310114006 117.79835938074945 l 8.896655768515275 14.20737315857914 a37.763052703209254,37.763052703209254 0 0,0 -0.5538955098400432,0.34024786186738015 l -8.650781058742924 -14.358409487274898" fill="#ffa30f" stroke="none" /><line stroke="#e1ed5e" stroke-width="0.3" x1="143.8653032363475" x2="146.44561519142675" y1="172.8068346515853" y2="177.08958963109032" /><path d="M 144.38136562736335 173.6633856474863 a86.0,86.0 0 0,1 -40.68145358897372,12.25698825130547" fill="none" id="id6" stroke="none" /><text fill="#e1ed5e" style="font-size:6.75px; font-family:Arial;" text-anchor="middle"><textPath startOffset="21.466115282336833" xlink:href="#id6">June</textPath></text><path d="M 109.89434966115114 118.52300852407294 l 7.697604106625897 14.410526347355884 a37.33757566440572,37.33757566440572 0 0,0 -0.5695031029959274,0.2979371071085747 l -7.448410101103473 -14.540892873409174" fill="#ff9d0e" stroke="none" /><path d="M 108.92500713936063 119.00905698771935 l 7.117865241474073 15.160089386301635 a37.74790481810905,37.74790481810905 0 0,0 -0.5905426107368595,0.2710891483033112 l -6.855854634969794 -15.280365604939021" fill="#ffa30f" stroke="none" /><path d="M 107.59598834532513 119.57807347666477 l 6.102453343660969 15.72860232515263 a37.87094745159132,37.87094745159132 0 0,0 -0.6097759572098004,0.23056509056217991 l -5.830807165690894 -15.83131566582144" fill="#ffa50f" stroke="none" /><path d="M 106.91757812671514 119.82793768551818 l 5.954006948032166 17.066041984954595 a39.07484405933972,39.07484405933972 0 0,0 -0.6369762762985702,0.21609693697492077 l -5.659360938796369 -17.16600190882764" fill="#ffb610" stroke="none" /><path d="M 106.2309692047433 120.05430185196036 l 5.591487962022305 17.996138916340136 a39.84478053800713,39.84478053800713 0 0,0 -0.6567274134352625,0.19786658245092584 l -5.280885574146796 -18.089720867896787" fill="#ffc011" stroke="none" /><path d="M 105.53697534728816 120.25689768951611 l 4.7739343192160995 17.465329537396894 a39.10602619941929,39.10602619941929 0 0,0 -0.650853804779096,0.17189640536033757 l -4.472590071625507 -17.544917292060816" fill="#ffb610" stroke="none" /><path d="M 103.7750983002368 120.6578951692458 l 3.262030656136205 17.850313282994694 a39.14592318683812,39.14592318683812 0 0,0 -0.663898133603263,0.11542720042078668 l -2.954283551060892 -17.90381906193649" fill="#ffb710" stroke="none" /><path d="M 102.70371172650421 120.8252237178851 l 2.320711240158679 17.875178883587175 a39.02519683056026,39.02519683056026 0 0,0 -0.6669082358338222,0.080753299745767 l -2.0126755812734767 -17.912477712058294" fill="#ffb510" stroke="none" /><path d="M 101.62511606390274 120.93702456842531 l 1.3581211447012382 17.49722152473268 a38.54985054435659,38.54985054435659 0 0,0 -0.6620243653667433,0.045657076270854 l -1.0567340185555647 -17.51800694551982" fill="#ffae10" stroke="none" /><path d="M 100.90346689309514 120.98055641714683 l 0.7755466938723277 18.00995840498005 a39.02664900705308,39.02664900705308 0 0,0 -0.6714063823135675,0.02312459334994516 l -0.4654199598841079 -18.02063979675609" fill="#ffb510" stroke="none" /><line stroke="#e1ed5e" stroke-width="0.3" x1="102.19456741930631" x2="102.32365962044197" y1="184.97166512339345" y2="189.96999836594603" /><path d="M 102.22038585953345 185.97133177190398 a86.0,86.0 0 0,1 -42.740103519485714,-10.115201625700543" fill="none" id="id7" stroke="none" /><text fill="#e1ed5e" style="font-size:6.75px; font-family:Arial;" text-anchor="middle"><textPath startOffset="22.20632615414155" xlink:href="#id7">July</textPath></text><path d="M 100.54218724476979 120.99299961872073 l 0.3944210773340685 15.271627294745992 a36.27671981204984,36.27671981204984 0 0,0 -0.6243747075497186,0.010749176822287574 l -0.13148667989168197 -15.276153948847439" fill="#ff8e0d" stroke="none" /><path d="M 99.81925306533755 120.99922214144158 l -0.13522071222287402 15.709974719045755 a36.7105566519481,36.7105566519481 0 0,0 -0.6318416657377574,-0.010877727279116359 l 0.4056220678532993 -15.705319514487478" fill="#ff940d" stroke="none" /><path d="M 99.09653310690486 120.98055641714683 l -0.6849183847229245 15.905362909969082 a36.92010309299383,36.92010309299383 0 0,0 -0.6346951300940392,-0.03280648847974726 l 0.9586015832304527 -15.891216614727133" fill="#ff970d" stroke="none" /><path d="M 95.86986931433489 120.58985236759428 l -3.1280675066586254 15.594288185967667 a36.904924720136975,36.904924720136975 0 0,0 -0.6217751181566743,-0.1302990214159706 l 3.3960340862446867 -15.538133183825154" fill="#ff970d" stroke="none" /><path d="M 93.76903079525671 120.05430185196036 l -4.545731327859117 14.630383362736433 a36.32030648014963,36.32030648014963 0 0,0 -0.5954431552795579,-0.19064209484542413 l 4.796895828229615 -14.549968421231302" fill="#ff8e0d" stroke="none" /><path d="M 93.08242187328487 119.8279376855182 l -5.246749218871109 15.038820618671963 a36.927790272549345,36.927790272549345 0 0,0 -0.5983716523293523,-0.21455478548164156 l 5.504840431830188 -14.946278292150362" fill="#ff970d" stroke="none" /><path d="M 92.06813273071674 119.44442032107085 l -6.2081598624776895 15.218871633655764 a37.43640175585189,37.43640175585189 0 0,0 -0.5945765923474248,-0.24853306382281387 l 6.469207914322576 -15.109753526812977" fill="#ff9e0e" stroke="none" /><path d="M 91.40352486487194 119.15986991738527 l -6.567412807006982 14.637484910744117 a37.04328131929067,37.04328131929067 0 0,0 -0.5795192121513274,-0.2660288466762515 l 6.818400014925729 -14.52226899373379" fill="#ff990e" stroke="none" /><path d="M 91.07499286063937 119.00905698771935 l -7.2399067917836195 15.420021367136993 a38.03506117736816,38.03506117736816 0 0,0 -0.5902449814066706,-0.28335346020365565 l 7.504264441190532 -15.293113630433776" fill="#ffa70f" stroke="none" /><path d="M 90.42595943632237 118.69057910512821 l -7.300214577792663 14.251583450387207 a37.012518968768376,37.012518968768376 0 0,0 -0.5645450736241505,-0.2953433004722004 l 7.544450553943309 -14.12381073097029" fill="#ff980e" stroke="none" /><line stroke="#e1ed5e" stroke-width="0.3" x1="58.666819895761336" x2="56.23545636021788" y1="174.27360380694188" y2="178.64263932499728" /><path d="M 58.180547188652646 175.14741091055294 a86.0,86.0 0 0,1 -31.652253787137756,-30.449443065178592" fill="none" id="id8" stroke="none" /><text fill="#e1ed5e" style="font-size:6.75px; font-family:Arial;" text-anchor="middle"><textPath startOffset="22.20632615414155" xlink:href="#id8">August</textPath></text><path d="M 89.1626897886671 117.98757091392108 l -8.284713879996549 13.750817823978819 a37.05370595537557,37.05370595537557 0 0,0 -0.5434910549451314,-0.3338565958812889 l 8.52018413487399 -13.606172761269152" fill="#ff990e" stroke="none" /><path d="M 88.8546689885994 117.79835938074946 l -7.988454020767491 12.757034798946302 a36.05182163405623,36.05182163405623 0 0,0 -0.5231260057740644,-0.33388376773532186 l 8.20686182858848 -12.617636602387176" fill="#ff8a0c" stroke="none" /><path d="M 88.54995079064634 117.60387380957326 l -7.933666911460546 12.19761318077531 a35.550767607580966,35.550767607580966 0 0,0 -0.5101117028276163,-0.3380742210931702 l 8.142453313028124 -12.059240938590822" fill="#ff830c" stroke="none" /><path d="M 87.95078237400918 117.19931262002967 l -8.82850314994515 12.601995445354659 a36.38677214601331,36.38677214601331 0 0,0 -0.5098872700171918,-0.36379102881059167 l 9.044117747811228 -12.448160154699847" fill="#ff8f0d" stroke="none" /><path d="M 87.07902340077011 116.55440617244103 l -9.340959753058538 11.967674471430591 a36.18152697729681,36.18152697729681 0 0,0 -0.4876623863318399,-0.38742849317631 l 9.545579632107735 -11.80511206424915" fill="#ff8c0c" stroke="none" /><path d="M 86.51685102203217 116.09983520530335 l -9.787898132105273 11.687443874623872 a36.24464804995356,36.24464804995356 0 0,0 -0.4748644746598233,-0.4046898072698749 l 9.987628083342152 -11.517229677131045" fill="#ff8d0d" stroke="none" /><path d="M 85.97065885151581 115.62618273729859 l -10.343848979306289 11.521202075489017 a36.48332357638205,36.48332357638205 0 0,0 -0.46368645235632827,-0.4235665803278311 l 10.540634981129472 -11.34144272857461" fill="#ff910d" stroke="none" /><path d="M 85.44109423537348 115.13401014063109 l -11.591270927624224 12.049148102028909 a37.719435747124166,37.719435747124166 0 0,0 -0.4640389534108427,-0.454159783165671 l 11.796959833410861 -11.847838215940667" fill="#ffa20f" stroke="none" /><path d="M 84.9287848128048 114.62390073753433 l -11.096516370204911 10.767171187906126 a36.46171565331291,36.46171565331291 0 0,0 -0.43318853242785166,-0.4541964443856721 l 11.28021145401172 -10.574567626937954" fill="#ff900d" stroke="none" /><path d="M 82.44556493220864 111.52570212397912 l -13.67229802623063 8.976810349752164 a37.355881430650186,37.355881430650186 0 0,0 -0.3482904718278589,-0.5405545467938123 l 13.824793361435535 -8.740134203036904" fill="#ff9d0e" stroke="none" /><path d="M 82.24976979558568 111.22182372390057 l -13.318794011302595 8.420237759655118 a36.757242076094144,36.757242076094144 0 0,0 -0.33350258875146527,-0.5377123626033902 l 13.461761239722016 -8.189729065686462" fill="#ff950d" stroke="none" /><line stroke="#e1ed5e" stroke-width="0.3" x1="26.63291911575756" x2="22.317208475507996" y1="142.92168965132927" y2="145.44649492493687" /><path d="M 25.769776987707644 143.4266507060508 a86.0,86.0 0 0,1 -11.730757126820373,-40.83630448921669" fill="none" id="id9" stroke="none" /><text fill="#e1ed5e" style="font-size:6.75px; font-family:Arial;" text-anchor="middle"><textPath startOffset="21.46611528233685" xlink:href="#id9">September</textPath></text><path d="M 81.87401531095188 110.60418214915194 l -14.302523397411118 8.367355809932528 a37.57029929673885,37.57029929673885 0 0,0 -0.32175920630839183,-0.5610142973629005 l 14.444434599871887 -8.11992166671132" fill="#ffa00e" stroke="none" /><path d="M 81.51974371655577 109.97397251340807 l -27.3045505095449 14.736529196142026 a52.027468012666375,52.027468012666375 0 0,0 -0.41856715353095025,-0.7917713133302399 l 27.554170171300736 -14.26434286772566" fill="#a0ff22" stroke="none" /><path d="M 81.18737489456691 109.33194174019688 l -27.859914701937026 13.819820435918142 a52.09923285356453,52.09923285356453 0 0,0 -0.3916044875622192,-0.8068212337959741 l 28.093672446113963 -13.338210246156883" fill="#9fff22" stroke="none" /><path d="M 80.87730276802145 108.67885076344099 l -28.615857307890664 12.987328724098061 a52.42511729259482,52.42511729259482 0 0,0 -0.365874682058958,-0.8249508199477855 l 28.835173074680903 -12.49282956765758" fill="#9bff22" stroke="none" /><path d="M 79.50377843672027 104.57218783832718 l -9.535919520960705 2.127222089515046 a30.770303727538884,30.770303727538884 0 0,0 -0.11086974334691208,-0.5179465304786809 l 9.571123303032058 -1.9627617396202017" fill="#ff3c05" stroke="none" /><path d="M 79.35854240842038 103.8639653848113 l -30.41223623723076 5.693000485745763 a51.94049720802549,51.94049720802549 0 0,0 -0.15694330164384063,-0.8802213825681019 l 30.50572598121379 -5.168660352444448" fill="#a1ff22" stroke="none" /><path d="M 79.23777060512086 103.15116336523772 l -30.37787604790492 4.610567020297952 a51.7257657582449,51.7257657582449 0 0,0 -0.12602847104350992,-0.8814428329461469 l 30.452738569965028 -4.086978715371404" fill="#a3ff21" stroke="none" /><path d="M 79.1416061653843 102.43462659150553 l -30.679577387579965 3.5809715511266345 a51.88785887578623,51.88785887578623 0 0,0 -0.09591272674267803,-0.8880327299752823 l 30.736672415823694 -3.05234249926657" fill="#a1ff22" stroke="none" /><path d="M 79.07016306316243 101.71520430193888 l -30.948503580707214 2.5362360270839512 a52.052252206082024,52.052252206082024 0 0,0 -0.06549522059793474,-0.8936302488637297 l 30.987575359969483 -2.003132641723461" fill="#a0ff22" stroke="none" /><path d="M 79.0235259727143 100.99374915477108 l -31.124472455415667 1.4745051124908852 a52.159379823011406,52.159379823011406 0 0,0 -0.0347676223488699,-0.8971978463671795 l 31.145242210615738 -0.938530019109709" fill="#9eff22" stroke="none" /><line stroke="#e1ed5e" stroke-width="0.3" x1="15.007084014347285" x2="10.007500721073583" y1="101.09737516637583" y2="101.16192664675087" /><path d="M 14.007167355692545 101.11028546245083 a86.0,86.0 0 0,1 10.666146001902534,-42.60595125391555" fill="none" id="id10" stroke="none" /><text fill="#e1ed5e" style="font-size:6.75px; font-family:Arial;" text-anchor="middle"><textPath startOffset="22.20632615414155" xlink:href="#id10">October</textPath></text><path d="M 79.46518482838121 95.60439243477599 l -15.09409188730409 -3.230986202482088 a36.43602545161833,36.43602545161833 0 0,0 0.1365580818275705,-0.612163104484012 l 15.036239418474482 3.4903274765160597" fill="#ff900d" stroke="none" /><path d="M 79.71946130924805 94.55025226153421 l -29.600267029157983 -7.9541273907924985 a51.65034992861277,51.65034992861277 0 0,0 0.23811605609364475,-0.8566301454567645 l 29.45896420249798 8.462468839668206" fill="#a4ff21" stroke="none" /><path d="M 80.2630227832202 92.82701384747504 l -28.848777933824003 -10.48447704852492 a51.69488959511235,51.69488959511235 0 0,0 0.31114270679700745,-0.8337077637946281 l 28.664030638525368 10.97950794934889" fill="#a4ff21" stroke="none" /><path d="M 81.10775173730289 90.83032412892265 l -27.138161885016483 -13.171971104877919 a51.165885587615364,51.165885587615364 0 0,0 0.3913946284772236,-0.789027687786115 l 26.907407243585848 13.637158381162996" fill="#aaff21" stroke="none" /><path d="M 81.43458229118936 90.18545643968196 l -39.71764379260503 -20.996594379383353 a65.92603036067854,65.92603036067854 0 0,0 0.5389983554097921,-0.9986820929110765 l 39.35033733797677 21.677157455626904" fill="#35ff62" stroke="none" /><line stroke="#e1ed5e" stroke-width="0.3" x1="26.266209847984243" x2="21.928928074336255" y1="57.711370442889674" y2="55.22380399835377" /><path d="M 25.398753493254645 57.213857153982495 a86.0,86.0 0 0,1 29.58750427330803,-30.492523968695096" fill="none" id="id11" stroke="none" /><text fill="#e1ed5e" style="font-size:6.75px; font-family:Arial;" text-anchor="middle"><textPath startOffset="21.46611528233685" xlink:href="#id11">November</textPath></text><path d="M 84.31358615837235 86.03803664274999 l -24.699487645771743 -21.98420524504866 a54.066145378922776,54.066145378922776 0 0,0 0.6247378096939545,-0.6898510932076825 l 24.317406195461746 22.406109125525898" fill="#88ff25" stroke="none" /><path d="M 85.05521093208273 85.24692304244772 l -23.787484616487365 -23.482338196863992 a54.42550869577785,54.42550869577785 0 0,0 0.6638984231209938,-0.6610474323058882 l 23.379750393199057 23.88832147981999" fill="#83ff25" stroke="none" /><path d="M 87.51073957382395 83.11751280151077 l -19.43791615781359 -26.275404587753556 a53.683779934523045,53.683779934523045 0 0,0 0.7476225179849589,-0.5431795542105271 l 18.982748323474848 26.60610337678075" fill="#8cff24" stroke="none" /><path d="M 87.80319425747018 82.90503203632743 l -26.260493304211035 -36.806546010678 a66.21432668764038,66.21432668764038 0 0,0 0.9335238212211866,-0.6539930943426954 l 25.62303834340619 37.25312394778464" fill="#35ff65" stroke="none" /><path d="M 88.39885842347998 82.49532879139004 l -18.34621378818035 -27.682141293313723 a54.20970501140598,54.20970501140598 0 0,0 0.782253720998228,-0.5087995799401126 l 17.866993041397837 27.99383979741337" fill="#86ff25" stroke="none" /><line stroke="#e1ed5e" stroke-width="0.3" x1="56.762969772571076" x2="54.21961505331055" y1="26.818313649435495" y2="22.513508569990535" /><path d="M 56.25429882871897 25.957352633546506 a86.0,86.0 0 0,1 42.265352541879196,-11.944610805530505" fill="none" id="id12" stroke="none" /><text fill="#e1ed5e" style="font-size:6.75px; font-family:Arial;" text-anchor="middle"><textPath startOffset="22.20632615414155" xlink:href="#id12">December</textPath></text><path d="M 89.63071344664047 81.73862282372117 l -15.554012647973954 -27.39221161529565 a52.50016772384667,52.50016772384667 0 0,0 0.7896923001733552,-0.4394629100647627 l 15.080196258728552 27.655889922920597" fill="#9aff22" stroke="none" /><path d="M 90.26544431104013 81.39251694778311 l -15.670724565303448 -29.954396593112424 a54.80587942442956,54.80587942442956 0 0,0 0.8396769963469035,-0.4301151707603603 l 15.15278708136778 30.21970428918529" fill="#7fff26" stroke="none" /><path d="M 91.56875222667455 80.76684994638697 l -19.630341395984853 -44.78024034201923 a69.89396924378224,69.89396924378224 0 0,0 1.1060429148673088,-0.47354985412189726 l 18.856614723327237 45.11150972410392" fill="#3aff92" stroke="none" /><path d="M 92.23578459929587 80.48803036053334 l -12.262788392234624 -30.817171144271274 a54.16736372532539,54.16736372532539 0 0,0 0.8693006420485954,-0.3372751437190749 l 11.730504585186353 31.023688991880903" fill="#86ff25" stroke="none" /><path d="M 94.63758080256005 79.69619591428918 l -12.261619916947929 -46.42634590858065 a69.01825608464844,69.01825608464844 0 0,0 1.1512610297578478,-0.29348207038139207 l 11.460649998505081 46.6305309751309" fill="#39ff88" stroke="none" /><path d="M 95.33964822691252 79.52364482259891 l -1.31609447119804 -5.782571606480113 a26.930450155020953,26.930450155020953 0 0,0 0.4528897340031709,-0.09898415438903099 l 1.2163620130413482 5.804369258965012" fill="#ff0000" stroke="none" /><path d="M 97.83486435360386 79.11191278185805 l -3.7251296717188556 -35.93808711766748 a57.130633771748,57.130633771748 0 0,0 0.9790418841839078,-0.09297182384057738 l 3.1059626604447117 35.996884486023234" fill="#64ff29" stroke="none" /><path d="M 98.55514903715128 79.0497635885617 l -4.334552888546145 -62.8507092343149 a84.0,84.0 0 0,0 1.4433518046415081,-0.08706692247877434 l 3.2520390350650135 62.91600942617398" fill="#4dd2ff" stroke="none" /></svg>