<?xml version="1.0" encoding="utf-8" ?>
<svg baseProfile="full" height="200mm" version="1.1" viewBox="0,0,200,200" width="200mm" xmlns="http://www.w3.org/2000/svg" xmlns:ev="http://www.w3.org/2001/xml-events" xmlns:xlink="http://www.w3.org/1999/xlink"><defs /><rect fill="#1a1a1a" height="200" width="200" x="0" y="0" /><text alignment-baseline="middle" fill="#e1ed5e" style="dominant-baseline: central; font-size:9.0px; font-family:Arial;" text-anchor="middle" x="100.0" y="100.0">2025</text><line stroke="#e1ed5e" stroke-width="0.3" x1="100.0" x2="100.0" y1="15.0" y2="10.0" /><path d="M 100.0 14.0 a86.0,86.0 0 0,1 42.46469731375804,11.215312516191453" fill="none" id="id73" stroke="none" /><text fill="#e1ed5e" style="font-size:6.75px; font-family:Arial;" text-anchor="middle"><textPath startOffset="22.20632615414155" xlink:href="#id73">January</textPath></text><path d="M 100.0 79.0 l 0.0 -34.61754022457451 a55.61754022457451,55.61754022457451 0 0,0 0.9573645283970629,0.008240338746682053 l -0.5958840491245345 34.61241126243639" fill="#ff5b08" stroke="none" /><path d="M 100.36148047927253 79.00311137660856 l 0.5642099817805503 -32.77259721325218 a53.77745354669282,53.77745354669282 0 0,0 0.9254161589914321,0.02390076914313727 l -1.1282527759668501 32.75802965196669" fill="#ff2803" stroke="none" /><path d="M 101.08401301168833 79.027996857942 l 2.321373088891988 -44.91075585735591 a65.97071007552427,65.97071007552427 0 0,0 1.133558850488007,0.06837936547638077 l -3.0940939882196066 44.86414322249922" fill="#a6ff21" stroke="none" /><path d="M 101.80526077348638 79.07773832637324 l 2.7337969738011663 -31.68363069119146 a52.80135373957803,52.80135373957803 0 0,0 0.9048514507854145,0.08592654823388275 l -3.2787735516768253 31.6318785984424" fill="#ff0d01" stroke="none" /><path d="M 102.52436894288641 79.15227682838746 l 3.8254438815960206 -31.592765105429965 a52.82352632720192,52.82352632720192 0 0,0 0.9017360084085676,0.11707121388815946 l -4.368694618512434 31.522235568377667" fill="#ff0d01" stroke="none" /><path d="M 104.307194497241 79.44645832069477 l 6.495052084375431 -30.993799748532474 a52.667038453743686,52.667038453743686 0 0,0 0.8857022774869291,0.1935802125664165 l -7.027597086015888 30.877406037870188" fill="#ff0901" stroke="none" /><path d="M 104.66035177308747 79.52364482259891 l 7.765874754051995 -34.1212031772942 a55.99378969134114,55.99378969134114 0 0,0 0.9379661376483736,0.22198628031088757 l -8.352064578662892 33.98247098484244" fill="#ff6509" stroke="none" /><path d="M 106.40334571778207 80.00007090966166 l 19.21003715334621 -59.99978727101504 a84.0,84.0 0 0,0 1.37326871103033,0.45274510296305515 l -20.239988686618958 59.66022844379275" fill="#4dd2ff" stroke="none" /><path d="M 109.73455568895987 81.39251694778311 l 15.206317405755204 -29.066688039508662 a53.8040308899789,53.8040308899789 0 0,0 0.8169372269530253,0.4363795743104841 l -15.704399679236541 28.800629738696422" fill="#ff2904" stroke="none" /><path d="M 110.05341064243156 81.56283822128135 l 15.013855589593687 -27.5342263708336 a52.36159245806058,52.36159245806058 0 0,0 0.7876078912061306,0.438302938731241 l -15.485587569871853 27.27170803454218" fill="#ff0000" stroke="none" /><line stroke="#e1ed5e" stroke-width="0.3" x1="143.23703022742887" x2="145.7803849466894" y1="26.81831364943548" y2="22.513508569990506" /><path d="M 143.74570117128098 25.957352633546492 a86.0,86.0 0 0,1 28.547481713284135,27.462654790039103" fill="none" id="id74" stroke="none" /><text fill="#e1ed5e" style="font-size:6.75px; font-family:Arial;" text-anchor="middle"><textPath startOffset="19.985693538727396" xlink:href="#id74">February</textPath></text><path d="M 111.90073688211348 82.69761687909136 l 18.085569409483437 -26.29446008112191 a52.91373453268916,52.91373453268916 0 0,0 0.7460051944507855,0.5226243127640521 l -18.535505743517874 25.97925092559392" fill="#ff1001" stroke="none" /><path d="M 112.19680574252982 82.90503203632743 l 18.542817593740715 -25.98949916992553 a52.926323800561505,52.926323800561505 0 0,0 0.7370738706500075,0.5355155133087496 l -18.98743678074451 25.666464421800104" fill="#ff1001" stroke="none" /><path d="M 113.06298171725822 83.55741782278167 l 20.658032158688243 -26.002592573492755 a54.20977436256468,54.20977436256468 0 0,0 0.7256277779953672,0.586740532442774 l -21.1025633352481 25.643145943785854" fill="#ff3404" stroke="none" /><path d="M 114.16331599549186 84.49514656593476 l 21.695957342366704 -23.75098026565249 a53.16867464756995,53.16867464756995 0 0,0 0.6704117083692059,0.6230746188217379 l -22.101576934530758 23.37400106075611" fill="#ff1702" stroke="none" /><line stroke="#e1ed5e" stroke-width="0.3" x1="172.23445277983987" x2="176.4835382374775" y1="55.19839476539836" y2="52.563006222186495" /><path d="M 173.08426987136738 54.67131705675599 a86.0,86.0 0 0,1 12.851231095245387,41.99856678651699" fill="none" id="id75" stroke="none" /><text fill="#e1ed5e" style="font-size:6.75px; font-family:Arial;" text-anchor="middle"><textPath startOffset="22.20632615414155" xlink:href="#id75">March</textPath></text><line stroke="#e1ed5e" stroke-width="0.3" x1="184.98032266829074" x2="189.97916517819016" y1="98.17113171792111" y2="98.06355123074" /><path d="M 185.9800911702706 98.14961562048488 a86.0,86.0 0 0,1 -9.607161424134198,41.387399972396054" fill="none" id="id76" stroke="none" /><text fill="#e1ed5e" style="font-size:6.75px; font-family:Arial;" text-anchor="middle"><textPath startOffset="21.466115282336823" xlink:href="#id76">April</textPath></text><line stroke="#e1ed5e" stroke-width="0.3" x1="174.80103733775053" x2="179.2010983576182" y1="140.37084112569926" y2="142.7455964860345" /><path d="M 175.68104954172406 140.8457921977663 a86.0,86.0 0 0,1 -30.038265399797805,32.042727171017184" fill="none" id="id77" stroke="none" /><text fill="#e1ed5e" style="font-size:6.75px; font-family:Arial;" text-anchor="middle"><textPath startOffset="22.206326154141568" xlink:href="#id77">May</textPath></text><line stroke="#e1ed5e" stroke-width="0.3" x1="143.8653032363475" x2="146.44561519142675" y1="172.8068346515853" y2="177.08958963109032" /><path d="M 144.38136562736335 173.6633856474863 a86.0,86.0 0 0,1 -40.68145358897372,12.25698825130547" fill="none" id="id78" stroke="none" /><text fill="#e1ed5e" style="font-size:6.75px; font-family:Arial;" text-anchor="middle"><textPath startOffset="21.466115282336833" xlink:href="#id78">June</textPath></text><line stroke="#e1ed5e" stroke-width="0.3" x1="102.19456741930631" x2="102.32365962044197" y1="184.97166512339345" y2="189.96999836594603" /><path d="M 102.22038585953345 185.97133177190398 a86.0,86.0 0 0,1 -42.740103519485714,-10.115201625700543" fill="none" id="id79" stroke="none" /><text fill="#e1ed5e" style="font-size:6.75px; font-family:Arial;" text-anchor="middle"><textPath startOffset="22.20632615414155" xlink:href="#id79">July</textPath></text><line stroke="#e1ed5e" stroke-width="0.3" x1="58.666819895761336" x2="56.23545636021788" y1="174.27360380694188" y2="178.64263932499728" /><path d="M 58.180547188652646 175.14741091055294 a86.0,86.0 0 0,1 -31.652253787137756,-30.449443065178592" fill="none" id="id80" stroke="none" /><text fill="#e1ed5e" style="font-size:6.75px; font-family:Arial;" text-anchor="middle"><textPath startOffset="22.20632615414155" xlink:href="#id80">August</textPath></text><line stroke="#e1ed5e" stroke-width="0.3" x1="26.63291911575756" x2="22.317208475507996" y1="142.92168965132927" y2="145.44649492493687" /><path d="M 25.769776987707644 143.4266507060508 a86.0,86.0 0 0,1 -11.730757126820373,-40.83630448921669" fill="none" id="id81" stroke="none" /><text fill="#e1ed5e" style="font-size:6.75px; font-family:Arial;" text-anchor="middle"><textPath startOffset="21.46611528233685" xlink:href="#id81">September</textPath></text><line stroke="#e1ed5e" stroke-width="0.3" x1="15.007084014347285" x2="10.007500721073583" y1="101.09737516637583" y2="101.16192664675087" /><path d="M 14.007167355692545 101.11028546245083 a86.0,86.0 0 0,1 10.666146001902534,-42.60595125391555" fill="none" id="id82" stroke="none" /><text fill="#e1ed5e" style="font-size:6.75px; font-family:Arial;" text-anchor="middle"><textPath startOffset="22.20632615414155" xlink:href="#id82">October</textPath></text><line stroke="#e1ed5e" stroke-width="0.3" x1="26.266209847984243" x2="21.928928074336255" y1="57.711370442889674" y2="55.22380399835377" /><path d="M 25.398753493254645 57.213857153982495 a86.0,86.0 0 0,1 29.58750427330803,-30.492523968695096" fill="none" id="id83" stroke="none" /><text fill="#e1ed5e" style="font-size:6.75px; font-family:Arial;" text-anchor="middle"><textPath startOffset="21.46611528233685" xlink:href="#id83">November</textPath></text><line stroke="#e1ed5e" stroke-width="0.3" x1="56.762969772571076" x2="54.21961505331055" y1="26.818313649435495" y2="22.513508569990535" /><path d="M 56.25429882871897 25.957352633546506 a86.0,86.0 0 0,1 42.265352541879196,-11.944610805530505" fill="none" id="id84" stroke="none" /><text fill="#e1ed5e" style="font-size:6.75px; font-family:Arial;" text-anchor="middle"><textPath startOffset="22.20632615414155" xlink:href="#id84">December</textPath></text></svg>