<?xml version="1.0" encoding="utf-8" ?>
<svg baseProfile="full" height="200mm" version="1.1" viewBox="0,0,200,200" width="200mm" xmlns="http://www.w3.org/2000/svg" xmlns:ev="http://www.w3.org/2001/xml-events" xmlns:xlink="http://www.w3.org/1999/xlink"><defs /><rect fill="#1a1a1a" height="200" width="200" x="0" y="0" /><text alignment-baseline="middle" fill="#e1ed5e" style="dominant-baseline: central; font-size:9.0px; font-family:Arial;" text-anchor="middle" x="100.0" y="100.0">2024</text><line stroke="#e1ed5e" stroke-width="0.3" x1="100.0" x2="100.0" y1="15.0" y2="10.0" /><path d="M 100.0 14.0 a86.0,86.0 0 0,1 42.35913384403234,11.155469271406648" fill="none" id="id61" stroke="none" /><text fill="#e1ed5e" style="font-size:6.75px; font-family:Arial;" text-anchor="middle"><textPath startOffset="22.145653131862478" xlink:href="#id61">January</textPath></text><path d="M 100.0 79.0 l 0.0 -29.263993743559958 a50.26399374355996,50.26399374355996 0 0,0 0.8628482913904985,0.007406514832626647 l -0.5023553665416436 29.259681626921765" fill="#fff617" stroke="none" /><path d="M 102.51750503828377 79.15144685158666 l 2.757359679614552 -22.834893656826942 a44.000769568024445,44.000769568024445 0 0,0 0.7491071892591176,0.09698692329799989 l -3.1489446907644614 22.784195137328545" fill="#ff8e0d" stroke="none" /><path d="M 102.87502721639298 79.19773525538626 l 6.065661591497094 -43.88810567013099 a65.30528264050628,65.30528264050628 0 0,0 1.109178799479193,0.16301108685373644 l -6.818165496583969 43.77751350997837" fill="#33ff2f" stroke="none" /><path d="M 103.58742460773223 79.30868818359171 l 4.999867319926932 -28.837906038302943 a50.26813109665294,50.26813109665294 0 0,0 0.8489695290135704,0.15471052884924605 l -5.494171582491556 28.74782733552233" fill="#fff617" stroke="none" /><path d="M 104.29559338865022 79.4440306129975 l 11.661725147797746 -55.80557642423722 a78.01103571646598,78.01103571646598 0 0,0 1.3084961284669712,0.28518064102054663 l -12.61798369288385 55.59716432508296" fill="#43ffe2" stroke="none" /><path d="M 104.9986988182912 79.60360301121754 l 9.197333772779016 -37.52826039078416 a59.6388570804883,59.6388570804883 0 0,0 0.9922619515242771,0.25222910786729397 l -9.840201017528688 37.3648460510816" fill="#7dff26" stroke="none" /><path d="M 106.38641147887787 79.99465700312896 l 10.836571708470183 -33.945406533095124 a56.633157467307235,56.633157467307235 0 0,0 0.9235985108460808,0.3036051755125558 l -11.417692956964006 33.75438043618055" fill="#a8ff21" stroke="none" /><path d="M 108.07796709384702 80.6158196554323 l 9.967826715187105 -23.919155456545575 a46.91299996485146,46.91299996485146 0 0,0 0.7407002527083616,0.3161608931216231 l -10.376962043065896 23.744519913764552" fill="#ffc011" stroke="none" /><path d="M 108.4095320186766 80.7573450057729 l 13.755391418463212 -31.47502747931673 a55.349499965776424,55.349499965776424 0 0,0 0.8673704093990332,0.3879637516179777 l -14.293675230717877 31.2342599767889" fill="#baff1f" stroke="none" /><path d="M 109.71004243097381 81.37971332152246 l 13.399522829411135 -25.69535181870646 a49.97927392366847,49.97927392366847 0 0,0 0.7573316162561176,0.40323642878345456 l -13.83864326145381 25.46154492220043" fill="#fff116" stroke="none" /><path d="M 110.02825361518725 81.54914285379988 l 16.67764862564478 -30.68499502847352 a55.924388091674786,55.924388091674786 0 0,0 0.8395470652244882,0.46568260484649787 l -17.201939879025364 30.394179508193876" fill="#b2ff20" stroke="none" /><line stroke="#e1ed5e" stroke-width="0.3" x1="143.13028292997686" x2="145.6673583964461" y1="26.7553504044142" y2="22.446841604673864" /><path d="M 143.63769802327073 25.89364864446614 a86.0,86.0 0 0,1 29.32050498858742,28.57503671076993" fill="none" id="id62" stroke="none" /><text fill="#e1ed5e" style="font-size:6.75px; font-family:Arial;" text-anchor="middle"><textPath startOffset="20.669276256404974" xlink:href="#id62">February</textPath></text><path d="M 112.16784306229584 82.88440491214696 l 20.651786061707163 -29.04932338981486 a56.64210230814909,56.64210230814909 0 0,0 0.78764616601524,0.5701950826547668 l -21.147413238096373 28.690527535787016" fill="#a8ff21" stroke="none" /><path d="M 112.7482090630111 83.31218511350987 l 17.777186431851998 -23.270907694645146 a50.28418519210527,50.28418519210527 0 0,0 0.6814466213235136,0.5298970144342047 l -18.17404299781074 22.962309628590152" fill="#fff617" stroke="none" /><path d="M 113.03279911837588 83.53348406188908 l 18.150753050203612 -22.93288354061111 a50.24665765137458,50.24665765137458 0 0,0 0.6717481156117342,0.5411127313827077 l -18.541751936170606 22.61792251543499" fill="#fff617" stroke="none" /><path d="M 113.59037401385872 83.9905735841838 l 20.06602960903934 -23.637732424134573 a52.00625644004491,52.00625644004491 0 0,0 0.6756368541694834,0.5835990227924298 l -20.468845942971683 23.289789268877424" fill="#edff1a" stroke="none" /><path d="M 113.86319453409587 84.22622945171908 l 21.372515735763038 -24.317999608698138 a53.37513758803322,53.37513758803322 0 0,0 0.6830364841913689,0.6107754359758876 l -21.78681724677778 23.947528642838865" fill="#d8ff1c" stroke="none" /><path d="M 114.39649973595853 84.71141617570332 l 22.19937207209709 -23.57496384508563 a53.38195547974981,53.38195547974981 0 0,0 0.6617519890329453,0.6339434360579603 l -22.600796546995348 23.19040827872209" fill="#d8ff1c" stroke="none" /><path d="M 114.65682725009322 84.96080404539774 l 22.61871212502326 -23.208791240055007 a53.40762455069992,53.40762455069992 0 0,0 0.6510849243640267,0.6455201293890596 l -23.01378896951725 22.81709110043729" fill="#d7ff1c" stroke="none" /><path d="M 115.16444852881244 85.47280134310134 l 22.037273919665576 -21.11120991173587 a51.51761173073259,51.51761173073259 0 0,0 0.6062989142424275,0.6438684362854497 l -22.396428667644262 20.729800015505926" fill="#f4ff19" stroke="none" /><path d="M 117.21940702142032 87.97951657250589 l 25.127816038648533 -17.541167119515674 a51.64473336132883,51.64473336132883 0 0,0 0.501225080879752,0.731302372296583 l -25.42523085634361 17.107230012149042" fill="#f2ff19" stroke="none" /><path d="M 117.42321728460499 88.27688183743584 l 25.283645439422827 -17.011965024888344 a51.47408211438814,51.47408211438814 0 0,0 0.4869829592912748,0.7373542687635963 l -25.571952837634825 16.57543087778569" fill="#f5ff19" stroke="none" /><line stroke="#e1ed5e" stroke-width="0.3" x1="172.87174338648825" x2="177.1583165268699" y1="56.24261187166439" y2="53.66864786411523" /><path d="M 173.72905801456457 55.72781907015455 a86.0,86.0 0 0,1 12.242430191666344,42.057860355516425" fill="none" id="id63" stroke="none" /><text fill="#e1ed5e" style="font-size:6.75px; font-family:Arial;" text-anchor="middle"><textPath startOffset="22.145653131862474" xlink:href="#id63">March</textPath></text><path d="M 118.53625476483649 90.13048839642627 l 27.21749773174687 -14.49178451049881 a51.83510987618464,51.83510987618464 0 0,0 0.4114521219122447,0.78901369576255 l -27.462257922634063 14.022424571631761" fill="#f0ff19" stroke="none" /><path d="M 118.70294669586156 90.45014215332178 l 27.34395524470416 -13.9620183813408 a51.70227753286851,51.70227753286851 0 0,0 0.39682750380469556,0.7939208318157494 l -27.57960266172059 13.4905656933613" fill="#f2ff19" stroke="none" /><path d="M 118.8641267826498 90.77261029715802 l 27.518698350350007 -13.460774342715986 a51.63447738746456,51.63447738746456 0 0,0 0.38263788980425617,0.7995660242288376 l -27.745715498114176 12.986395816422045" fill="#f3ff19" stroke="none" /><path d="M 119.0197475246899 91.09779779509293 l 27.682012927103113 -12.956579796657492 a51.56414238488391,51.56414238488391 0 0,0 0.3683534482932707,0.8049187617340826 l -27.900350840251434 12.479472052708726" fill="#f4ff19" stroke="none" /><path d="M 119.16976305983485 91.42560881287824 l 28.0193455549235 -12.532696875029874 a51.69449814360213,51.69449814360213 0 0,0 0.3553778103844178,0.8131739771777965 l -28.230357247324886 12.049860828076229" fill="#f2ff19" stroke="none" /><path d="M 119.4528033332814 92.08871423366111 l 28.406059680664416 -11.552497178899152 a51.66536185421495,51.66536185421495 0 0,0 0.32706960301209453,0.824429057268595 l -28.600187958642636 11.063167104416992" fill="#f2ff19" stroke="none" /><path d="M 119.58574465831526 92.42381321644754 l 28.588747666066453 -11.05874175348305 a51.65309547638296,51.65309547638296 0 0,0 0.31279470621900146,0.829725120492554 l -28.774373056099893 10.566348352796338" fill="#f2ff19" stroke="none" /><path d="M 119.71291397450082 92.76114493625339 l 28.80341932079187 -10.57701454352392 a51.684038215712135,51.684038215712135 0 0,0 0.29868409949053165,0.8354725851098611 l -28.980743590326345 10.081007002033141" fill="#f2ff19" stroke="none" /><path d="M 119.83427380445688 93.10060997987247 l 28.924632529792298 -10.061488662471831 a51.62462932165168,51.62462932165168 0 0,0 0.2839712996463581,0.839510689011245 l -29.09308925101102 9.563476298986425" fill="#f3ff19" stroke="none" /><path d="M 119.94978838288452 93.4421083053983 l 29.187447580101132 -9.594493755952906 a51.72395493217256,51.72395493217256 0 0,0 0.2700366904815752,0.8458860868409129 l -29.347848986359963 9.092038635420606" fill="#f1ff19" stroke="none" /><path d="M 120.05942366710727 93.78553927170692 l 34.13572214679613 -10.575333979362547 a56.736329068027224,56.736329068027224 0 0,0 0.28023337335337867,0.9328057589282083 l -34.31223184015313 9.987790616843615" fill="#a6ff21" stroke="none" /><path d="M 120.35273937422433 94.82641323984039 l 29.62664274705743 -7.530976732216751 a51.56883332747524,51.56883332747524 0 0,0 0.21072614964284606,0.8598346010176862 l -29.75155642321657 7.021286306590969" fill="#f4ff19" stroke="none" /><path d="M 120.43855184770803 95.1765574152323 l 29.767067873122542 -7.024946966533291 a51.584770877770026,51.584770877770026 0 0,0 0.19599544881345005,0.8635921110593304 l -29.88327418349366 6.512920521534935" fill="#f3ff19" stroke="none" /><path d="M 120.51834098615036 95.52812308129327 l 30.151841439572056 -6.571453504995344 a51.859642631848644,51.859642631848644 0 0,0 0.18210708397632275,0.8714483203332133 l -30.260206234372745 6.052888733376727" fill="#efff19" stroke="none" /><path d="M 120.592083275326 95.88100663000786 l 29.666486238908 -5.93412810618553 a51.25416140209374,51.25416140209374 0 0,0 0.16516948276421176,0.8642365278023757 l -29.76398201395437 5.42398901334984" fill="#f9ff18" stroke="none" /><path d="M 120.65975698304385 96.23510406497455 l 16.32198118621441 -2.974408685928642 a37.59078590284574,37.59078590284574 0 0,0 0.11023978144938572,0.6358337643181512 l -16.37063578515603 2.693781888689898" fill="#ff1b02" stroke="none" /><path d="M 120.82617615685814 97.30363454192243 l 30.242035894383143 -3.915437013179405 a51.49444838066978,51.49444838066978 0 0,0 0.10597536324866615,0.8776280323229825 l -30.304793343891475 3.3957153039330095" fill="#f5ff19" stroke="none" /><path d="M 120.86939407059847 97.66154086499901 l 30.0954770619738 -3.3722609779521506 a51.28382214468989,51.28382214468989 0 0,0 0.09052231387140035,0.8757212714824882 l -30.148931768326868 2.855135184186731" fill="#f8ff18" stroke="none" /><path d="M 120.9064616781168 98.02013634271609 l 30.479605986406714 -2.886450376439581 a51.615975843703694,51.615975843703694 0 0,0 0.07596489639284777,0.8828272448678393 l -30.524664505497302 2.3628020841960793" fill="#f3ff19" stroke="none" /><path d="M 120.93736805541906 98.37931529534042 l 29.70718558845034 -2.2995240459186377 a50.79605152405918,50.79605152405918 0 0,0 0.059833004912401525,0.8699587598868163 l -29.742282554527804 1.7892218618774873" fill="#fffe18" stroke="none" /><path d="M 120.96210409425399 98.7389718711861 l 35.53014463001929 -2.1374052718096364 a56.5943770661329,56.5943770661329 0 0,0 0.05001436590680108,0.9702653371467101 l -35.56160058538266 1.5271681412861957" fill="#a8ff21" stroke="none" /><line stroke="#e1ed5e" stroke-width="0.3" x1="184.99686870605535" x2="189.99668451229388" y1="99.2704041080226" y2="99.22748670261217" /><path d="M 185.99683186730306 99.26182062694052 a86.0,86.0 0 0,1 -10.086455211305974,41.156179273409016" fill="none" id="id64" stroke="none" /><text fill="#e1ed5e" style="font-size:6.75px; font-family:Arial;" text-anchor="middle"><textPath startOffset="21.40746469413373" xlink:href="#id64">April</textPath></text><path d="M 120.99922638620191 100.18025310272382 l 30.682966124461135 0.26337636172817513 a51.68409648829091,51.68409648829091 0 0,0 -0.015230979351372034,0.8871281892645984 l -30.673923713511094 -0.7900514669618446" fill="#f2ff19" stroke="none" /><path d="M 120.99303781780057 100.54070618675476 l 30.79168267763373 0.7930845201578404 a51.80189450628326,51.80189450628326 0 0,0 -0.030526888508172822,0.8887570511583176 l -30.77353110212871 -1.3215478358802686" fill="#f0ff19" stroke="none" /><path d="M 120.98066250479742 100.90099992219065 l 15.112496221513219 0.6489956128209157 a36.12642513453566,36.12642513453566 0 0,0 -0.03192614424348117,0.6193586691855559 l -15.099128487813164 -0.9083260753832022" fill="#ff0000" stroke="none" /><path d="M 120.93736805541906 101.62068470465957 l 62.812104166257186 4.86205411397871 a84.0,84.0 0 0,0 -0.12362550920903681,1.4367158104973705 l -62.7193850343504 -5.939590971851738" fill="#4dd2ff" stroke="none" /><path d="M 120.86939407059847 102.33845913500097 l 30.485559915756482 3.4159705753534673 a51.67634623531393,51.67634623531393 0 0,0 -0.10634970828635963,0.8807281462435269 l -30.42242812121046 -3.9387923985204027" fill="#f2ff19" stroke="none" /><line stroke="#e1ed5e" stroke-width="0.3" x1="174.33088141563837" x2="178.70328620479359" y1="141.23008692659167" y2="143.65538615756765" /><path d="M 175.20536237346943 141.71514677278685 a86.0,86.0 0 0,1 -30.301960400862466,31.631185727798858" fill="none" id="id65" stroke="none" /><text fill="#e1ed5e" style="font-size:6.75px; font-family:Arial;" text-anchor="middle"><textPath startOffset="22.145653131862474" xlink:href="#id65">May</textPath></text><line stroke="#e1ed5e" stroke-width="0.3" x1="143.1302829299769" x2="145.66735839644613" y1="173.24464959558577" y2="177.55315839532614" /><path d="M 143.63769802327073 174.10635135553383 a86.0,86.0 0 0,1 -40.68552437913181,11.842963189579606" fill="none" id="id66" stroke="none" /><text fill="#e1ed5e" style="font-size:6.75px; font-family:Arial;" text-anchor="middle"><textPath startOffset="21.407464694133747" xlink:href="#id66">June</textPath></text><line stroke="#e1ed5e" stroke-width="0.3" x1="101.45913802915013" x2="101.54496967792366" y1="184.9874750549273" y2="189.98673829345242" /><path d="M 101.47630435890484 185.9873277026323 a86.0,86.0 0 0,1 -42.54439059252881,-10.42667462771756" fill="none" id="id67" stroke="none" /><text fill="#e1ed5e" style="font-size:6.75px; font-family:Arial;" text-anchor="middle"><textPath startOffset="22.145653131862474" xlink:href="#id67">July</textPath></text><line stroke="#e1ed5e" stroke-width="0.3" x1="58.13341422392154" x2="55.67067388415222" y1="173.97424548756322" y2="178.32567169271397" /><path d="M 57.64086615596768 174.84453072859336 a86.0,86.0 0 0,1 -31.369924170532247,-30.572349798747897" fill="none" id="id68" stroke="none" /><text fill="#e1ed5e" style="font-size:6.75px; font-family:Arial;" text-anchor="middle"><textPath startOffset="22.145653131862474" xlink:href="#id68">August</textPath></text><line stroke="#e1ed5e" stroke-width="0.3" x1="26.387840678322732" x2="22.057713659400548" y1="142.50000000000003" y2="145.00000000000006" /><path d="M 25.521815274538298 143.00000000000003 a86.0,86.0 0 0,1 -11.493303480769221,-40.785679425670985" fill="none" id="id69" stroke="none" /><text fill="#e1ed5e" style="font-size:6.75px; font-family:Arial;" text-anchor="middle"><textPath startOffset="21.40746469413373" xlink:href="#id69">September</textPath></text><line stroke="#e1ed5e" stroke-width="0.3" x1="15.003131293944662" x2="10.003315487706104" y1="100.72959589197737" y2="100.7725132973878" /><path d="M 14.003168132696942 100.73817937305945 a86.0,86.0 0 0,1 10.791469493833604,-42.45332614584628" fill="none" id="id70" stroke="none" /><text fill="#e1ed5e" style="font-size:6.75px; font-family:Arial;" text-anchor="middle"><textPath startOffset="22.145653131862435" xlink:href="#id70">October</textPath></text><line stroke="#e1ed5e" stroke-width="0.3" x1="26.387840678322718" x2="22.05771365940052" y1="57.49999999999999" y2="54.99999999999999" /><path d="M 25.521815274538284 56.99999999999999 a86.0,86.0 0 0,1 29.574782752854787,-30.34633250058573" fill="none" id="id71" stroke="none" /><text fill="#e1ed5e" style="font-size:6.75px; font-family:Arial;" text-anchor="middle"><textPath startOffset="21.40746469413373" xlink:href="#id71">November</textPath></text><line stroke="#e1ed5e" stroke-width="0.3" x1="56.869717070023135" x2="54.33264160355391" y1="26.7553504044142" y2="22.446841604673864" /><path d="M 56.362301976729285 25.89364864446614 a86.0,86.0 0 0,1 42.16139366436587,-11.88097634709845" fill="none" id="id72" stroke="none" /><text fill="#e1ed5e" style="font-size:6.75px; font-family:Arial;" text-anchor="middle"><textPath startOffset="22.145653131862474" xlink:href="#id72">December</textPath></text></svg>