<?xml version="1.0" encoding="utf-8" ?>
<svg baseProfile="full" height="200mm" version="1.1" viewBox="0,0,200,200" width="200mm" xmlns="http://www.w3.org/2000/svg" xmlns:ev="http://www.w3.org/2001/xml-events" xmlns:xlink="http://www.w3.org/1999/xlink"><defs /><rect fill="#1a1a1a" height="200" width="200" x="0" y="0" /><text alignment-baseline="middle" fill="#e1ed5e" style="dominant-baseline: central; font-size:9.0px; font-family:Arial;" text-anchor="middle" x="100.0" y="100.0">2024</text><line stroke="#e1ed5e" stroke-width="0.3" x1="100.0" x2="100.0" y1="15.0" y2="10.0" /><path d="M 100.0 14.0 a86.0,86.0 0 0,1 42.35913384403234,11.155469271406648" fill="none" id="id61" stroke="none" /><text fill="#e1ed5e" style="font-size:6.75px; font-family:Arial;" text-anchor="middle"><textPath startOffset="22.145653131862478" xlink:href="#id61">January</textPath></text><path d="M 100.0 79.0 l 0.0 -14.86621211679806 a35.86621211679806,35.86621211679806 0 0,0 0.6156912242492366,0.005284968667401878 l -0.2551982994003818 14.864021546325093" fill="#ffa90f" stroke="none" /><path d="M 102.51750503828377 79.15144685158666 l 1.4007484500804732 -11.600206579514518 a32.68447212790611,32.68447212790611 0 0,0 0.5564487459770812,0.0720434306587327 l -1.599675017948346 11.57445155265539" fill="#ff7d0b" stroke="none" /><path d="M 102.87502721639298 79.19773525538626 l 3.081377498850612 -22.295312595198936 a43.507239968686946,43.507239968686946 0 0,0 0.7389495343396502,0.1086001344231683 l -3.463652138797944 22.239131387476885" fill="#f2ff19" stroke="none" /><path d="M 103.58742460773223 79.30868818359171 l 2.5399502468878765 -14.649758058537316 a35.86831390677318,35.86831390677318 0 0,0 0.6057735766104837,0.11039212503798723 l -2.7910585570494137 14.603997759567962" fill="#ffa90f" stroke="none" /><path d="M 104.29559338865022 79.4440306129975 l 5.924197538249939 -28.3494298041759 a49.961807379618136,49.961807379618136 0 0,0 0.838020299654143,0.18264262388272828 l -6.409980254523217 28.243555722159453" fill="#a5ff21" stroke="none" /><path d="M 104.9986988182912 79.60360301121754 l 4.672278021013901 -19.064488744520887 a40.628675783037764,40.628675783037764 0 0,0 0.6759735362788094,0.17182982954812256 l -4.998856850518105 18.981473683137498" fill="#ffe715" stroke="none" /><path d="M 106.38641147887787 79.99465700312896 l 5.505016678472433 -17.244386338176735 a39.101769770123475,39.101769770123475 0 0,0 0.6376889078095311,0.20962101010813278 l -5.800228323929707 17.14734440666658" fill="#ffd413" stroke="none" /><path d="M 108.07796709384702 80.6158196554323 l 5.063691155417514 -12.151015400962745 a34.163895448988015,34.163895448988015 0 0,0 0.5394071155442381,0.23024082249607644 l -5.271533346132182 12.062299928807267" fill="#ff920d" stroke="none" /><path d="M 108.4095320186766 80.7573450057729 l 6.987787393901405 -15.989425058995675 a38.44966722833436,38.44966722833436 0 0,0 0.602536673785995,0.2695069902273896 l -7.261237470543032 15.867114317858434" fill="#ffcb12" stroke="none" /><path d="M 109.71004243097381 81.37971332152246 l 6.807004894529868 -13.05332942249918 a35.72157344329866,35.72157344329866 0 0,0 0.5412859136837834,0.28820426098627827 l -7.030079624000211 12.934554693790329" fill="#ffa70f" stroke="none" /><path d="M 110.02825361518725 81.54914285379988 l 8.472304370035719 -15.588085785337121 a38.74171242551168,38.74171242551168 0 0,0 0.5815976191870277,0.32260239537984225 l -8.738646177378847 15.440350474524132" fill="#ffcf13" stroke="none" /><line stroke="#e1ed5e" stroke-width="0.3" x1="143.13028292997686" x2="145.6673583964461" y1="26.7553504044142" y2="22.446841604673864" /><path d="M 143.63769802327073 25.89364864446614 a86.0,86.0 0 0,1 29.32050498858742,28.57503671076993" fill="none" id="id62" stroke="none" /><text fill="#e1ed5e" style="font-size:6.75px; font-family:Arial;" text-anchor="middle"><textPath startOffset="20.669276256404974" xlink:href="#id62">February</textPath></text><path d="M 112.16784306229584 82.88440491214696 l 10.491180215333259 -14.757158819359299 a39.106313780844346,39.106313780844346 0 0,0 0.5437993446800353,0.39366878893871393 l -10.742960570387261 14.57488925904751" fill="#ffd413" stroke="none" /><path d="M 112.7482090630111 83.31218511350987 l 9.030873456700883 -11.821703249753982 a35.87646944393018,35.87646944393018 0 0,0 0.48619459168289114,0.37806785521431335 l -9.232477993019 11.664934342918878" fill="#ffa90f" stroke="none" /><path d="M 113.03279911837588 83.53348406188908 l 9.2206466174265 -11.6499857863583 a35.857405320775534,35.857405320775534 0 0,0 0.4793780438508071,0.38615301873498614 l -9.419275431632565 11.489984473829907" fill="#ffa90f" stroke="none" /><path d="M 113.59037401385872 83.9905735841838 l 10.193613869794401 -12.008051507140314 a36.75128771639321,36.75128771639321 0 0,0 0.47745263972243807,0.4124122185640629 l -10.3982459892797 11.831295156111532" fill="#ffb510" stroke="none" /><path d="M 113.86319453409587 84.22622945171908 l 10.857313433761215 -12.353629638083033 a37.44668417140231,37.44668417140231 0 0,0 0.47920160315977745,0.42850502844919014 l -11.067780063744369 12.165429079750457" fill="#ffbe11" stroke="none" /><path d="M 114.39649973595853 84.71141617570332 l 11.277359371228847 -11.976164847425009 a37.45014768445991,37.45014768445991 0 0,0 0.46425256431773265,0.44474345479851746 l -11.481284421411893 11.780809262320913" fill="#ffbe11" stroke="none" /><path d="M 114.65682725009322 84.96080404539774 l 11.490385598287881 -11.790147871565598 a37.46318766310839,37.46318766310839 0 0,0 0.4567085114020598,0.45280504330723736 l -11.691086029819903 11.591162818029701" fill="#ffbe11" stroke="none" /><path d="M 115.16444852881244 85.47280134310134 l 11.195012937624982 -10.724569152806827 a36.50305447926074,36.50305447926074 0 0,0 0.4295960459693703,0.4562161136282544 l -11.377464817330614 10.53081157923408" fill="#ffb110" stroke="none" /><path d="M 117.21940702142032 87.97951657250589 l 12.765019242960875 -8.910974812940928 a36.56763271631333,36.56763271631333 0 0,0 0.3548980403786834,0.5178068471689365 l -12.916107020154884 8.690533230701943" fill="#ffb210" stroke="none" /><path d="M 117.42321728460499 88.27688183743584 l 12.844181128595643 -8.642138280910334 a36.480941280508375,36.480941280508375 0 0,0 0.34513673702881476,0.5225810092527707 l -12.990642304545183 8.420377393318503" fill="#ffb110" stroke="none" /><line stroke="#e1ed5e" stroke-width="0.3" x1="172.87174338648825" x2="177.1583165268699" y1="56.24261187166439" y2="53.66864786411523" /><path d="M 173.72905801456457 55.72781907015455 a86.0,86.0 0 0,1 12.242430191666344,42.057860355516425" fill="none" id="id63" stroke="none" /><text fill="#e1ed5e" style="font-size:6.75px; font-family:Arial;" text-anchor="middle"><textPath startOffset="22.145653131862474" xlink:href="#id63">March</textPath></text><path d="M 118.53625476483649 90.13048839642627 l 13.826584919143611 -7.3618776839512785 a36.66434465784475,36.66434465784475 0 0,0 0.2910309719421103,0.5580902625710283 l -13.950923960060665 7.123441178275751" fill="#ffb310" stroke="none" /><path d="M 118.70294669586156 90.45014215332178 l 13.890825782091431 -7.092754620388188 a36.596865358572984,36.596865358572984 0 0,0 0.2808898064130081,0.5619677734478177 l -14.010535501716175 6.85325499077662" fill="#ffb310" stroke="none" /><path d="M 118.8641267826498 90.77261029715802 l 13.979595896561905 -6.838120879492281 a36.56242264538908,36.56242264538908 0 0,0 0.270946254421846,0.5661734637377273 l -14.094921408943664 6.59713491368945" fill="#ffb210" stroke="none" /><path d="M 119.0197475246899 91.09779779509293 l 14.062560278014834 -6.581988270405466 a36.52669221581196,36.52669221581196 0 0,0 0.26093196570618377,0.5701834357902996 l -14.17347670857607 6.339615852400482" fill="#ffb210" stroke="none" /><path d="M 119.16976305983485 91.42560881287824 l 14.233926443653054 -6.3666542500108285 a36.59291340136623,36.59291340136623 0 0,0 0.25156080254497265,0.575620346375186 l -14.341121128214997 6.1213718338597936" fill="#ffb310" stroke="none" /><path d="M 119.4528033332814 92.08871423366111 l 14.430378584540074 -5.868709344500211 a36.578112063513245,36.578112063513245 0 0,0 0.23155917547433522,0.5836803878443573 l -14.528996434980535 5.620127939442289" fill="#ffb210" stroke="none" /><path d="M 119.58574465831526 92.42381321644754 l 14.523184725970264 -5.617879845547387 a36.571880700277134,36.571880700277134 0 0,0 0.2214676695368619,0.5874693053885036 l -14.617483079321566 5.367742259964726" fill="#ffb210" stroke="none" /><path d="M 119.71291397450082 92.76114493625339 l 14.632238684311632 -5.373160722503504 a36.58759972107701,36.58759972107701 0 0,0 0.21144118479286553,0.591438625487284 l -14.72232003914844 5.121187140635303" fill="#ffb210" stroke="none" /><path d="M 119.83427380445688 93.10060997987247 l 14.693815422338194 -5.111271755242973 a36.55741979319477,36.55741979319477 0 0,0 0.20109118741966542,0.5944903640438645 l -14.779392031330223 4.858279716724947" fill="#ffb210" stroke="none" /><path d="M 119.94978838288452 93.4421083053983 l 14.827326395570884 -4.874036694348305 a36.6078775539356,36.6078775539356 0 0,0 0.19111976478176654,0.5986799410883565 l -14.908810876129907 4.618787719568561" fill="#ffb310" stroke="none" /><path d="M 120.05942366710727 93.78553927170692 l 17.341067341706548 -5.372306989977525 a39.1541813074609,39.1541813074609 0 0,0 0.19339122725976338,0.6437364984598691 l -17.43073488896994 5.073832887926932" fill="#ffd413" stroke="none" /><path d="M 120.35273937422433 94.82641323984039 l 15.050439090641143 -3.8257627625567343 a36.52907523120629,36.52907523120629 0 0,0 0.14926906188868064,0.6090687106980758 l -15.113895679046115 3.566838227250564" fill="#ffb210" stroke="none" /><path d="M 120.43855184770803 95.1765574152323 l 15.121775550350153 -3.5686978554225393 a36.53717156301188,36.53717156301188 0 0,0 0.1388223542920214,0.6116769074540163 l -15.18080876619984 3.308586614029497" fill="#ffb210" stroke="none" /><path d="M 120.51834098615036 95.52812308129327 l 15.317241880267414 -3.338321576235159 a36.67680738431697,36.67680738431697 0 0,0 0.12879198743682385,0.6163162831094979 l -15.372291578528603 3.0748888418402562" fill="#ffb410" stroke="none" /><path d="M 120.592083275326 95.88100663000786 l 15.070679725139458 -3.0145580240298244 a36.36922078239402,36.36922078239402 0 0,0 0.11720190557873511,0.6132498947991806 l -15.12020792300035 2.7554055641973294" fill="#ffb010" stroke="none" /><path d="M 120.65975698304385 96.23510406497455 l 8.291624055382018 -1.5110101114203778 a29.428177800248662,29.428177800248662 0 0,0 0.08630189050949011,0.4977663706238034 l -8.316340763383742 1.3684507078759818" fill="#ff4f07" stroke="none" /><path d="M 120.82617615685814 97.30363454192243 l 15.363060981676822 -1.9890558232741864 a36.491287415667614,36.491287415667614 0 0,0 0.07509891960972115,0.6219267858701204 l -15.394941987546208 1.725035360480653" fill="#ffb110" stroke="none" /><path d="M 120.86939407059847 97.66154086499901 l 15.288608577494394 -1.7131204800940785 a36.38428854432836,36.38428854432836 0 0,0 0.06422278702833226,0.6212972062832903 l -15.315763757004392 1.4504187515278568" fill="#ffb010" stroke="none" /><path d="M 120.9064616781168 98.02013634271609 l 15.48374742699179 -1.4663269797276264 a36.55302379585243,36.55302379585243 0 0,0 0.05379626404633686,0.6251941334403228 l -15.506637313735867 1.2003117989116416" fill="#ffb210" stroke="none" /><path d="M 120.93736805541906 98.37931529534042 l 15.091355138366177 -1.168166332109991 a36.13649934733149,36.13649934733149 0 0,0 0.042565421486388366,0.6188918865862086 l -15.109184521017632 0.9089310213694483" fill="#ffac10" stroke="none" /><path d="M 120.96210409425399 98.7389718711861 l 18.04943888516992 -1.0858094226211739 a39.08206918944115,39.08206918944115 0 0,0 0.034538146900203855,0.6700308229238584 l -18.065418621526696 0.7758068063205846" fill="#ffd313" stroke="none" /><line stroke="#e1ed5e" stroke-width="0.3" x1="184.99686870605535" x2="189.99668451229388" y1="99.2704041080226" y2="99.22748670261217" /><path d="M 185.99683186730306 99.26182062694052 a86.0,86.0 0 0,1 -10.086455211305974,41.156179273409016" fill="none" id="id64" stroke="none" /><text fill="#e1ed5e" style="font-size:6.75px; font-family:Arial;" text-anchor="middle"><textPath startOffset="21.40746469413373" xlink:href="#id64">April</textPath></text><path d="M 120.99922638620191 100.18025310272382 l 15.587055094937268 0.13379612141501496 a36.587629323752715,36.587629323752715 0 0,0 -0.010782145081552903,0.6280058965298627 l -15.582461518257047 -0.40134893391394877" fill="#ffb210" stroke="none" /><path d="M 120.99303781780057 100.54070618675476 l 15.64228348769301 0.4028897356434847 a36.647471132692345,36.647471132692345 0 0,0 -0.021596377430529796,0.6287549651750783 l -15.633062423265635 -0.6713509653826738" fill="#ffb310" stroke="none" /><path d="M 120.98066250479742 100.90099992219065 l 7.677201424114107 0.3296920621161052 a28.68427736109532,28.68427736109532 0 0,0 -0.025349266448035486,0.491768996980933 l -7.6704105682094985 -0.4614328524737688" fill="#ff4406" stroke="none" /><path d="M 120.93736805541906 101.62068470465957 l 31.908770628530103 2.46994065181772 a53.0042223752999,53.0042223752999 0 0,0 -0.07800802358780325,0.9065714798775223 l -31.86166898224456 -3.0173331790708997" fill="#83ff25" stroke="none" /><path d="M 120.86939407059847 102.33845913500097 l 15.486772044117451 1.7353251098586273 a36.583692167883825,36.583692167883825 0 0,0 -0.07528908821022007,0.6235016546844379 l -15.454700869647567 -2.000920441466474" fill="#ffb210" stroke="none" /><path d="M 120.82617615685814 102.69636545807757 l 14.657890355677408 1.8977573677307955 a35.78023114521005,35.78023114521005 0 0,0 -0.08409288599705557,0.6084542322503795 l -14.62315295312514 -2.14909990818126" fill="#ffa80f" stroke="none" /><path d="M 120.7213421655516 103.40968896794604 l 7.653247610106464 1.2593389818407412 a28.756167459047283,28.756167459047283 0 0,0 -0.08433113434234758,0.48639957275980317 l -7.630501658271883 -1.3905315875211324" fill="#ff4506" stroke="none" /><path d="M 120.592083275326 104.11899336999214 l 13.275580487813256 2.655487901878352 a34.538561714060705,34.538561714060705 0 0,0 -0.12128345741089515,0.5803852488169355 l -13.228039319577997 -2.8829896019806966" fill="#ff970d" stroke="none" /><path d="M 120.51834098615036 104.47187691870673 l 61.555022958451104 13.415630756120176 a84.0,84.0 0 0,0 -0.3191565537693437,1.4062626642439322 l -61.315655543124095 -14.470327754303124" fill="#4dd2ff" stroke="none" /><path d="M 120.26092885502905 105.52220625578681 l 2.9582607325888417 0.8062871174682446 a24.066171142935815,24.066171142935815 0 0,0 -0.11205840496892853,0.3976557470758479 l -2.9439838355453336 -0.8569507884471009" fill="#ff0000" stroke="none" /><path d="M 120.16314734710363 105.8691983318838 l 10.002197693973887 2.911493975124684 a31.417329594311774,31.417329594311774 0 0,0 -0.15517719243718522,0.5165344049767698 l -9.950744181533073 -3.0827659836921777" fill="#ff6b09" stroke="none" /><path d="M 119.94978838288452 106.5578916946017 l 22.985617390338046 7.555828988577727 a45.195643378915186,45.195643378915186 0 0,0 -0.24860741388957722,0.7349636445220253 l -22.852524554876105 -7.949294307573913" fill="#deff1b" stroke="none" /><path d="M 119.58574465831526 107.57618678355244 l 12.278553617232552 4.749608312519437 a34.16516836404337,34.16516836404337 0 0,0 -0.216283940586732,0.545176817405631 l -12.195211001679695 -4.959686147138632" fill="#ff920d" stroke="none" /><path d="M 119.31412917781788 108.2440532568976 l 14.258149326874237 6.085956105675703 a36.50269924715227,36.50269924715227 0 0,0 -0.25094061839112397,0.5742012436618625 l -14.151574826466147 -6.32981941911341" fill="#ffb110" stroke="none" /><path d="M 119.0197475246899 108.90220220490707 l 16.83355249322312 7.878952542722203 a39.58618795537608,39.58618795537608 0 0,0 -0.29335390210257245,0.6129968292375849 l -16.695819333160635 -8.16676187402489" fill="#ffda14" stroke="none" /><line stroke="#e1ed5e" stroke-width="0.3" x1="174.33088141563837" x2="178.70328620479359" y1="141.23008692659167" y2="143.65538615756765" /><path d="M 175.20536237346943 141.71514677278685 a86.0,86.0 0 0,1 -30.301960400862466,31.631185727798858" fill="none" id="id65" stroke="none" /><text fill="#e1ed5e" style="font-size:6.75px; font-family:Arial;" text-anchor="middle"><textPath startOffset="22.145653131862474" xlink:href="#id65">May</textPath></text><path d="M 117.81537515405839 111.11811171558189 l 27.288530074622894 17.03006101752278 a53.166548647533624,53.166548647533624 0 0,0 -0.4898469790766298,0.7701208125290894 l -26.992165403920374 -17.49599550473054" fill="#81ff25" stroke="none" /><path d="M 117.423217284605 111.72311816256416 l 12.930978499526285 8.700539425716054 a36.5855571364533,36.5855571364533 0 0,0 -0.3550720013685087,0.5180606614519752 l -12.779716761342456 -8.921234822238072" fill="#ffb210" stroke="none" /><path d="M 117.01052211995028 112.31430620078461 l 12.62875320608509 9.142243419529244 a36.59057478998546,36.59057478998546 0 0,0 -0.3726976214211802,0.5056359021085264 l -12.46995356508008 -9.357685630906648" fill="#ffb210" stroke="none" /><path d="M 116.79662413953412 112.60449989151573 l 11.830640579666838 8.877933248026373 a35.79127294324839,35.79127294324839 0 0,0 -0.37299282436201403,0.488259580320395 l -11.67649577795052 -9.079713741587646" fill="#ffa80f" stroke="none" /><path d="M 115.89218393027572 113.72728997021213 l 11.77335409198233 10.169542855260735 a36.557360587843355,36.557360587843355 0 0,0 -0.41429749289443707,0.47139449537206224 l -11.597045535129308 -10.370149628444091" fill="#ffb210" stroke="none" /><path d="M 115.6541949942343 113.99807769240083 l 11.711440630553453 10.472442428167524 a36.71082085870314,36.71082085870314 0 0,0 -0.4241014068715836,0.46616173778332254 l -11.529941522839989 -10.671941741508517" fill="#ffb410" stroke="none" /><path d="M 115.41159269507618 114.26474011684316 l 11.469187642814775 10.615708857159943 a36.62803697609137,36.62803697609137 0 0,0 -0.4310669362063592,0.45777814808780554 l -11.285264872872155 -10.811028465192246" fill="#ffb310" stroke="none" /><path d="M 115.16444852881244 114.52719865689866 l 11.175891583745639 10.706251328332936 a36.47657488584174,36.47657488584174 0 0,0 -0.43704703286137014,0.4484487574579144 l -10.99045774973346 -10.89652277785859" fill="#ffb110" stroke="none" /><path d="M 114.65682725009322 115.03919595460226 l 17.047496017417462 17.49223271630034 a45.42530093704215,45.42530093704215 0 0,0 -0.5631169367504901,0.5394532871865179 l -16.744706594801663 -17.782298133792438" fill="#dbff1b" stroke="none" /><path d="M 114.13192950727249 115.5334660781643 l 10.520129331029613 11.563464990209196 a36.6328770135693,36.6328770135693 0 0,0 -0.46878739150590676,0.4191925761710869 l -10.320076912700328 -11.74235309626367" fill="#ffb310" stroke="none" /><line stroke="#e1ed5e" stroke-width="0.3" x1="143.1302829299769" x2="145.66735839644613" y1="173.24464959558577" y2="177.55315839532614" /><path d="M 143.63769802327073 174.10635135553383 a86.0,86.0 0 0,1 -40.68552437913181,11.842963189579606" fill="none" id="id66" stroke="none" /><text fill="#e1ed5e" style="font-size:6.75px; font-family:Arial;" text-anchor="middle"><textPath startOffset="21.407464694133747" xlink:href="#id66">June</textPath></text><line stroke="#e1ed5e" stroke-width="0.3" x1="101.45913802915013" x2="101.54496967792366" y1="184.9874750549273" y2="189.98673829345242" /><path d="M 101.47630435890484 185.9873277026323 a86.0,86.0 0 0,1 -42.54439059252881,-10.42667462771756" fill="none" id="id67" stroke="none" /><text fill="#e1ed5e" style="font-size:6.75px; font-family:Arial;" text-anchor="middle"><textPath startOffset="22.145653131862474" xlink:href="#id67">July</textPath></text><line stroke="#e1ed5e" stroke-width="0.3" x1="58.13341422392154" x2="55.67067388415222" y1="173.97424548756322" y2="178.32567169271397" /><path d="M 57.64086615596768 174.84453072859336 a86.0,86.0 0 0,1 -31.369924170532247,-30.572349798747897" fill="none" id="id68" stroke="none" /><text fill="#e1ed5e" style="font-size:6.75px; font-family:Arial;" text-anchor="middle"><textPath startOffset="22.145653131862474" xlink:href="#id68">August</textPath></text><line stroke="#e1ed5e" stroke-width="0.3" x1="26.387840678322732" x2="22.057713659400548" y1="142.50000000000003" y2="145.00000000000006" /><path d="M 25.521815274538298 143.00000000000003 a86.0,86.0 0 0,1 -11.493303480769221,-40.785679425670985" fill="none" id="id69" stroke="none" /><text fill="#e1ed5e" style="font-size:6.75px; font-family:Arial;" text-anchor="middle"><textPath startOffset="21.40746469413373" xlink:href="#id69">September</textPath></text><line stroke="#e1ed5e" stroke-width="0.3" x1="15.003131293944662" x2="10.003315487706104" y1="100.72959589197737" y2="100.7725132973878" /><path d="M 14.003168132696942 100.73817937305945 a86.0,86.0 0 0,1 10.791469493833604,-42.45332614584628" fill="none" id="id70" stroke="none" /><text fill="#e1ed5e" style="font-size:6.75px; font-family:Arial;" text-anchor="middle"><textPath startOffset="22.145653131862435" xlink:href="#id70">October</textPath></text><line stroke="#e1ed5e" stroke-width="0.3" x1="26.387840678322718" x2="22.05771365940052" y1="57.49999999999999" y2="54.99999999999999" /><path d="M 25.521815274538284 56.99999999999999 a86.0,86.0 0 0,1 29.574782752854787,-30.34633250058573" fill="none" id="id71" stroke="none" /><text fill="#e1ed5e" style="font-size:6.75px; font-family:Arial;" text-anchor="middle"><textPath startOffset="21.40746469413373" xlink:href="#id71">November</textPath></text><line stroke="#e1ed5e" stroke-width="0.3" x1="56.869717070023135" x2="54.33264160355391" y1="26.7553504044142" y2="22.446841604673864" /><path d="M 56.362301976729285 25.89364864446614 a86.0,86.0 0 0,1 42.16139366436587,-11.88097634709845" fill="none" id="id72" stroke="none" /><text fill="#e1ed5e" style="font-size:6.75px; font-family:Arial;" text-anchor="middle"><textPath startOffset="22.145653131862474" xlink:href="#id72">December</textPath></text></svg>