<?xml version="1.0" encoding="utf-8" ?>
<svg baseProfile="full" height="200mm" version="1.1" viewBox="0,0,200,200" width="200mm" xmlns="http://www.w3.org/2000/svg" xmlns:ev="http://www.w3.org/2001/xml-events" xmlns:xlink="http://www.w3.org/1999/xlink"><defs /><rect fill="#1a1a1a" height="200" width="200" x="0" y="0" /><text alignment-baseline="middle" fill="#e1ed5e" style="dominant-baseline: central; font-size:9.0px; font-family:Arial;" text-anchor="middle" x="100.0" y="100.0">2022</text><line stroke="#e1ed5e" stroke-width="0.3" x1="100.0" x2="100.0" y1="15.0" y2="10.0" /><path d="M 100.0 14.0 a86.0,86.0 0 0,1 42.46469731375804,11.215312516191453" fill="none" id="id37" stroke="none" /><text fill="#e1ed5e" style="font-size:6.75px; font-family:Arial;" text-anchor="middle"><textPath startOffset="22.20632615414155" xlink:href="#id37">January</textPath></text><line stroke="#e1ed5e" stroke-width="0.3" x1="143.23703022742887" x2="145.7803849466894" y1="26.81831364943548" y2="22.513508569990506" /><path d="M 143.74570117128098 25.957352633546492 a86.0,86.0 0 0,1 28.547481713284135,27.462654790039103" fill="none" id="id38" stroke="none" /><text fill="#e1ed5e" style="font-size:6.75px; font-family:Arial;" text-anchor="middle"><textPath startOffset="19.985693538727396" xlink:href="#id38">February</textPath></text><line stroke="#e1ed5e" stroke-width="0.3" x1="172.23445277983987" x2="176.4835382374775" y1="55.19839476539836" y2="52.563006222186495" /><path d="M 173.08426987136738 54.67131705675599 a86.0,86.0 0 0,1 12.851231095245387,41.99856678651699" fill="none" id="id39" stroke="none" /><text fill="#e1ed5e" style="font-size:6.75px; font-family:Arial;" text-anchor="middle"><textPath startOffset="22.20632615414155" xlink:href="#id39">March</textPath></text><path d="M 119.85752413597 93.16781622104841 l 16.132375041368626 -5.5505082264485495 a38.06052947734174,38.06052947734174 0 0,0 0.20781539573101532,0.6213415819928986 l -16.22552773087141 5.271993541533337" fill="#ff0000" stroke="none" /><path d="M 120.83666639777658 97.38593545837742 l 34.01045115952557 -4.266782062133946 a55.27705088306493,55.27705088306493 0 0,0 0.11031627092913833,0.945122440309533 l -34.0788577834583 3.6807158834995604" fill="#cdff1d" stroke="none" /><path d="M 120.91429891909075 98.10471618934814 l 34.15687538561123 -3.095345112511022 a55.29684092556806,55.29684092556806 0 0,0 0.07774608435612784,0.9486991527551455 l -34.20509595378685 2.5069320425481076" fill="#cdff1d" stroke="none" /><path d="M 120.96714384426684 98.82574320788733 l 41.4528349100751 -2.3215500073363886 a62.517792770311196,62.517792770311196 0 0,0 0.050926374071715484,1.0749752670382997 l -41.486654892380315 1.6076636336750894" fill="#62ff29" stroke="none" /><path d="M 120.98425023603335 99.18683210126433 l 47.534471965119 -1.8420246732957382 a68.57014904222726,68.57014904222726 0 0,0 0.035552987333034636,1.1798305640225626 l -47.55913664690768 1.0235239618481764" fill="#33ff54" stroke="none" /><line stroke="#e1ed5e" stroke-width="0.3" x1="184.98032266829074" x2="189.97916517819016" y1="98.17113171792111" y2="98.06355123074" /><path d="M 185.9800911702706 98.14961562048488 a86.0,86.0 0 0,1 -9.607161424134198,41.387399972396054" fill="none" id="id40" stroke="none" /><text fill="#e1ed5e" style="font-size:6.75px; font-family:Arial;" text-anchor="middle"><textPath startOffset="21.466115282336823" xlink:href="#id40">April</textPath></text><path d="M 120.99513854157772 99.54816195383933 l 62.98541562473312 -1.355514138482002 a84.0,84.0 0 0,0 0.018667971529137795,1.4458549677581491 l -62.99941660337998 0.27112291266339017" fill="#4dd2ff" stroke="none" /><path d="M 120.99824983174949 100.27111621757518 l 36.363701452497025 0.4695052813367191 a57.3667323048901,57.3667323048901 0 0,0 -0.021247373706352046,0.9872819661823572 l -36.350232016105664 -1.095377063309191" fill="#adff20" stroke="none" /><path d="M 120.95626037817324 101.35467743843564 l 40.76654277714756 2.6352753185269053 a61.85163015113888,61.85163015113888 0 0,0 -0.07782537718160482,1.0618654390929474 l -40.71514084130162 -3.336613894116623" fill="#6cff28" stroke="none" /><path d="M 120.92983693683757 101.71520430193887 l 40.59105049839014 3.326444665821479 a61.727123820343984,61.727123820343984 0 0,0 -0.09589868263303249,1.058233971747176 l -40.52777721948003 -4.024660026117226" fill="#6dff28" stroke="none" /><path d="M 120.89721153311464 102.0752229133903 l 40.23064562631625 3.9951530132103352 a61.42853070678185,61.42853070678185 0 0,0 -0.113548294486154,1.0513161846300205 l -40.15591503032905 -4.687065519725147" fill="#72ff27" stroke="none" /><path d="M 120.70491114924044 103.5080841355445 l 39.8442944355218 6.750917026096283 a61.41216004815618,61.41216004815618 0 0,0 -0.18556285898526903,1.0407350589575886 l -39.722185134197346 -7.43577083578709" fill="#72ff27" stroke="none" /><path d="M 120.5718875245553 104.21870165774334 l 39.40694367814465 8.081229222313713 a61.2270241976217,61.2270241976217 0 0,0 -0.22060960199784904,1.0306146158157663 l -39.26200003742236 -8.758357657545648" fill="#75ff27" stroke="none" /><path d="M 120.32669344350535 105.2749913415812 l 22.019512381868292 5.7142957108603305 a43.74889230284428,43.74889230284428 0 0,0 -0.19543655927839226,0.7272921412594956 l -21.917887746248123 -6.092478785295374" fill="#ff6c0a" stroke="none" /><path d="M 120.23288151984713 105.62410040840565 l 21.592762816218706 6.002104349505413 a43.411440441431445,43.411440441431445 0 0,0 -0.20632292378263892,0.7182371647120679 l -21.486247255549966 -6.372898989722063" fill="#ff6609" stroke="none" /><path d="M 120.13307415673323 105.97154293290107 l 41.37257896234968 12.271257215624262 a64.15407331466949,64.15407331466949 0 0,0 -0.3231325424462275,1.0560158450380517 l -41.15521964739732 -12.98160003321437" fill="#4cff2c" stroke="none" /><path d="M 120.02730092923936 106.31721596034902 l 46.79337046191702 14.760043191290563 a70.06606153131685,70.06606153131685 0 0,0 -0.37271057208669217,1.1470851918423912 l -46.53236763881408 -15.563327283110748" fill="#36ff6b" stroke="none" /><path d="M 119.9155931802556 106.66101706037122 l 34.73869949216929 11.6187887490017 a57.630226513102144,57.630226513102144 0 0,0 -0.32275443108377777,0.9380754547297638 l -34.53355423014228 -12.215036906820764" fill="#a9ff21" stroke="none" /><path d="M 119.41010516605496 108.01547362559984 l 34.565823455107676 14.274082694620843 a58.397133418252075,58.397133418252075 0 0,0 -0.39167518776869675,0.9258044449051385 l -34.31499728614667 -14.866961665192145" fill="#9eff22" stroke="none" /><path d="M 119.26925614724726 108.34839909993367 l 37.45173294000844 16.225951390032687 a61.81560729330653,61.81560729330653 0 0,0 -0.43141087388498195,0.9727176314660899 l -37.16688098139219 -16.868217357991465" fill="#6cff28" stroke="none" /><line stroke="#e1ed5e" stroke-width="0.3" x1="174.80103733775053" x2="179.2010983576182" y1="140.37084112569926" y2="142.7455964860345" /><path d="M 175.68104954172406 140.8457921977663 a86.0,86.0 0 0,1 -30.038265399797805,32.042727171017184" fill="none" id="id41" stroke="none" /><text fill="#e1ed5e" style="font-size:6.75px; font-family:Arial;" text-anchor="middle"><textPath startOffset="22.206326154141568" xlink:href="#id41">May</textPath></text><path d="M 117.75023020441432 111.22182372390056 l 30.29158909217962 19.150561383971883 a56.837471605161134,56.837471605161134 0 0,0 -0.5299285961064546,0.8224609493279149 l -29.957455632696117 -19.669143933221253" fill="#b5ff1f" stroke="none" /><path d="M 117.55443506779139 111.5257021239791 l 28.373549734930158 18.629200038725937 a54.94267842471218,54.94267842471218 0 0,0 -0.5258717973230725,0.7861069857755743 l -28.048674832196365 -19.114843938707317" fill="#d3ff1c" stroke="none" /><path d="M 115.07121518719521 114.62390073753431 l 26.845795110324634 26.049010516890757 a58.40651900424063,58.40651900424063 0 0,0 -0.7063277647142349,0.7155062965399936 l -26.393426720554864 -26.507257307411418" fill="#9eff22" stroke="none" /><path d="M 113.75828350139079 115.86535959552629 l 24.74159378017166 28.53075983273492 a58.764410751608835,58.764410751608835 0 0,0 -0.769910387922597,0.6561343354367953 l -24.246817915672015 -28.95241855839466" fill="#98ff23" stroke="none" /><path d="M 113.20401910651253 116.32954008644616 l 21.37073366843616 26.42939617857495 a54.98854571603944,54.98854571603944 0 0,0 -0.7411474214902078,0.5888123357007612 l -20.9126287542286 -26.793342428280837" fill="#d2ff1c" stroke="none" /><path d="M 112.63410532772338 116.77436683061366 l 20.45654788529542 27.160264175017243 a55.002210243454904,55.002210243454904 0 0,0 -0.7611651884259997,0.5630918095079224 l -19.985997726450858 -27.508365933264933" fill="#d2ff1c" stroke="none" /><path d="M 111.1453310114006 117.79835938074945 l 17.934742775586262 28.640602687768013 a54.792589731256584,54.792589731256584 0 0,0 -0.8036789203239247,0.493685233785463 l -17.439084655330028 -28.945076388381853" fill="#d5ff1c" stroke="none" /><line stroke="#e1ed5e" stroke-width="0.3" x1="143.8653032363475" x2="146.44561519142675" y1="172.8068346515853" y2="177.08958963109032" /><path d="M 144.38136562736335 173.6633856474863 a86.0,86.0 0 0,1 -40.68145358897372,12.25698825130547" fill="none" id="id42" stroke="none" /><text fill="#e1ed5e" style="font-size:6.75px; font-family:Arial;" text-anchor="middle"><textPath startOffset="21.466115282336833" xlink:href="#id42">June</textPath></text><path d="M 110.5260780823613 118.17145234162733 l 17.99618222769379 31.067294496871092 a56.90319431649054,56.90319431649054 0 0,0 -0.8517899666434009,0.48366857341269776 l -17.45874349412919 -31.37246623607842" fill="#b4ff20" stroke="none" /><path d="M 109.2508944713604 118.85261126421891 l 14.946089230906814 30.458980054625837 a54.928381176624434,54.928381176624434 0 0,0 -0.8524030282245892,0.40920525399452173 l -14.41957353468199 -30.71173958511992" fill="#d3ff1c" stroke="none" /><path d="M 108.92500713936063 119.00905698771935 l 14.795056294611856 31.51146703294852 a55.81186931679101,55.81186931679101 0 0,0 -0.8731421565053437,0.40081673913319216 l -14.250446142339092 -31.761470842415786" fill="#c5ff1e" stroke="none" /><path d="M 105.18746579009965 120.34920634021253 l 8.52057902768572 33.424224426380896 a55.49317389675985,55.49317389675985 0 0,0 -0.9276522102681583,0.2279943436177695 l -7.943973532674351 -33.565940028312696" fill="#caff1d" stroke="none" /><path d="M 104.83641907484287 120.43548508189849 l 9.386427194466071 39.66078826845042 a61.75638773924729,61.75638773924729 0 0,0 -1.036565824969827,0.23591900699454565 l -8.702341220103381 -39.81648400902265" fill="#6dff28" stroke="none" /><line stroke="#e1ed5e" stroke-width="0.3" x1="102.19456741930631" x2="102.32365962044197" y1="184.97166512339345" y2="189.96999836594603" /><path d="M 102.22038585953345 185.97133177190398 a86.0,86.0 0 0,1 -42.740103519485714,-10.115201625700543" fill="none" id="id43" stroke="none" /><text fill="#e1ed5e" style="font-size:6.75px; font-family:Arial;" text-anchor="middle"><textPath startOffset="22.20632615414155" xlink:href="#id43">July</textPath></text><path d="M 92.06813273071674 119.44442032107085 l -13.251884276594604 32.48607158596333 a56.08500084036751,56.08500084036751 0 0,0 -0.8907594511605418,-0.37233752282783833 l 13.809115187252608 -32.253149020115515" fill="#c1ff1e" stroke="none" /><line stroke="#e1ed5e" stroke-width="0.3" x1="58.666819895761336" x2="56.23545636021788" y1="174.27360380694188" y2="178.64263932499728" /><path d="M 58.180547188652646 175.14741091055294 a86.0,86.0 0 0,1 -31.652253787137756,-30.449443065178592" fill="none" id="id44" stroke="none" /><text fill="#e1ed5e" style="font-size:6.75px; font-family:Arial;" text-anchor="middle"><textPath startOffset="22.20632615414155" xlink:href="#id44">August</textPath></text><line stroke="#e1ed5e" stroke-width="0.3" x1="26.63291911575756" x2="22.317208475507996" y1="142.92168965132927" y2="145.44649492493687" /><path d="M 25.769776987707644 143.4266507060508 a86.0,86.0 0 0,1 -11.730757126820373,-40.83630448921669" fill="none" id="id45" stroke="none" /><text fill="#e1ed5e" style="font-size:6.75px; font-family:Arial;" text-anchor="middle"><textPath startOffset="21.46611528233685" xlink:href="#id45">September</textPath></text><line stroke="#e1ed5e" stroke-width="0.3" x1="15.007084014347285" x2="10.007500721073583" y1="101.09737516637583" y2="101.16192664675087" /><path d="M 14.007167355692545 101.11028546245083 a86.0,86.0 0 0,1 10.666146001902534,-42.60595125391555" fill="none" id="id46" stroke="none" /><text fill="#e1ed5e" style="font-size:6.75px; font-family:Arial;" text-anchor="middle"><textPath startOffset="22.20632615414155" xlink:href="#id46">October</textPath></text><line stroke="#e1ed5e" stroke-width="0.3" x1="26.266209847984243" x2="21.928928074336255" y1="57.711370442889674" y2="55.22380399835377" /><path d="M 25.398753493254645 57.213857153982495 a86.0,86.0 0 0,1 29.58750427330803,-30.492523968695096" fill="none" id="id47" stroke="none" /><text fill="#e1ed5e" style="font-size:6.75px; font-family:Arial;" text-anchor="middle"><textPath startOffset="21.46611528233685" xlink:href="#id47">November</textPath></text><line stroke="#e1ed5e" stroke-width="0.3" x1="56.762969772571076" x2="54.21961505331055" y1="26.818313649435495" y2="22.513508569990535" /><path d="M 56.25429882871897 25.957352633546506 a86.0,86.0 0 0,1 42.265352541879196,-11.944610805530505" fill="none" id="id48" stroke="none" /><text fill="#e1ed5e" style="font-size:6.75px; font-family:Arial;" text-anchor="middle"><textPath startOffset="22.20632615414155" xlink:href="#id48">December</textPath></text></svg>