<?xml version="1.0" encoding="utf-8" ?>
<svg baseProfile="full" height="200mm" version="1.1" viewBox="0,0,200,200" width="200mm" xmlns="http://www.w3.org/2000/svg" xmlns:ev="http://www.w3.org/2001/xml-events" xmlns:xlink="http://www.w3.org/1999/xlink"><defs /><rect fill="#1a1a1a" height="200" width="200" x="0" y="0" /><text alignment-baseline="middle" fill="#e1ed5e" style="dominant-baseline: central; font-size:9.0px; font-family:Arial;" text-anchor="middle" x="100.0" y="100.0">2023</text><line stroke="#e1ed5e" stroke-width="0.3" x1="100.0" x2="100.0" y1="15.0" y2="10.0" /><path d="M 100.0 14.0 a86.0,86.0 0 0,1 42.46469731375804,11.215312516191453" fill="none" id="id49" stroke="none" /><text fill="#e1ed5e" style="font-size:6.75px; font-family:Arial;" text-anchor="middle"><textPath startOffset="22.20632615414155" xlink:href="#id49">January</textPath></text><line stroke="#e1ed5e" stroke-width="0.3" x1="143.23703022742887" x2="145.7803849466894" y1="26.81831364943548" y2="22.513508569990506" /><path d="M 143.74570117128098 25.957352633546492 a86.0,86.0 0 0,1 28.547481713284135,27.462654790039103" fill="none" id="id50" stroke="none" /><text fill="#e1ed5e" style="font-size:6.75px; font-family:Arial;" text-anchor="middle"><textPath startOffset="19.985693538727396" xlink:href="#id50">February</textPath></text><line stroke="#e1ed5e" stroke-width="0.3" x1="172.23445277983987" x2="176.4835382374775" y1="55.19839476539836" y2="52.563006222186495" /><path d="M 173.08426987136738 54.67131705675599 a86.0,86.0 0 0,1 12.851231095245387,41.99856678651699" fill="none" id="id51" stroke="none" /><text fill="#e1ed5e" style="font-size:6.75px; font-family:Arial;" text-anchor="middle"><textPath startOffset="22.20632615414155" xlink:href="#id51">March</textPath></text><path d="M 118.73160827565052 90.50648371742162 l 6.8267102013945 -3.459899625256922 a28.65342260630345,28.65342260630345 0 0,0 0.21918502077700522,0.44186362703518106 l -6.885255235124912 3.341876409722791" fill="#ff4906" stroke="none" /><path d="M 119.04729006885535 91.15688171328212 l 8.06272982277431 -3.74329751260652 a29.88931316035949,29.88931316035949 0 0,0 0.21263781589117375,0.46851924110560156 l -8.12596995562883 3.6039562626588557" fill="#ff5b08" stroke="none" /><path d="M 119.196687751892 91.48605970444005 l 2.4342246156959666 -1.0796051543826974 a23.662892556794183,23.662892556794183 0 0,0 0.1619322615431336,0.37376198584018766 l -2.452447587081781 1.037544023955907" fill="#ff0000" stroke="none" /><path d="M 119.85752413597 93.16781622104841 l 7.753935946225253 -2.6678207732286356 a29.200048191092193,29.200048191092193 0 0,0 0.1594360260754934,0.47669342456528735 l -7.798709266072517 2.5339542457410342" fill="#ff5107" stroke="none" /><path d="M 120.45610955862082 95.25157060432595 l 8.79566015319436 -2.041716246488608 a30.02952062745673,30.02952062745673 0 0,0 0.1125472299532828,0.5045271635864953 l -8.829501770149681 1.8900109133521488" fill="#ff5d08" stroke="none" /><path d="M 120.53481517161879 95.60439243477599 l 7.35402319430626 -1.574175356221491 a28.520617341317767,28.520617341317767 0 0,0 0.09862796725073548,0.48094499532421775 l -7.380030457471992 1.4473547047338615" fill="#ff4706" stroke="none" /><path d="M 120.87857604477298 97.74499172005257 l 8.839700724534095 -0.9547393597789017 a29.891109950081578,29.891109950081578 0 0,0 0.05084744590311658,0.5120268411165942 l -8.85482529611944 0.8024369879578724" fill="#ff5b08" stroke="none" /><path d="M 120.91429891909075 98.10471618934814 l 7.575763400170914 -0.686526561622706 a28.60680680806228,28.60680680806228 0 0,0 0.04022051129923956,0.4907921126700424 l -7.5864583952896485 0.5560205317448947" fill="#ff4906" stroke="none" /><path d="M 120.96714384426684 98.82574320788733 l 8.329965759635105 -0.46651651478949985 a29.34301907077196,29.34301907077196 0 0,0 0.023902532373171876,0.5045446802192981 l -8.336761900241774 0.323060727947202" fill="#ff5307" stroke="none" /><line stroke="#e1ed5e" stroke-width="0.3" x1="184.98032266829074" x2="189.97916517819016" y1="98.17113171792111" y2="98.06355123074" /><path d="M 185.9800911702706 98.14961562048488 a86.0,86.0 0 0,1 -9.607161424134198,41.387399972396054" fill="none" id="id52" stroke="none" /><text fill="#e1ed5e" style="font-size:6.75px; font-family:Arial;" text-anchor="middle"><textPath startOffset="21.466115282336823" xlink:href="#id52">April</textPath></text><path d="M 120.99513854157772 99.54816195383933 l 9.155472744004038 -0.19703565699915424 a30.157592708585042,30.157592708585042 0 0,0 0.006702155738942847,0.5190893480158884 l -9.157507906860697 0.0394100509228032" fill="#ff5f08" stroke="none" /><path d="M 120.95626037817324 101.35467743843564 l 11.129696960756016 0.7194580090761489 a32.15292671297922,32.15292671297922 0 0,0 -0.04045671298905983,0.5519997057276005 l -11.11566368910262 -0.9109308513005195" fill="#ff7b0b" stroke="none" /><line stroke="#e1ed5e" stroke-width="0.3" x1="174.80103733775053" x2="179.2010983576182" y1="140.37084112569926" y2="142.7455964860345" /><path d="M 175.68104954172406 140.8457921977663 a86.0,86.0 0 0,1 -30.038265399797805,32.042727171017184" fill="none" id="id53" stroke="none" /><text fill="#e1ed5e" style="font-size:6.75px; font-family:Arial;" text-anchor="middle"><textPath startOffset="22.206326154141568" xlink:href="#id53">May</textPath></text><path d="M 118.48025628344425 109.97397251340804 l 10.436008825452507 5.63241459308094 a32.85893647648362,32.85893647648362 0 0,0 -0.27292255627776363,0.49543371535945063 l -10.337509859723234 -5.8112188268381955" fill="#ff840c" stroke="none" /><path d="M 117.14729908036423 112.12312394758627 l 12.656605605275038 8.948207982455344 a36.500325530283455,36.500325530283455 0 0,0 -0.3671241112792646,0.5099032809847279 l -12.500701701620171 -9.164744868891203" fill="#ffb610" stroke="none" /><path d="M 116.71984013943494 112.70617746262583 l 12.608107353655175 9.5814821294574 a36.83569293837201,36.83569293837201 0 0,0 -0.38799067433411555,0.5015302482460771 l -12.441309862102992 -9.79709037181673" fill="#ffba11" stroke="none" /><path d="M 116.498646956653 112.99209946851258 l 7.030179533722901 5.5360171063481145 a29.948235003516352,29.948235003516352 0 0,0 -0.3224171190412803,0.4022649299023588 l -6.9338445026267665 -5.656209869828723" fill="#ff5c08" stroke="none" /><path d="M 116.27256486870786 113.27417163493432 l 11.47145299048845 9.357715709012 a35.80408987420964,35.80408987420964 0 0,0 -0.393681312958385,0.47421450227610706 l -11.30867567763652 -9.553791468401878" fill="#ffac0f" stroke="none" /><path d="M 115.56566222782051 114.09645910891815 l 11.036179343811149 9.994502550663658 a35.88916840337251,35.88916840337251 0 0,0 -0.4186276530691684,0.4543376374409602 l -10.862505282746259 -10.182991442905953" fill="#ffad10" stroke="none" /><path d="M 115.32070863581623 114.36230785411682 l 13.56001435061947 12.711755391950447 a39.586627298511885,39.586627298511885 0 0,0 -0.47031448399911224,0.49312285618054097 l -13.339193315241392 -12.943285364713496" fill="#ffde14" stroke="none" /><path d="M 115.07121518719521 114.62390073753431 l 2.1451098740871837 2.08144290159218 a23.988963185536885,23.988963185536885 0 0,0 -0.29010581410308167,0.2938756580489162 l -2.108963434928566 -2.1180590536217605" fill="#ff0500" stroke="none" /><path d="M 114.81725581225074 114.88116024355365 l 10.407669072337033 10.452555668187442 a35.7504405193824,35.7504405193824 0 0,0 -0.43981561956041804,0.43045215265707387 l -10.22620350040082 -10.630157923767086" fill="#ffac0f" stroke="none" /><path d="M 114.55890576462653 115.13401014063108 l 5.673908139262166 5.89803826639478 a29.184136421434005,29.184136421434005 0 0,0 -0.365029849626705,0.34515850683647814 l -5.5715424552446535 -5.99483140997718" fill="#ff5107" stroke="none" /><path d="M 113.75828350139079 115.86535959552629 l 10.096797449351627 11.643118291679555 a36.411279060716424,36.411279060716424 0 0,0 -0.4770476148376358,0.4065503266916158 l -9.894884357936943 -11.815193008594116" fill="#ffb410" stroke="none" /><path d="M 113.48314897796784 116.09983520530334 l 10.356421848329061 12.366301473576925 a37.1301235468281,37.1301235468281 0 0,0 -0.4935298387021841,0.4061414579115443 l -10.142021881082186 -12.542738050345648" fill="#ffbe11" stroke="none" /><path d="M 113.20401910651253 116.32954008644616 l 9.277517518116206 11.473597015628592 a35.75519433203082,35.75519433203082 0 0,0 -0.48191618343411236,0.38286336206808924 l -9.078643841964741 -11.631594291701807" fill="#ffac0f" stroke="none" /><path d="M 111.7513745106137 117.40417183066458 l 8.409809207296927 12.455203804006494 a36.02853927374427,36.02853927374427 0 0,0 -0.5169671643152394,0.3426176471502802 l -8.194167344241723 -12.598119472248094" fill="#ffaf10" stroke="none" /><path d="M 111.45004920935366 117.60387380957326 l 8.130867005485934 12.500798390461837 a35.912443081530036,35.912443081530036 0 0,0 -0.5211035685664768,0.3325929526211344 l -7.9144816348725255 -12.638905771906781" fill="#ffae10" stroke="none" /><line stroke="#e1ed5e" stroke-width="0.3" x1="143.8653032363475" x2="146.44561519142675" y1="172.8068346515853" y2="177.08958963109032" /><path d="M 144.38136562736335 173.6633856474863 a86.0,86.0 0 0,1 -40.68145358897372,12.25698825130547" fill="none" id="id54" stroke="none" /><text fill="#e1ed5e" style="font-size:6.75px; font-family:Arial;" text-anchor="middle"><textPath startOffset="21.466115282336833" xlink:href="#id54">June</textPath></text><path d="M 107.2578585660854 119.70592522655815 l 5.712875599162675 15.511117826376715 a37.52972243672742,37.52972243672742 0 0,0 -0.6081252590577955,0.21805208183775673 l -5.445030779475145 -15.607157449254432" fill="#ffc312" stroke="none" /><path d="M 106.91757812671514 119.82793768551818 l 5.4115119056101655 15.511081896494588 a37.427967698541494,37.427967698541494 0 0,0 -0.6101298179932644,0.2069891607134353 l -5.143712354679674 -15.601934044106146" fill="#ffc212" stroke="none" /><path d="M 106.57524785965236 119.94407469862006 l 4.639389222995786 14.072218598356054 a35.81726252188195,35.81726252188195 0 0,0 -0.5871961411218186,0.18800166134423937 l -4.396471736783027 -14.149993106359998" fill="#ffac10" stroke="none" /><path d="M 106.2309692047433 120.05430185196036 l 4.4686747828589795 14.382377769653772 a36.060605719027066,36.060605719027066 0 0,0 -0.5943560988665934,0.1790746170110809 l -4.22044370955214 -14.457167755770579" fill="#ffb010" stroke="none" /><path d="M 104.83641907484287 120.43548508189849 l 3.8656456688430207 16.333643378518364 a37.784848002101825,37.784848002101825 0 0,0 -0.6342094085235365,0.14434399657139588 l -3.583916110926622 -16.397764108667445" fill="#ffc612" stroke="none" /><path d="M 104.48393922423573 120.51570834832081 l 3.134305952596624 14.340628537140427 a35.67915190481824,35.67915190481824 0 0,0 -0.6011232663277603,0.1259712250710242 l -2.8869912248394862 -14.392455742937992" fill="#ffab0f" stroke="none" /><path d="M 104.13013068566511 120.58985236759428 l 1.5850132031841595 7.901732496630203 a29.05913415340444,29.05913415340444 0 0,0 -0.4912825579506683,0.09415547149358827 l -1.448763030661787 -7.92784516647226" fill="#ff4f07" stroke="none" /><path d="M 103.41894727170886 120.7198165907248 l 2.031795677232696 12.313273775950126 a33.479779836019645,33.479779836019645 0 0,0 -0.5694179357956637,0.08893137089997208 l -1.819541877828515 -12.346423454197204" fill="#ff8d0d" stroke="none" /><path d="M 102.70371172650421 120.8252237178851 l 1.9032406978786764 14.659629920514567 a35.782661281396784,35.782661281396784 0 0,0 -0.6114959935302124,0.0740436488944264 l -1.6506172812970836 -14.690219098134344" fill="#ffac0f" stroke="none" /><path d="M 102.34483914955558 120.86867818915974 l 1.8174294885954752 16.174819981224047 a37.276604417722425,37.276604417722425 0 0,0 -0.6382596122781226,0.06615821849873242 l -1.53873727971175 -16.20370756817854" fill="#ffc011" stroke="none" /><path d="M 101.62511606390274 120.93702456842531 l 1.1448663539283588 14.749774192864194 a35.79413930273876,35.79413930273876 0 0,0 -0.6146999799254329,0.04239330957494359 l -0.8908036132239955 -14.767295846955422" fill="#ffac0f" stroke="none" /><path d="M 101.26447882468166 120.96189622390904 l 0.8914323662176206 14.777718998965229 a35.804581401576954,35.804581401576954 0 0,0 -0.6155181472109571,0.03181525751199515 l -0.6369261505931838 -14.790874063239427" fill="#ffac0f" stroke="none" /><line stroke="#e1ed5e" stroke-width="0.3" x1="102.19456741930631" x2="102.32365962044197" y1="184.97166512339345" y2="189.96999836594603" /><path d="M 102.22038585953345 185.97133177190398 a86.0,86.0 0 0,1 -42.740103519485714,-10.115201625700543" fill="none" id="id55" stroke="none" /><text fill="#e1ed5e" style="font-size:6.75px; font-family:Arial;" text-anchor="middle"><textPath startOffset="22.20632615414155" xlink:href="#id55">July</textPath></text><path d="M 99.45781275523022 120.99299961872073 l -0.38805158813193924 15.025006435104961 a36.03001671356347,36.03001671356347 0 0,0 -0.6198529413063306,-0.021348988603718106 l 0.6466248811129129 -15.01610064807515" fill="#ffaf10" stroke="none" /><path d="M 99.09653310690486 120.98055641714683 l -0.6337418038440361 14.71692628813801 a35.73056509589592,35.73056509589592 0 0,0 -0.6142457296165218,-0.031749488056435335 l 0.8869756018740468 -14.703836993319374" fill="#ffab0f" stroke="none" /><path d="M 98.73552117531835 120.96189622390904 l -0.8908952418416933 14.768814820257345 a35.795661037175364,35.795661037175364 0 0,0 -0.6147261129781021,-0.04239511186326001 l 1.1449841155987255 -14.751291363877801" fill="#ffac0f" stroke="none" /><path d="M 98.37488393609728 120.93702456842531 l -0.6886031850271023 8.87155208360023 a29.89823638247833,29.89823638247833 0 0,0 -0.5127628439360068,-0.04424333576832303 l 0.8412103467046508 -8.858384495553244" fill="#ff5b08" stroke="none" /><path d="M 97.2962882734958 120.8252237178851 l -1.9026671014195118 14.655211818366846 a35.77820610020118,35.77820610020118 0 0,0 -0.6100548887193787,-0.08454804874369606 l 2.1546505813257215 -14.620289204130545" fill="#ffac0f" stroke="none" /><path d="M 94.81253420990036 120.34920634021253 l -3.6372448172479044 14.268054632245498 a35.724365278318075,35.724365278318075 0 0,0 -0.5945717661555028,-0.15703180742035808 l 3.8823070262148964 -14.203331475521557" fill="#ffab0f" stroke="none" /><path d="M 94.46302465271185 120.25689768951611 l -3.9049947287310465 14.28633391635867 a35.810412573629314,35.810412573629314 0 0,0 -0.5932060186514417,-0.16764594624566118 l 4.150331915487103 -14.216999176774486" fill="#ffac10" stroke="none" /><path d="M 94.11515582081647 120.15858648285463 l -4.1532224754034655 14.22690081567667 a35.82072750404979,35.82072750404979 0 0,0 -0.5904023915670582,-0.1778833974344865 l 4.397499841410769 -14.153302049136457" fill="#ffac10" stroke="none" /><path d="M 91.7346041902142 119.30500536409082 l -3.014701731877084 7.041263896414571 a28.65949239774634,28.65949239774634 0 0,0 -0.45183644798559014,-0.19807182054767458 l 3.1354588545204174 -6.988327522572444" fill="#ff4906" stroke="none" /><path d="M 91.40352486487194 119.15986991738527 l -4.853068711676784 10.81654559040083 a32.85537576078784,32.85537576078784 0 0,0 -0.5140020213574369,-0.23595311779805972 l 5.038538728801639 -10.731405402268695" fill="#ff840c" stroke="none" /><path d="M 90.10565033884886 118.52300852407294 l -6.987532174431692 13.081215285671826 a35.83050232590968,35.83050232590968 0 0,0 -0.5415135275014927,-0.2952763514115297 l 7.2116685138018255 -12.95899828250053" fill="#ffad10" stroke="none" /><line stroke="#e1ed5e" stroke-width="0.3" x1="58.666819895761336" x2="56.23545636021788" y1="174.27360380694188" y2="178.64263932499728" /><path d="M 58.180547188652646 175.14741091055294 a86.0,86.0 0 0,1 -31.652253787137756,-30.449443065178592" fill="none" id="id56" stroke="none" /><text fill="#e1ed5e" style="font-size:6.75px; font-family:Arial;" text-anchor="middle"><textPath startOffset="22.20632615414155" xlink:href="#id56">August</textPath></text><path d="M 89.7882731507175 118.34994917583269 l -7.208309778323377 12.952962807185314 a35.823595223312005,35.823595223312005 0 0,0 -0.5362472062744609,-0.30449515891503315 l 7.430205751519045 -12.826964482475647" fill="#ffad10" stroke="none" /><path d="M 88.8546689885994 117.79835938074946 l -7.88031849863147 12.584349493966739 a35.84807300043256,35.84807300043256 0 0,0 -0.5201695335610546,-0.3319968072883376 l 8.095769834239448 -12.446838257854596" fill="#ffad10" stroke="none" /><path d="M 87.65650970185807 116.9893568818739 l -4.528797251656027 6.2333546586588975 a28.704850085967394,28.704850085967394 0 0,0 -0.39724099318400435,-0.2938693900666401 l 4.635423215258595 -6.15447531985249" fill="#ff4a06" stroke="none" /><path d="M 87.36589467227662 116.77436683061367 l -4.641672337214529 6.1627723113163855 a28.715237173748484,28.715237173748484 0 0,0 -0.39226555236401545,-0.30077249849147525 l 4.747066618072031 -6.081960470997544" fill="#ff4a06" stroke="none" /><path d="M 87.07902340077011 116.55440617244103 l -9.403798331582466 12.048183506037615 a36.283656265966926,36.283656265966926 0 0,0 -0.48903890680480094,-0.3885220842910095 l 9.609794731104627 -11.884527507741476" fill="#ffb310" stroke="none" /><path d="M 86.24171649860922 115.8653595955263 l -9.997050435671337 11.528095059278693 a36.25902988754928,36.25902988754928 0 0,0 -0.46801368224803913,-0.41296765956612935 l 10.194006470825965 -11.354304257940273" fill="#ffb210" stroke="none" /><path d="M 85.97065885151581 115.62618273729859 l -6.519398590159143 7.261446751412164 a30.758645751381863,30.758645751381863 0 0,0 -0.3909284004206303,-0.3571038249613324 l 6.643426540046628 -7.148150159864255" fill="#ff6709" stroke="none" /><path d="M 84.67929136418377 114.36230785411682 l -7.998802429568089 7.498430111068686 a31.96390872079141,31.96390872079141 0 0,0 -0.3728416312216428,-0.4046459535746081 l 8.12669046878546 -7.359632902692733" fill="#ff780b" stroke="none" /><path d="M 83.95833913139862 113.55231037782056 l -5.828399200349552 4.923946193351051 a28.629907165467454,28.629907165467454 0 0,0 -0.31479809938967335,-0.3791945899025162 l 5.912293299632762 -4.822890346334773" fill="#ff4906" stroke="none" /><path d="M 83.72743513129214 113.27417163493432 l -11.978536080830569 9.771363344076475 a36.45848854971666,36.45848854971666 0 0,0 -0.3925052959354232,-0.48971070712765685 l 12.144959288820854 -9.563724803370558" fill="#ffb510" stroke="none" /><path d="M 83.50135304334701 112.99209946851258 l -12.146195252233037 9.5646980807328 a36.46006172306379,36.46006172306379 0 0,0 -0.3840341474738169,-0.4964159039339531 l 12.309036216924921 -9.354204182685594" fill="#ffb510" stroke="none" /><path d="M 82.6465618267979 111.8261652097733 l -12.796442749915025 8.720626111521536 a36.48542110595653,36.48542110595653 0 0,0 -0.34921220667043135,-0.5220248672378939 l 12.944658061996186 -8.499064330077822" fill="#ffb510" stroke="none" /><path d="M 82.44556493220864 111.52570212397912 l -10.732242300053045 7.0464601905496105 a33.83875484632557,33.83875484632557 0 0,0 -0.3154982680136654,-0.48966031825484535 l 10.851945431443756 -6.860678272373317" fill="#ff920d" stroke="none" /><line stroke="#e1ed5e" stroke-width="0.3" x1="26.63291911575756" x2="22.317208475507996" y1="142.92168965132927" y2="145.44649492493687" /><path d="M 25.769776987707644 143.4266507060508 a86.0,86.0 0 0,1 -11.730757126820373,-40.83630448921669" fill="none" id="id57" stroke="none" /><text fill="#e1ed5e" style="font-size:6.75px; font-family:Arial;" text-anchor="middle"><textPath startOffset="21.46611528233685" xlink:href="#id57">September</textPath></text><path d="M 81.87401531095188 110.60418214915194 l -12.631506345681187 7.389766481966833 a35.63432954456693,35.63432954456693 0 0,0 -0.3051791922399396,-0.5321056453010088 l 12.756837534073505 -7.171240990807518" fill="#ffaa0f" stroke="none" /><path d="M 81.18737489456691 109.33194174019688 l -6.8016652584765565 3.3739440175254147 a28.59250607650481,28.59250607650481 0 0,0 -0.21491590330476876,-0.44279041679566994 l 6.858734418396044 -3.2563646447644596" fill="#ff4806" stroke="none" /><path d="M 80.87730276802145 108.67885076344099 l -13.912949539105355 6.314402788705724 a36.27880386207332,36.27880386207332 0 0,0 -0.2531896257748628,-0.5708757660132066 l 14.019580249611499 -6.073978686199822" fill="#ffb310" stroke="none" /><path d="M 80.58989483394504 108.01547362559985 l -29.944217744601804 12.36557378322837 a53.396968860135516,53.396968860135516 0 0,0 -0.3435138523611419,-0.852573210194356 l 30.15263421122033 -11.848301205191209" fill="#7cff26" stroke="none" /><path d="M 80.45479744820244 107.68017299344265 l -3.6534085924048214 1.4355855321037994 a24.925340770308118,24.925340770308118 0 0,0 -0.1534756735562843,-0.40067655393850876 l 3.677578545554615 -1.3724854113321328" fill="#ff1302" stroke="none" /><path d="M 80.32549172779594 107.34259656027581 l -14.44697216312421 5.391661465878796 a36.42027944120106,36.42027944120106 0 0,0 -0.21414385325707302,-0.5892319130381373 l 14.537640277386508 -5.1421817558345415" fill="#ffb410" stroke="none" /><path d="M 80.0844068197444 106.66101706037122 l -18.930813865141264 6.33164540875602 a40.96159931415431,40.96159931415431 0 0,0 -0.21789181210278688,-0.6706020429940337 l 19.036997928260302 -6.004844465784183" fill="#ffef16" stroke="none" /><path d="M 79.97269907076064 106.31721596034903 l -7.2495267167390836 2.2867198152047843 a28.601626479245343,28.601626479245343 0 0,0 -0.1440612544897097,-0.4708005150007739 l 7.287814743734923 -2.1615923276519626" fill="#ff4906" stroke="none" /><path d="M 79.58551787078972 104.9243191809786 l -17.639863879834916 4.255034220487619 a39.145801550679025,39.145801550679025 0 0,0 -0.15236931737844284,-0.6564030313908034 l 17.710493763143916 -3.950762531748241" fill="#ffd814" stroke="none" /><path d="M 79.35854240842038 103.8639653848113 l -21.644186181299386 4.051670567153572 a43.02014599941358,43.02014599941358 0 0,0 -0.1299895864166814,-0.729050633424326 l 21.710722210055255 -3.678501182996032" fill="#f5ff19" stroke="none" /><path d="M 79.23777060512086 103.15116336523772 l -15.048809325689053 2.2840156389590445 a36.22114941651764,36.22114941651764 0 0,0 -0.08825188015074696,-0.6172334442273957 l 15.085895256856398 -2.0246367227512483" fill="#ffb210" stroke="none" /><path d="M 79.1416061653843 102.43462659150553 l -33.759248157146985 3.9404358707727174 a54.98843731311436,54.98843731311436 0 0,0 -0.10164402764518009,-0.9410974582924472 l 33.82207448629322 -3.3587420905954883" fill="#6bff28" stroke="none" /><path d="M 79.07016306316243 101.71520430193888 l -18.01570209846289 1.476390372031338 a39.07609611147238,39.07609611147238 0 0,0 -0.04916785396325163,-0.6708563032866793 l 18.038446511090473 -1.166060932247898" fill="#ffd714" stroke="none" /><path d="M 79.0095281055655 100.63252640178507 l -19.016379111981504 0.5730391348596493 a40.025011126953046,40.025011126953046 0 0,0 -0.014824382265586663,-0.6888307925902021 l 19.0234255569321 -0.24561852647931837" fill="#ffe315" stroke="none" /><line stroke="#e1ed5e" stroke-width="0.3" x1="15.007084014347285" x2="10.007500721073583" y1="101.09737516637583" y2="101.16192664675087" /><path d="M 14.007167355692545 101.11028546245083 a86.0,86.0 0 0,1 10.666146001902534,-42.60595125391555" fill="none" id="id58" stroke="none" /><text fill="#e1ed5e" style="font-size:6.75px; font-family:Arial;" text-anchor="middle"><textPath startOffset="22.20632615414155" xlink:href="#id58">October</textPath></text><path d="M 79.08570108090925 98.10471618934814 l -18.09086683840687 -1.6394203397462805 a39.1649982663182,39.1649982663182 0 0,0 0.06662315765349604,-0.6708861055387249 l 18.059966555071146 1.9505819759894356" fill="#ffd814" stroke="none" /><path d="M 79.16333360222342 97.38593545837743 l -17.310685253393046 -2.1717124826124765 a38.44637953986942,38.44637953986942 0 0,0 0.08803122619133134,-0.6559348858645606 l 17.27073802814388 2.4693657105416964" fill="#ffcf13" stroke="none" /><path d="M 79.21141760316559 97.0276538004421 l -12.16089845349363 -1.7387621537366384 a33.28457345712299,33.28457345712299 0 0,0 0.08597580711597869,-0.56647314748697 l 12.12916675293835 1.9478344136157004" fill="#ff8a0c" stroke="none" /><path d="M 79.32604984820605 96.31383870115002 l -12.795280033378594 -2.281395946139273 a33.997075001539294,33.997075001539294 0 0,0 0.10768051585283459,-0.5752336214379072 l 12.754113793615899 2.501307645039753" fill="#ff940d" stroke="none" /><path d="M 79.54389044137918 95.25157060432595 l -60.69593618779687 -14.08920727405032 a83.30972982868937,83.30972982868937 0 0,0 0.33628250040981283,-1.3941080670603387 l 60.44442088712624 15.131900572770055" fill="#4cd8ff" stroke="none" /><path d="M 79.91906864156998 93.8553929516997 l -14.91347370059836 -4.56340564985141 a36.59603696275226,36.59603696275226 0 0,0 0.18950563502454404,-0.6007846501124583 l 14.83271258180561 4.819440466390284" fill="#ffb711" stroke="none" /><path d="M 80.14247586403 93.16781622104843 l -27.965800002503173 -9.621918816979077 a50.57477458072238,50.57477458072238 0 0,0 0.29031586973544943,-0.8207620580975848 l 27.79603105195791 10.101878501503274" fill="#9cff22" stroke="none" /><path d="M 80.38941819471856 92.48833698450439 l -14.578671978721827 -5.584233665526144 a36.61157718791937,36.61157718791937 0 0,0 0.23048984063082278,-0.5865715036767163 l 14.480388588209314 5.834354174098624" fill="#ffb711" stroke="none" /><path d="M 80.65960295795068 91.81776055985345 l -7.049895389975279 -2.9825619393101546 a28.654848184739933,28.654848184739933 0 0,0 0.19609370915212973,-0.4526113168866366 l 6.997510970980469 3.1034724007833905" fill="#ff4906" stroke="none" /><path d="M 81.26839172434947 90.50648371742162 l -56.19482482695157 -28.480548847735136 a84.0,84.0 0 0,0 0.6647622673595439,-1.284109110958658 l 55.69625312643191 29.44363068095413" fill="#4dd2ff" stroke="none" /><line stroke="#e1ed5e" stroke-width="0.3" x1="26.266209847984243" x2="21.928928074336255" y1="57.711370442889674" y2="55.22380399835377" /><path d="M 25.398753493254645 57.213857153982495 a86.0,86.0 0 0,1 29.58750427330803,-30.492523968695096" fill="none" id="id59" stroke="none" /><text fill="#e1ed5e" style="font-size:6.75px; font-family:Arial;" text-anchor="middle"><textPath startOffset="21.46611528233685" xlink:href="#id59">November</textPath></text><path d="M 81.96595687620814 89.24020034530311 l -12.95073628761793 -7.726904437294179 a36.08067049485865,36.08067049485865 0 0,0 0.3228089511059316,-0.5306130387194764 l 12.81581153822578 7.94868524922073" fill="#ffb010" stroke="none" /><path d="M 82.7489923806493 88.02491185347247 l -9.694234736852367 -6.729422306713091 a32.80098774320535,32.80098774320535 0 0,0 0.3259596285702202,-0.4610467783207671 l 9.57696248847827 6.895295585365645" fill="#ff840c" stroke="none" /><path d="M 82.95767976084542 87.72973835380427 l -15.263869504794549 -10.989798919921492 a39.808545732185266,39.808545732185266 0 0,0 0.40517021735375375,-0.5526517211310763 l 15.072436674927161 11.25091308472407" fill="#ffe115" stroke="none" /><path d="M 83.39014120810768 87.1503855733568 l -11.752594515901956 -9.091968205999219 a35.85891529399469,35.85891529399469 0 0,0 0.38189047999182646,-0.48496212800418464 l 11.594349955316158 9.292922727956451" fill="#ffad10" stroke="none" /><path d="M 83.84228863543731 86.58626213691792 l -13.22718129435661 -10.980883278995517 a38.191222253833516,38.191222253833516 0 0,0 0.42426699094160525,-0.5021982965772129 l 13.03620368992788 11.206940525201846" fill="#ffcc13" stroke="none" /><path d="M 84.31358615837235 86.03803664274999 l -10.808409189205586 -9.62021113132856 a35.46962927695944,35.46962927695944 0 0,0 0.40985386233550103,-0.4525708714925445 l 10.64121168625404 9.804834790090661" fill="#ffa80f" stroke="none" /><path d="M 84.5562425177563 85.77008943001954 l -17.834899592399267 -16.43311393073958 a45.25140979266217,45.25140979266217 0 0,0 0.532744153697724,-0.5682943186528147 l 17.549388116731087 16.737677666270443" fill="#daff1c" stroke="none" /><path d="M 85.05521093208273 85.24692304244772 l -11.913632406161831 -11.76080404569998 a37.74070335769983,37.74070335769983 0 0,0 0.46037224174990343,-0.45839525703801276 l 11.709424364244613 11.964135153388103" fill="#ffc612" stroke="none" /><path d="M 85.57189188830299 84.74124197986013 l -16.949543379196307 -17.925356462040025 a45.66992957133152,45.66992957133152 0 0,0 0.5758589189587026,-0.5351981057999299 l 16.63847657644275 18.214459153914603" fill="#d5ff1c" stroke="none" /><path d="M 86.10567301691215 84.25364557470407 l -10.959072861349162 -12.41984916991607 a37.56363279548978,37.56363279548978 0 0,0 0.48851719341922356,-0.4236372962047869 l 10.743661869283166 12.606651459540537" fill="#ffc412" stroke="none" /><path d="M 86.37877921826538 84.01681056812374 l -16.57737312024791 -19.451949212886504 a46.55753563528052,46.55753563528052 0 0,0 0.6144319094797921,-0.5145690540735689 l 16.240083673809007 19.734419424353884" fill="#caff1d" stroke="none" /><path d="M 86.93701828274178 83.55741782278169 l -12.322663920432554 -15.510732429967934 a40.809867909958136,40.809867909958136 0 0,0 0.55378494202772,-0.43223793124383053 l 12.053846423245407 15.720548750434988" fill="#ffed16" stroke="none" /><path d="M 87.51073957382395 83.11751280151077 l -15.866676785868778 -21.44794476048987 a47.678938634740554,47.678938634740554 0 0,0 0.6639966150005002,-0.48242177924946716 l 15.495134854514497 21.717885774556006" fill="#bdff1f" stroke="none" /><path d="M 88.09926311788651 82.69761687909137 l -7.039208718376634 -10.234247452058849 a33.421363865970704,33.421363865970704 0 0,0 0.47680398670360624,-0.32194018022941406 l 6.862000037266489 10.353899544586929" fill="#ff8c0c" stroke="none" /><path d="M 88.39885842347998 82.49532879139004 l -9.366522628275922 -14.132910791108316 a37.95496722425115,37.95496722425115 0 0,0 0.5476955525821298,-0.3562364225423566 l 9.121860049909504 14.292046137810207" fill="#ffc912" stroke="none" /><path d="M 89.00827224532344 82.1063720568725 l -6.360254251652749 -10.35397034413886 a33.151441726518456,33.151441726518456 0 0,0 0.488806853243104,-0.29450065978176304 l 6.181085332191995 10.461917613379242" fill="#ff880c" stroke="none" /><line stroke="#e1ed5e" stroke-width="0.3" x1="56.762969772571076" x2="54.21961505331055" y1="26.818313649435495" y2="22.513508569990535" /><path d="M 56.25429882871897 25.957352633546506 a86.0,86.0 0 0,1 42.265352541879196,-11.944610805530505" fill="none" id="id60" stroke="none" /><text fill="#e1ed5e" style="font-size:6.75px; font-family:Arial;" text-anchor="middle"><textPath startOffset="22.20632615414155" xlink:href="#id60">December</textPath></text><path d="M 89.63071344664047 81.73862282372117 l -7.226424198723031 -12.726474213012743 a35.63503852384298,35.63503852384298 0 0,0 0.5360119168891262,-0.29829005142101167 l 7.0062881927618585 12.848979661993939" fill="#ffaa0f" stroke="none" /><path d="M 90.26544431104013 81.39251694778311 l -6.824024652859628 -13.044038899485018 a35.721218131462976,35.721218131462976 0 0,0 0.5472822525882053,-0.28033922633369357 l 6.598481912682659 13.159570651131217" fill="#ffab0f" stroke="none" /><path d="M 90.58718382345135 81.22770947309562 l -8.918792391363079 -17.787042557671786 a40.897832562082314,40.897832562082314 0 0,0 0.6320248468282056,-0.3101318474848261 l 8.611296277524447 17.937929565291444" fill="#ffee16" stroke="none" /><path d="M 91.23893434514133 80.91482961587045 l -5.307755740467357 -11.562454461003043 a33.72252428424616,33.72252428424616 0 0,0 0.5296329294944202,-0.23763085703481307 l 5.107940692506162 11.652105648554384" fill="#ff900d" stroke="none" /><path d="M 91.90106846888425 80.62456947434976 l -10.15775891666502 -24.30085393733826 a47.33840481678676,47.33840481678676 0 0,0 0.7545203657206493,-0.3077878020555789 l 9.73795468135599 24.472102625577417" fill="#c1ff1e" stroke="none" /><path d="M 92.57280143429618 80.3572730644239 l -5.515133177310999 -14.585883769890899 a36.59373910620039,36.59373910620039 0 0,0 0.5911068128995557,-0.2177096277465079 l 5.263244038638875 14.678656665443729" fill="#ffb711" stroke="none" /><path d="M 92.91201910852362 80.23233633223022 l -7.795010185118476 -21.73949704231865 a44.0947594800007,44.0947594800007 0 0,0 0.7166826160488233,-0.25003649230738556 l 7.419645565006367 21.870454387798244" fill="#e8ff1a" stroke="none" /><path d="M 93.59665428221793 80.00007090966166 l -4.558388308850285 -14.237470060387528 a35.94939656623953,35.94939656623953 0 0,0 0.5909646446137422,-0.18361559174997438 l 4.312638291525814 14.313825787020027" fill="#ffae10" stroke="none" /><path d="M 94.28887869178378 79.79150937346287 l -9.949043835414532 -35.204147879285316 a57.58299469897986,57.58299469897986 0 0,0 0.9561577045882607,-0.26135401973051586 l 9.34158824160255 35.370188439842124" fill="#50ff2b" stroke="none" /><path d="M 94.98787191387505 79.60689891045804 l -4.746542423208051 -19.312499161831706 a40.887239347155855,40.887239347155855 0 0,0 0.6849124908487093,-0.16209665794882622 l 4.413406245396807 19.3913417319214" fill="#ffee16" stroke="none" /><path d="M 95.33964822691252 79.52364482259891 l -5.248475389719788 -23.060415061447674 a44.65014242499899,44.65014242499899 0 0,0 0.7508820316652355,-0.1641137287289019 l 4.850750633901032 23.147342288272448" fill="#e1ff1b" stroke="none" /><path d="M 96.04723909329186 79.375362276772 l -3.306031194717848 -17.250144216167968 a38.56409171403522,38.56409171403522 0 0,0 0.6530275792260196,-0.11933661605631626 l 3.008608494388935 17.304496313575022" fill="#ffd113" stroke="none" /><path d="M 97.11714578562143 79.19881850522333 l -5.624169360663791 -40.581090450232146 a61.96896609785695,61.96896609785695 0 0,0 1.057855315984648,-0.13733998066566794 l 4.924799316171285 40.671888754061946" fill="#31ff3e" stroke="none" /><path d="M 97.83486435360386 79.11191278185805 l -1.5374251959026588 -14.832267731971921 a35.911735053503726,35.911735053503726 0 0,0 0.6154157661118457,-0.05844114242707588 l 1.2818843027005768 14.856534418914178" fill="#ffae10" stroke="none" /></svg>